<svg width="293" height="56" viewBox="0 0 293 56" fill="none" xmlns="http://www.w3.org/2000/svg">
<path d="M14.3096 15.6802H14.2643L10.4152 27.4401H18.0681L14.3096 15.6802ZM21.7814 38.621L19.8794 32.5183H8.78499L6.65667 38.621H0L10.7322 9.04292H18.0228L28.6192 38.621H21.7814Z" fill="black"/>
<path d="M43.5942 38.621L38.7036 28.7765L35.8507 31.6719V38.621H29.9186V8.68655H35.8507V25.0347L43.1866 16.7047H50.3867L42.9149 24.7674L50.2056 38.621H43.5942Z" fill="black"/>
<path d="M63.2225 23.3419C63.0715 22.3322 62.6791 21.6047 62.0451 21.1592C61.4413 20.6841 60.5054 20.4465 59.2375 20.4465C58.0299 20.4465 57.1092 20.595 56.4752 20.8919C55.8714 21.1592 55.5696 21.6344 55.5696 22.3174C55.5696 22.9113 55.8714 23.3865 56.4752 23.7428C57.1092 24.0992 58.0149 24.4407 59.1922 24.7674C61.1243 25.3019 62.7545 25.7622 64.0828 26.1483C65.4112 26.5046 66.4678 26.9353 67.2527 27.4401C68.0678 27.9449 68.6414 28.5834 68.9735 29.3555C69.3357 30.098 69.5169 31.1077 69.5169 32.3846C69.5169 34.3446 68.6867 35.9779 67.0263 37.2846C65.3659 38.5616 62.9055 39.2 59.6451 39.2C58.045 39.2 56.596 39.0219 55.2978 38.6655C53.9997 38.3091 52.8827 37.8043 51.9469 37.151C51.0412 36.4679 50.3318 35.6661 49.8185 34.7455C49.3355 33.7952 49.0789 32.741 49.0487 31.5828H55.1167C55.1167 32.6222 55.5243 33.424 56.3394 33.9882C57.1847 34.5525 58.2715 34.8346 59.5998 34.8346C60.7168 34.8346 61.6677 34.6713 62.4526 34.3446C63.2677 33.9882 63.6753 33.4537 63.6753 32.741C63.6753 31.9392 63.3734 31.3601 62.7696 31.0037C62.196 30.6474 61.3055 30.3355 60.0979 30.0683C57.9243 29.5931 56.1733 29.1031 54.845 28.5983C53.5167 28.0637 52.4752 27.4846 51.7205 26.861C50.9959 26.2374 50.4978 25.5544 50.2261 24.8119C49.9846 24.0695 49.8638 23.238 49.8638 22.3174C49.8638 21.4859 50.0299 20.6989 50.3619 19.9565C50.7242 19.2141 51.2827 18.5607 52.0374 17.9965C52.7922 17.4323 53.7733 16.9868 54.9809 16.6602C56.1884 16.3038 57.6677 16.1256 59.4186 16.1256C62.6187 16.1256 64.9583 16.7641 66.4376 18.0411C67.9168 19.318 68.7319 21.085 68.8829 23.3419H63.2225Z" fill="black"/>
<path d="M85.6286 25.5247C85.5984 24.7228 85.4474 24.025 85.1757 23.431C84.9342 22.8074 84.6022 22.3025 84.1795 21.9165C83.7569 21.5007 83.2738 21.2038 82.7304 21.0256C82.187 20.8177 81.6285 20.7138 81.0549 20.7138C79.8776 20.7138 78.8511 21.1444 77.9757 22.0056C77.1304 22.8371 76.6474 24.0101 76.5266 25.5247H85.6286ZM76.3455 29.1774C76.436 30.8404 76.9191 32.1619 77.7945 33.1419C78.7002 34.1219 79.8776 34.6119 81.3266 34.6119C82.2927 34.6119 83.138 34.404 83.8625 33.9882C84.6172 33.5428 85.1003 32.934 85.3116 32.1619H91.3796C90.6852 34.4188 89.4777 36.1561 87.7569 37.3737C86.0361 38.5913 83.9833 39.2 81.5984 39.2C74.1719 39.2 70.4586 35.2207 70.4586 27.2619C70.4586 25.5692 70.7001 24.0398 71.1832 22.6738C71.6662 21.3077 72.3605 20.1347 73.2662 19.1547C74.2021 18.1747 75.3341 17.4323 76.6624 16.9274C77.9908 16.3929 79.5153 16.1256 81.2361 16.1256C84.6776 16.1256 87.2739 17.2095 89.0248 19.3774C90.806 21.5453 91.6966 24.8119 91.6966 29.1774H76.3455Z" fill="black"/>
<path d="M106.914 23.3419C106.763 22.3322 106.371 21.6047 105.737 21.1592C105.133 20.6841 104.197 20.4465 102.929 20.4465C101.721 20.4465 100.801 20.595 100.167 20.8919C99.5629 21.1592 99.261 21.6344 99.261 22.3174C99.261 22.9113 99.5629 23.3865 100.167 23.7428C100.801 24.0992 101.706 24.4407 102.884 24.7674C104.816 25.3019 106.446 25.7622 107.774 26.1483C109.103 26.5046 110.159 26.9353 110.944 27.4401C111.759 27.9449 112.333 28.5834 112.665 29.3555C113.027 30.098 113.208 31.1077 113.208 32.3846C113.208 34.3446 112.378 35.9779 110.718 37.2846C109.057 38.5616 106.597 39.2 103.337 39.2C101.737 39.2 100.287 39.0219 98.9893 38.6655C97.6912 38.3091 96.5742 37.8043 95.6383 37.151C94.7327 36.4679 94.0232 35.6661 93.51 34.7455C93.027 33.7952 92.7704 32.741 92.7402 31.5828H98.8082C98.8082 32.6222 99.2157 33.424 100.031 33.9882C100.876 34.5525 101.963 34.8346 103.291 34.8346C104.408 34.8346 105.359 34.6713 106.144 34.3446C106.959 33.9882 107.367 33.4537 107.367 32.741C107.367 31.9392 107.065 31.3601 106.461 31.0037C105.888 30.6474 104.997 30.3355 103.789 30.0683C101.616 29.5931 99.8648 29.1031 98.5365 28.5983C97.2082 28.0637 96.1667 27.4846 95.4119 26.861C94.6874 26.2374 94.1893 25.5544 93.9176 24.8119C93.6761 24.0695 93.5553 23.238 93.5553 22.3174C93.5553 21.4859 93.7213 20.6989 94.0534 19.9565C94.4157 19.2141 94.9742 18.5607 95.7289 17.9965C96.4836 17.4323 97.4648 16.9868 98.6723 16.6602C99.8799 16.3038 101.359 16.1256 103.11 16.1256C106.31 16.1256 108.65 16.7641 110.129 18.0411C111.608 19.318 112.423 21.085 112.574 23.3419H106.914Z" fill="black"/>
<path d="M137.021 33.5873C139.769 33.5873 141.761 32.7558 142.999 31.0928C144.237 29.4001 144.855 26.8759 144.855 23.5201C144.855 21.8571 144.705 20.4316 144.403 19.2438C144.101 18.0559 143.603 17.0908 142.908 16.3483C142.244 15.5762 141.384 15.0268 140.327 14.7002C139.271 14.3438 137.987 14.1656 136.478 14.1656H131.814V33.5873H137.021ZM125.701 38.621V9.04292H137.338C139.361 9.04292 141.233 9.38443 142.954 10.0675C144.674 10.7208 146.139 11.6711 147.346 12.9184C148.584 14.1656 149.55 15.6802 150.244 17.462C150.939 19.2438 151.286 21.2632 151.286 23.5201C151.286 25.7771 150.969 27.841 150.335 29.7119C149.731 31.5531 148.856 33.1419 147.708 34.4782C146.561 35.7849 145.188 36.8094 143.588 37.5519C141.988 38.2646 140.221 38.621 138.289 38.621H125.701Z" fill="black"/>
<path d="M153.213 38.621V16.7047H159.1V38.621H153.213ZM153.213 14.0765V8.68655H159.1V14.0765H153.213Z" fill="black"/>
<path d="M172.299 34.2555C173.748 34.2555 174.941 33.721 175.876 32.6519C176.842 31.5531 177.325 30.0683 177.325 28.1974C177.325 23.5053 175.65 21.1592 172.299 21.1592C168.948 21.1592 167.273 23.3865 167.273 27.841C167.273 29.801 167.74 31.3601 168.676 32.5183C169.642 33.6764 170.85 34.2555 172.299 34.2555ZM177.144 35.681C176.722 36.661 175.952 37.4331 174.835 37.9973C173.748 38.5319 172.48 38.7991 171.031 38.7991C169.19 38.7991 167.635 38.4873 166.367 37.8637C165.129 37.2104 164.118 36.364 163.333 35.3246C162.578 34.2852 162.02 33.0825 161.657 31.7164C161.325 30.3504 161.159 28.9546 161.159 27.5292C161.159 25.8365 161.416 24.2922 161.929 22.8965C162.442 21.471 163.137 20.2683 164.012 19.2883C164.888 18.2786 165.914 17.5065 167.091 16.972C168.269 16.4077 169.537 16.1256 170.895 16.1256C173.673 16.1256 175.756 17.2244 177.144 19.422V16.7047H183.031V38.8437C183.031 40.5067 182.744 41.9618 182.171 43.2091C181.597 44.4861 180.812 45.5403 179.816 46.3718C178.82 47.233 177.642 47.8864 176.284 48.3318C174.925 48.7773 173.476 49 171.937 49C170.397 49 168.963 48.7773 167.635 48.3318C166.307 47.9161 165.159 47.3073 164.193 46.5055C163.257 45.7333 162.518 44.783 161.974 43.6546C161.431 42.5261 161.159 41.2491 161.159 39.8237H166.639C166.639 41.16 167.076 42.1846 167.952 42.8973C168.857 43.6397 170.05 44.0109 171.529 44.0109C173.099 44.0109 174.427 43.5803 175.514 42.7191C176.601 41.8876 177.144 40.7443 177.144 39.2891V35.681Z" fill="black"/>
<path d="M185.539 38.621V16.7047H191.426V38.621H185.539ZM185.539 14.0765V8.68655H191.426V14.0765H185.539Z" fill="black"/>
<path d="M206.573 24.1883H212.052V30.4246C212.052 31.5828 211.871 32.6964 211.509 33.7655C211.176 34.8049 210.633 35.7404 209.878 36.5719C209.154 37.3737 208.218 38.0122 207.071 38.4873C205.954 38.9625 204.61 39.2 203.04 39.2C201.41 39.2 200.022 38.9625 198.874 38.4873C197.727 38.0122 196.776 37.3737 196.022 36.5719C195.297 35.7701 194.769 34.8346 194.437 33.7655C194.105 32.6964 193.939 31.568 193.939 30.3801V10.7802H199.735V16.7047H212.052V20.8029H199.735V29.801C199.735 31.1967 199.991 32.2807 200.505 33.0528C201.048 33.7952 201.924 34.1664 203.131 34.1664C204.308 34.1664 205.169 33.7952 205.712 33.0528C206.286 32.3104 206.573 31.2561 206.573 29.8901V24.1883Z" fill="black"/>
<path d="M227.732 27.8856C227.43 28.1825 226.992 28.4201 226.419 28.5983C225.845 28.7765 225.015 28.9695 223.928 29.1774C222.238 29.504 221.075 29.9198 220.441 30.4246C219.807 30.9295 219.49 31.657 219.49 32.6073C219.49 34.2407 220.441 35.0573 222.343 35.0573C223.098 35.0573 223.792 34.9385 224.426 34.701C225.09 34.4337 225.649 34.0922 226.102 33.6764C226.585 33.231 226.962 32.7261 227.234 32.1619C227.536 31.568 227.687 30.9443 227.687 30.291L227.732 27.8856ZM228.14 38.621C227.958 38.0567 227.838 37.4034 227.777 36.661C227.083 37.4331 226.162 38.0567 225.015 38.5319C223.868 38.9773 222.54 39.2 221.03 39.2C218.464 39.2 216.577 38.6506 215.37 37.5519C214.192 36.4234 213.604 34.9682 213.604 33.1864C213.604 31.6125 213.86 30.3652 214.373 29.4446C214.887 28.4943 215.596 27.7519 216.502 27.2174C217.407 26.6828 218.479 26.2968 219.717 26.0592C220.985 25.7919 222.358 25.5543 223.838 25.3465C225.317 25.1386 226.313 24.8713 226.826 24.5447C227.34 24.1883 227.596 23.6241 227.596 22.8519C227.596 22.1392 227.249 21.5898 226.555 21.2038C225.891 20.788 224.985 20.5801 223.838 20.5801C222.479 20.5801 221.498 20.8771 220.894 21.471C220.321 22.065 219.958 22.8519 219.807 23.8319H214.328C214.358 22.7035 214.539 21.6641 214.872 20.7138C215.234 19.7635 215.792 18.9468 216.547 18.2638C217.332 17.5808 218.343 17.0611 219.581 16.7047C220.819 16.3186 222.328 16.1256 224.109 16.1256C225.86 16.1256 227.34 16.3186 228.547 16.7047C229.785 17.0908 230.766 17.655 231.491 18.3974C232.245 19.1101 232.789 20.0159 233.121 21.1147C233.453 22.1838 233.619 23.4013 233.619 24.7674V38.621H228.14Z" fill="black"/>
<path d="M235.994 38.621V8.68655H241.881V38.621H235.994Z" fill="black"/>
<path d="M251.687 13.0447C251.687 11.2395 253.13 9.77609 254.912 9.77609H288.775C290.556 9.77609 292 11.2395 292 13.0447V35.9253C292 37.7306 290.556 39.194 288.775 39.194H254.912C253.13 39.194 251.687 37.7306 251.687 35.9253V13.0447Z" fill="#4E9F4F"/>
<path d="M259.944 17.204V31.0224H265.15C269.242 31.0224 271.651 28.4464 271.651 24.0605C271.651 19.6746 269.242 17.204 265.15 17.204H259.944ZM262.798 19.5884H264.81C267.324 19.5884 268.741 21.1781 268.741 24.0701C268.741 27.0578 267.361 28.6283 264.81 28.6283H262.798V19.5884Z" fill="white"/>
<path d="M273.273 27.0866C273.358 29.6817 275.447 31.2618 278.725 31.2618C282.108 31.2618 284.253 29.5668 284.253 26.8855C284.253 24.7787 283.062 23.5913 280.331 22.9976L278.678 22.6432C277.109 22.2793 276.448 21.8005 276.448 20.9483C276.448 19.9236 277.393 19.2437 278.801 19.2437C280.227 19.2437 281.238 19.9523 281.333 21.1206H284.007C283.96 18.6213 281.966 16.9646 278.791 16.9646C275.749 16.9646 273.576 18.65 273.576 21.1972C273.576 23.2178 274.814 24.5106 277.327 25.0564L279.103 25.449C280.747 25.8225 281.399 26.3205 281.399 27.2206C281.399 28.2357 280.36 28.9731 278.839 28.9731C277.327 28.9731 276.155 28.2261 276.023 27.0866H273.273Z" fill="white"/>
</svg>
