<svg width="80" height="80" viewBox="0 0 80 80" fill="none" xmlns="http://www.w3.org/2000/svg">
<path d="M80 61.184H0V61.224H80V61.184Z" fill="#EBEBEB"/>
<path d="M71.984 63.7584H66.6848V63.7984H71.984V63.7584Z" fill="#EBEBEB"/>
<path d="M52.9952 64.1936H51.6048V64.2336H52.9952V64.1936Z" fill="#EBEBEB"/>
<path d="M66.5248 62.2736H63.4544V62.3136H66.5248V62.2736Z" fill="#EBEBEB"/>
<path d="M15.304 62.5424H8.39362V62.5824H15.304V62.5424Z" fill="#EBEBEB"/>
<path d="M17.7424 62.5424H16.7296V62.5824H17.7424V62.5424Z" fill="#EBEBEB"/>
<path d="M36.024 63.2176H21.0352V63.2576H36.024V63.2176Z" fill="#EBEBEB"/>
<path d="M37.92 54.048H7.02559C6.78356 54.0476 6.5516 53.9511 6.38061 53.7798C6.20962 53.6086 6.11359 53.3764 6.11359 53.1344V9.70559C6.11569 9.46495 6.21266 9.23486 6.38342 9.0653C6.55418 8.89574 6.78494 8.8004 7.02559 8.79999H37.92C38.1623 8.79999 38.3947 8.89624 38.566 9.06758C38.7373 9.23891 38.8336 9.47129 38.8336 9.71359V53.1344C38.8336 53.3767 38.7373 53.6091 38.566 53.7804C38.3947 53.9517 38.1623 54.048 37.92 54.048ZM7.02559 8.83199C6.79417 8.83241 6.57238 8.92464 6.40889 9.08842C6.24541 9.25221 6.15359 9.47417 6.15359 9.70559V53.1344C6.15359 53.3658 6.24541 53.5878 6.40889 53.7516C6.57238 53.9153 6.79417 54.0076 7.02559 54.008H37.92C38.1516 54.0076 38.3735 53.9154 38.5373 53.7517C38.701 53.5879 38.7932 53.366 38.7936 53.1344V9.70559C38.7932 9.47402 38.701 9.25207 38.5373 9.08833C38.3735 8.92459 38.1516 8.83241 37.92 8.83199H7.02559Z" fill="#EBEBEB"/>
<path d="M72.5296 54.048H41.6336C41.3914 54.0476 41.1593 53.9512 40.9881 53.7799C40.8168 53.6087 40.7204 53.3766 40.72 53.1344V9.70559C40.7225 9.46481 40.8198 9.23472 40.9909 9.0652C41.1619 8.89569 41.3928 8.8004 41.6336 8.79999H72.5296C72.77 8.80082 73.0003 8.89635 73.1707 9.06586C73.3412 9.23538 73.4379 9.46523 73.44 9.70559V53.1344C73.44 53.3761 73.3442 53.608 73.1735 53.7793C73.0029 53.9505 72.7714 54.0471 72.5296 54.048ZM41.6336 8.83199C41.402 8.83241 41.1801 8.92459 41.0163 9.08833C40.8526 9.25207 40.7604 9.47402 40.76 9.70559V53.1344C40.7604 53.366 40.8526 53.5879 41.0163 53.7517C41.1801 53.9154 41.402 54.0076 41.6336 54.008H72.5296C72.7612 54.0076 72.9831 53.9154 73.1469 53.7517C73.3106 53.5879 73.4028 53.366 73.4032 53.1344V9.70559C73.4028 9.47402 73.3106 9.25207 73.1469 9.08833C72.9831 8.92459 72.7612 8.83241 72.5296 8.83199H41.6336Z" fill="#EBEBEB"/>
<path d="M67.6704 12.7648H36.504V40.1408H67.6704V12.7648Z" fill="#E6E6E6"/>
<path d="M68.4848 12.7648H36.8848V40.1408H68.4848V12.7648Z" fill="#F0F0F0"/>
<path d="M67.6704 40.1392H36.504V40.8944H67.6704V40.1392Z" fill="#E6E6E6"/>
<path d="M69.8384 40.1392H38.2384V40.8944H69.8384V40.1392Z" fill="#F0F0F0"/>
<path d="M67.3456 39.0032V13.9024L38.0224 13.9024V39.0032H67.3456Z" fill="#FAFAFA"/>
<path d="M41.9472 39.0016L45.1808 13.9024H50.7792L47.544 39.0016H41.9472Z" fill="white"/>
<path d="M48.7456 39.0016L51.9808 13.9024H54.1632L50.928 39.0016H48.7456Z" fill="white"/>
<path d="M67.3472 39.0016V13.9008H67.2032V39.0016H67.3472Z" fill="#E6E6E6"/>
<path opacity="0.5" d="M68.752 16.2944H37.5856L37.4816 14.344H68.648L68.752 16.2944Z" fill="#E0E0E0"/>
<path opacity="0.5" d="M68.752 19.4992H37.5856L37.4816 17.5504H68.648L68.752 19.4992Z" fill="#E0E0E0"/>
<path opacity="0.5" d="M68.752 22.704H37.5856L37.4816 20.7552H68.648L68.752 22.704Z" fill="#E0E0E0"/>
<path opacity="0.5" d="M68.752 25.9104H37.5856L37.4816 23.96H68.648L68.752 25.9104Z" fill="#E0E0E0"/>
<path opacity="0.5" d="M68.752 29.1152H37.5856L37.4816 27.1648H68.648L68.752 29.1152Z" fill="#E0E0E0"/>
<path opacity="0.5" d="M68.752 32.32H37.5856L37.4816 30.3696H68.648L68.752 32.32Z" fill="#E0E0E0"/>
<path d="M19.12 18.5152H9.384V37.7648H19.12V18.5152Z" fill="#E0E0E0"/>
<path d="M19.6976 18.5152H9.76959V37.7648H19.6976V18.5152Z" fill="#F5F5F5"/>
<path d="M10.6 19.6288L10.6 36.6512H18.864V19.6288H10.6Z" fill="white"/>
<path d="M32.1184 15.5776H22.3824V34.8272H32.1184V15.5776Z" fill="#E0E0E0"/>
<path d="M32.696 15.5776H22.768V34.8272H32.696V15.5776Z" fill="#F5F5F5"/>
<path d="M23.6 16.6912V33.7136H31.8656V16.6912H23.6Z" fill="white"/>
<path d="M30.3888 43.4432H26.2912V61.184H30.3888V43.4432Z" fill="#E6E6E6"/>
<path d="M29.6112 61.184H30.3888V59.3776H28.7952L29.6112 61.184Z" fill="#F0F0F0"/>
<path d="M15.072 43.4432H10.9744V61.184H15.072V43.4432Z" fill="#E6E6E6"/>
<path d="M30.3888 43.4432H14.392V60.0752H30.3888V43.4432Z" fill="#F0F0F0"/>
<path d="M22.6512 44.5488V57.816H29.784V44.5488H22.6512Z" fill="#E6E6E6"/>
<path d="M14.9952 44.5488V57.816H22.128V44.5488H14.9952Z" fill="#E6E6E6"/>
<path d="M19.2688 45.056H17.8576C17.2662 45.0618 16.6919 44.8577 16.2368 44.48H20.8896C20.4345 44.8577 19.8602 45.0618 19.2688 45.056Z" fill="#F0F0F0"/>
<path d="M26.9968 45.056H25.5856C24.9941 45.0621 24.4198 44.858 23.9648 44.48H28.6176C28.1625 44.8577 27.5882 45.0618 26.9968 45.056Z" fill="#F0F0F0"/>
<path d="M15.1712 61.184H14.392V59.3776H15.9872L15.1712 61.184Z" fill="#F0F0F0"/>
<path d="M18.1472 41.7504C18.1472 41.7504 18.2688 43.4432 22.9328 43.4432C27.5968 43.4432 27.7184 41.7504 27.7184 41.7504H18.1472Z" fill="#E6E6E6"/>
<path d="M36.5312 49.3392L71.5424 49.3392V46.408L36.5312 46.408V49.3392Z" fill="#EBEBEB"/>
<path d="M36.5328 49.3392H46.4704V46.408H36.5328V49.3392Z" fill="#E0E0E0"/>
<path d="M69.448 61.184H71.544V49.3392H69.448V61.184Z" fill="#EBEBEB"/>
<path d="M69.448 50.16L71.544 49.7504V49.3392H69.448V50.16Z" fill="#E0E0E0"/>
<path d="M36.5312 61.184H38.6272V49.3392H36.5312V61.184Z" fill="#E0E0E0"/>
<path d="M44.3744 61.184H46.4704V49.3392H44.3744V61.184Z" fill="#EBEBEB"/>
<path d="M44.3744 50.16L46.4704 49.7504V49.3392H44.3744V50.16Z" fill="#E0E0E0"/>
<path d="M62.8864 61.184H64.9824V49.3392H62.8864V61.184Z" fill="#E0E0E0"/>
<path d="M40 68.4096C57.1332 68.4096 71.0224 67.5987 71.0224 66.5984C71.0224 65.5981 57.1332 64.7872 40 64.7872C22.8668 64.7872 8.9776 65.5981 8.9776 66.5984C8.9776 67.5987 22.8668 68.4096 40 68.4096Z" fill="#F5F5F5"/>
<path d="M37.2016 20.6928H18.1152C17.813 20.6897 17.5134 20.7495 17.2355 20.8683C16.9577 20.9872 16.7076 21.1626 16.5011 21.3834C16.2947 21.6041 16.1364 21.8654 16.0364 22.1506C15.9363 22.4358 15.8967 22.7387 15.92 23.04L18.656 63.744C18.7076 64.3781 18.9935 64.9702 19.4579 65.4051C19.9223 65.8399 20.5319 66.0862 21.168 66.096H40.2544C40.5571 66.0995 40.8571 66.0397 41.1354 65.9206C41.4137 65.8015 41.664 65.6257 41.8705 65.4043C42.0769 65.1829 42.2349 64.921 42.3344 64.6351C42.4338 64.3492 42.4725 64.0457 42.448 63.744L39.712 23.04C39.6593 22.4071 39.3732 21.8163 38.9092 21.3825C38.4453 20.9487 37.8367 20.7029 37.2016 20.6928Z" fill="#407BFF"/>
<path opacity="0.3" d="M37.2016 20.6928H18.1152C17.813 20.6897 17.5134 20.7495 17.2355 20.8683C16.9577 20.9872 16.7076 21.1626 16.5011 21.3834C16.2947 21.6041 16.1364 21.8654 16.0364 22.1506C15.9363 22.4358 15.8967 22.7387 15.92 23.04L18.656 63.744C18.7076 64.3781 18.9935 64.9702 19.4579 65.4051C19.9223 65.8399 20.5319 66.0862 21.168 66.096H40.2544C40.5571 66.0995 40.8571 66.0397 41.1354 65.9206C41.4137 65.8015 41.664 65.6257 41.8705 65.4043C42.0769 65.1829 42.2349 64.921 42.3344 64.6351C42.4338 64.3492 42.4725 64.0457 42.448 63.744L39.712 23.04C39.6593 22.4071 39.3732 21.8163 38.9092 21.3825C38.4453 20.9487 37.8367 20.7029 37.2016 20.6928Z" fill="white"/>
<path d="M15.9434 29.4142L15.7838 29.4249L16.0415 33.2643L16.2011 33.2536L15.9434 29.4142Z" fill="#407BFF"/>
<path d="M16.3428 35.2721L16.1832 35.2828L16.299 37.0037L16.4586 36.993L16.3428 35.2721Z" fill="#407BFF"/>
<path d="M20.0416 64.16C20.0546 64.3152 20.0106 64.4698 19.9179 64.5948C19.8251 64.7199 19.69 64.8068 19.5377 64.8394C19.3855 64.872 19.2266 64.8479 19.0908 64.7717C18.955 64.6956 18.8516 64.5725 18.8 64.4256C18.7204 64.209 18.6719 63.9822 18.656 63.752L15.92 23.04C15.9038 22.8109 15.9221 22.5806 15.9744 22.3568C16.0066 22.2044 16.0932 22.0689 16.2182 21.9758C16.3431 21.8827 16.4977 21.8383 16.653 21.8511C16.8083 21.8639 16.9536 21.9328 17.0617 22.0451C17.1698 22.1573 17.2332 22.3052 17.24 22.4608L20.0416 64.16Z" fill="#407BFF"/>
<path d="M40.2544 65.3328H22.5216C22.0813 65.3209 21.6607 65.1479 21.3396 64.8465C21.0184 64.5451 20.819 64.1363 20.7792 63.6976L18.0432 22.9952C18.0257 22.7987 18.0497 22.6007 18.1137 22.414C18.1777 22.2274 18.2802 22.0563 18.4147 21.9119C18.5491 21.7674 18.7125 21.6529 18.8941 21.5758C19.0757 21.4986 19.2715 21.4605 19.4688 21.464H37.2016C37.6416 21.4759 38.062 21.6487 38.3831 21.9498C38.7043 22.2509 38.9038 22.6593 38.944 23.0976L41.68 63.8016C41.697 63.9981 41.6727 64.1959 41.6085 64.3823C41.5443 64.5687 41.4417 64.7396 41.3073 64.8839C41.173 65.0282 41.0099 65.1427 40.8285 65.2201C40.6471 65.2974 40.4515 65.3358 40.2544 65.3328ZM19.4688 21.6352C19.295 21.632 19.1226 21.6655 18.9626 21.7334C18.8026 21.8014 18.6588 21.9023 18.5404 22.0295C18.4221 22.1568 18.3319 22.3076 18.2757 22.472C18.2195 22.6365 18.1986 22.811 18.2144 22.984L20.9504 63.68C20.9859 64.0758 21.1656 64.4447 21.4553 64.7166C21.7449 64.9886 22.1244 65.1447 22.5216 65.1552H40.2544C40.4282 65.1584 40.6006 65.125 40.7606 65.057C40.9206 64.9891 41.0644 64.8882 41.1828 64.7609C41.3011 64.6337 41.3913 64.4829 41.4475 64.3184C41.5037 64.154 41.5246 63.9795 41.5088 63.8064L38.7728 23.104C38.7372 22.7083 38.5576 22.3394 38.2679 22.0674C37.9782 21.7955 37.5988 21.6394 37.2016 21.6288L19.4688 21.6352Z" fill="white"/>
<g opacity="0.5">
<path opacity="0.5" d="M35.8379 39.9367C38.5421 37.0771 38.1429 32.3082 34.9462 29.2853C31.7494 26.2623 26.9658 26.1298 24.2615 28.9895C21.5573 31.8492 21.9565 36.618 25.1532 39.641C28.35 42.664 33.1336 42.7964 35.8379 39.9367Z" fill="#407BFF"/>
<path opacity="0.5" d="M34.68 38.8434C36.8433 36.5558 36.5239 32.7409 33.9666 30.3226C31.4094 27.9044 27.5826 27.7984 25.4194 30.086C23.2561 32.3736 23.5755 36.1885 26.1327 38.6068C28.69 41.025 32.5167 41.131 34.68 38.8434Z" fill="white"/>
<path opacity="0.5" d="M33.5213 37.7554C35.1439 36.0402 34.9048 33.1792 32.9874 31.3653C31.0699 29.5515 28.2001 29.4715 26.5775 31.1867C24.9549 32.902 25.1939 35.7629 27.1114 37.5768C29.0289 39.3907 31.8987 39.4707 33.5213 37.7554Z" fill="#407BFF"/>
<path opacity="0.5" d="M32.3654 36.6546C33.4474 35.5105 33.2877 33.6025 32.0087 32.3931C30.7298 31.1837 28.8159 31.1307 27.734 32.2748C26.652 33.4189 26.8117 35.3269 28.0907 36.5363C29.3696 37.7458 31.2835 37.7987 32.3654 36.6546Z" fill="white"/>
<path opacity="0.5" d="M31.2071 35.5646C31.7481 34.9927 31.6684 34.0387 31.0291 33.4338C30.3897 32.829 29.4328 32.8024 28.8917 33.3743C28.3506 33.9463 28.4303 34.9003 29.0697 35.5051C29.7091 36.1099 30.666 36.1366 31.2071 35.5646Z" fill="#407BFF"/>
</g>
<path d="M31.5024 44.7216C31.4736 44.7216 31.4464 44.7216 31.4176 44.7216C31.198 44.2976 30.8674 43.9411 30.4611 43.6904C30.0547 43.4396 29.5879 43.3038 29.1104 43.2976C28.8655 43.2974 28.6221 43.3352 28.3888 43.4096C28.1587 42.9878 27.8204 42.6349 27.4087 42.3872C26.9971 42.1395 26.5268 42.0058 26.0464 42C25.7444 41.9956 25.4445 42.0508 25.164 42.1625C24.8834 42.2742 24.6276 42.4402 24.4113 42.651C24.195 42.8618 24.0225 43.1132 23.9036 43.3908C23.7847 43.6685 23.7217 43.9668 23.7184 44.2688C23.4796 44.2829 23.246 44.3447 23.0314 44.4505C22.8168 44.5563 22.6256 44.704 22.4691 44.8849C22.3125 45.0658 22.1937 45.2762 22.1197 45.5037C22.0458 45.7312 22.0181 45.9712 22.0384 46.2096C22.0799 46.7351 22.3162 47.2261 22.701 47.5864C23.0858 47.9466 23.5913 48.1501 24.1184 48.1568H31.7376C31.9588 48.1594 32.178 48.1157 32.3813 48.0285C32.5846 47.9414 32.7675 47.8127 32.9181 47.6508C33.0688 47.4888 33.1839 47.2972 33.2561 47.0881C33.3284 46.8791 33.3561 46.6572 33.3376 46.4368C33.2998 45.9739 33.0909 45.5416 32.7515 45.2245C32.4122 44.9073 31.9668 44.728 31.5024 44.7216Z" fill="white"/>
<path d="M36.3552 26.1056H36.2896C36.1184 25.7752 35.8606 25.4976 35.5439 25.3023C35.2271 25.107 34.8633 25.0014 34.4912 24.9968C34.3001 24.9964 34.1102 25.0255 33.928 25.0832C33.7484 24.7548 33.4846 24.48 33.1638 24.2872C32.843 24.0943 32.4767 23.9902 32.1024 23.9856C31.6285 23.9788 31.1713 24.1603 30.8311 24.4902C30.4909 24.8202 30.2956 25.2717 30.288 25.7456C30.1018 25.7567 29.9196 25.8049 29.7523 25.8875C29.585 25.97 29.4359 26.0852 29.3138 26.2262C29.1917 26.3673 29.099 26.5313 29.0413 26.7087C28.9836 26.8861 28.9619 27.0733 28.9776 27.2592C29.0103 27.6685 29.1945 28.0509 29.4943 28.3314C29.7941 28.612 30.1878 28.7705 30.5984 28.776H36.5376C36.7102 28.7784 36.8814 28.7446 37.0402 28.6769C37.199 28.6091 37.3419 28.5089 37.4596 28.3826C37.5773 28.2563 37.6672 28.1067 37.7237 27.9436C37.7801 27.7804 37.8017 27.6072 37.7872 27.4352C37.7555 27.0756 37.5915 26.7405 37.327 26.4949C37.0624 26.2493 36.7162 26.1106 36.3552 26.1056Z" fill="white"/>
<path opacity="0.3" d="M38.72 51.0176H27.7504C27.6711 51.0167 27.5925 51.0323 27.5196 51.0635C27.4468 51.0947 27.3812 51.1407 27.3271 51.1987C27.273 51.2567 27.2317 51.3253 27.2057 51.4002C27.1796 51.4751 27.1695 51.5546 27.176 51.6336L27.6208 58.176C27.6336 58.3423 27.7082 58.4978 27.8299 58.6118C27.9516 58.7258 28.1116 58.7901 28.2784 58.792H29.7504L29.8736 60.6016L31.5584 58.792H39.2384C39.3177 58.7932 39.3965 58.7777 39.4695 58.7466C39.5425 58.7155 39.6081 58.6695 39.6623 58.6114C39.7164 58.5534 39.7577 58.4847 39.7837 58.4097C39.8096 58.3347 39.8195 58.2551 39.8128 58.176L39.3696 51.6336C39.3563 51.4689 39.2826 51.315 39.1627 51.2013C39.0428 51.0876 38.8852 51.0222 38.72 51.0176Z" fill="white"/>
<path d="M38.6352 55.3184H28.4176L28.3616 54.4912H38.5808L38.6352 55.3184Z" fill="white"/>
<path d="M35.52 57.0368H28.5344L28.4784 56.2096H35.464L35.52 57.0368Z" fill="white"/>
<path d="M38.52 53.6H28.3008L28.2448 52.7728H38.464L38.52 53.6Z" fill="white"/>
<path d="M47.3024 23.36L47.7232 23.6624C47.8693 23.7691 48.0165 23.8699 48.1648 23.9648C48.4608 24.1616 48.7584 24.3584 49.0592 24.5376C49.36 24.7168 49.664 24.8864 49.9648 25.0368C50.2468 25.179 50.5388 25.3004 50.8384 25.4C50.7719 25.3836 50.7029 25.3803 50.6352 25.3904C50.5947 25.3954 50.5553 25.4067 50.5184 25.424C50.472 25.448 50.4864 25.4496 50.5104 25.4352C50.603 25.3711 50.6864 25.2946 50.7584 25.208C50.969 24.9567 51.1594 24.6892 51.328 24.408C51.5152 24.1136 51.6944 23.8016 51.8656 23.4816C52.0368 23.1616 52.208 22.8336 52.3664 22.5216L52.3776 22.5008C52.4587 22.3413 52.5962 22.2177 52.7635 22.154C52.9308 22.0904 53.1157 22.0914 53.2823 22.1567C53.4489 22.222 53.5852 22.347 53.6647 22.5074C53.7441 22.6677 53.761 22.8519 53.712 23.024C53.4945 23.7863 53.219 24.5309 52.888 25.2512C52.7086 25.6388 52.4972 26.0108 52.256 26.3632C52.1052 26.5816 51.9284 26.781 51.7296 26.9568C51.5842 27.0835 51.4194 27.1861 51.2416 27.2608C51.1165 27.3121 50.9853 27.3471 50.8512 27.3648C50.6908 27.3831 50.5285 27.3739 50.3712 27.3376C49.9438 27.2384 49.5253 27.1041 49.12 26.936C48.7408 26.7817 48.3701 26.607 48.0096 26.4128C47.6544 26.224 47.3083 26.0251 46.9712 25.816C46.8032 25.7104 46.6368 25.6032 46.472 25.496C46.3072 25.3888 46.152 25.2768 45.9712 25.1456C45.7692 24.9594 45.6427 24.7054 45.6158 24.4319C45.5889 24.1585 45.6634 23.8847 45.8252 23.6626C45.987 23.4406 46.2248 23.2857 46.4933 23.2276C46.7619 23.1694 47.0424 23.212 47.2816 23.3472L47.3024 23.36Z" fill="#407BFF"/>
<path opacity="0.2" d="M47.3024 23.36L47.7232 23.6624C47.8693 23.7691 48.0165 23.8699 48.1648 23.9648C48.4608 24.1616 48.7584 24.3584 49.0592 24.5376C49.36 24.7168 49.664 24.8864 49.9648 25.0368C50.2468 25.179 50.5388 25.3004 50.8384 25.4C50.7719 25.3836 50.7029 25.3803 50.6352 25.3904C50.5947 25.3954 50.5553 25.4067 50.5184 25.424C50.472 25.448 50.4864 25.4496 50.5104 25.4352C50.603 25.3711 50.6864 25.2946 50.7584 25.208C50.969 24.9567 51.1594 24.6892 51.328 24.408C51.5152 24.1136 51.6944 23.8016 51.8656 23.4816C52.0368 23.1616 52.208 22.8336 52.3664 22.5216L52.3776 22.5008C52.4587 22.3413 52.5962 22.2177 52.7635 22.154C52.9308 22.0904 53.1157 22.0914 53.2823 22.1567C53.4489 22.222 53.5852 22.347 53.6647 22.5074C53.7441 22.6677 53.761 22.8519 53.712 23.024C53.4945 23.7863 53.219 24.5309 52.888 25.2512C52.7086 25.6388 52.4972 26.0108 52.256 26.3632C52.1052 26.5816 51.9284 26.781 51.7296 26.9568C51.5842 27.0835 51.4194 27.1861 51.2416 27.2608C51.1165 27.3121 50.9853 27.3471 50.8512 27.3648C50.6908 27.3831 50.5285 27.3739 50.3712 27.3376C49.9438 27.2384 49.5253 27.1041 49.12 26.936C48.7408 26.7817 48.3701 26.607 48.0096 26.4128C47.6544 26.224 47.3083 26.0251 46.9712 25.816C46.8032 25.7104 46.6368 25.6032 46.472 25.496C46.3072 25.3888 46.152 25.2768 45.9712 25.1456C45.7692 24.9594 45.6427 24.7054 45.6158 24.4319C45.5889 24.1585 45.6634 23.8847 45.8252 23.6626C45.987 23.4406 46.2248 23.2857 46.4933 23.2276C46.7619 23.1694 47.0424 23.212 47.2816 23.3472L47.3024 23.36Z" fill="black"/>
<path d="M52.7696 22.2224L53.2032 21.4896L54.0352 22.3872C53.915 22.6479 53.6981 22.8516 53.4304 22.9552C53.3702 22.9757 53.3062 22.9821 53.2432 22.9737C53.1802 22.9654 53.12 22.9426 53.0672 22.9072L52.9072 22.8048C52.8138 22.744 52.7474 22.6496 52.7218 22.5412C52.6962 22.4327 52.7133 22.3186 52.7696 22.2224Z" fill="#FFB573"/>
<path d="M54.3824 21.0528L54.5664 21.1664C54.6241 21.2022 54.6727 21.2509 54.7082 21.3087C54.7437 21.3666 54.7652 21.4319 54.7709 21.4995C54.7767 21.5672 54.7665 21.6352 54.7413 21.6982C54.7161 21.7612 54.6765 21.8175 54.6256 21.8624L54.0352 22.3872L53.2032 21.4896L53.928 21.0512C53.9965 21.0094 54.0752 20.9875 54.1554 20.9877C54.2357 20.988 54.3142 21.0106 54.3824 21.0528Z" fill="#FFB573"/>
<path d="M37.1232 65.2992L38.3904 65.336L38.8672 62.4016L37.6016 62.3648L37.1232 65.2992Z" fill="#FFB573"/>
<path d="M38.5904 64.9792L37.1744 64.8C37.1507 64.7963 37.1264 64.8022 37.1069 64.8162C37.0875 64.8303 37.0743 64.8515 37.0704 64.8752L36.8608 65.9856C36.8531 66.0444 36.8689 66.1038 36.9049 66.1509C36.9409 66.198 36.9941 66.2289 37.0528 66.2368C37.5472 66.2912 37.7856 66.2912 38.408 66.3696C38.7904 66.4192 39.7872 66.6592 40.3168 66.5936C40.8464 66.528 40.7664 66.008 40.536 65.9888C39.504 65.8992 39.1168 65.408 38.7968 65.0832C38.7413 65.0268 38.6688 64.9903 38.5904 64.9792Z" fill="#263238"/>
<path opacity="0.2" d="M37.6 62.3664L38.8672 62.4032L38.6208 63.9152L37.3536 63.8784L37.6 62.3664Z" fill="black"/>
<path d="M44.5264 34.24C44.5264 34.24 43.4208 44.7344 42.6848 48.2992C41.8848 52.2032 39.2976 63.624 39.2976 63.624L36.9792 63.4528C36.9792 63.4528 38.2496 51.6384 39.2896 47.8144C39.2896 43.8432 40.2496 32.7136 40.2496 32.7136L44.5264 34.24Z" fill="#263238"/>
<path opacity="0.3" d="M40.832 37.7872C40.8112 36.9664 40.3664 36.7024 39.928 36.712C39.768 38.6864 39.5968 41.1072 39.4672 43.2912C40.2448 42.0304 40.8896 40.0672 40.832 37.7872Z" fill="black"/>
<path d="M36.9104 63.4688L39.3936 63.6528L39.6784 62.7168L36.8192 62.688L36.9104 63.4688Z" fill="white"/>
<path d="M24.2736 55.464L25.072 56.4512L27.4608 54.728L26.6608 53.7424L24.2736 55.464Z" fill="#FFB573"/>
<path d="M25.2448 56.4528L24.5344 55.216C24.5232 55.195 24.5041 55.1792 24.4814 55.172C24.4587 55.1648 24.4341 55.1668 24.4128 55.1776L23.4 55.68C23.3486 55.7092 23.3109 55.7576 23.295 55.8145C23.2791 55.8715 23.2864 55.9324 23.3152 55.984C23.5696 56.4112 23.7136 56.6016 24.0256 57.1456C24.2176 57.48 24.7232 58.4416 24.9856 58.9056C25.248 59.3696 25.7008 59.0928 25.6256 58.8736C25.3056 57.888 25.2144 57.1344 25.28 56.6848C25.2946 56.6057 25.2822 56.524 25.2448 56.4528Z" fill="#263238"/>
<path opacity="0.2" d="M26.6608 53.7424L27.4608 54.7296L26.2288 55.616L25.4288 54.6304L26.6608 53.7424Z" fill="black"/>
<path d="M42.2144 33.3376C42.2144 33.3376 39.096 42.2624 37.6784 45.616C36.128 49.288 26.856 55.8096 26.856 55.8096L25.392 54.0032C25.392 54.0032 31.6928 47.688 34.032 44.6928C35.328 40.6144 38.0944 31.864 38.0944 31.864L42.2144 33.3376Z" fill="#263238"/>
<path d="M25.3328 53.9296L26.9152 55.8816L27.688 55.4352L25.8352 53.368L25.3328 53.9296Z" fill="white"/>
<path d="M44.5136 34.3008L38.088 31.864C38.248 31.2768 39.088 29.552 39.8352 27.1504C40.4003 25.3757 40.8114 23.5557 41.064 21.7104C41.0705 21.6566 41.088 21.6047 41.1153 21.5579C41.1426 21.5111 41.1792 21.4703 41.2227 21.4381C41.2663 21.4059 41.316 21.383 41.3688 21.3706C41.4215 21.3583 41.4763 21.3569 41.5296 21.3664C41.6496 21.3872 41.792 21.4144 41.9488 21.4448C42.3536 21.5264 42.8592 21.6416 43.3408 21.7888C44.2652 22.0598 45.1734 22.3835 46.0608 22.7584C46.358 22.8922 46.647 23.0434 46.9264 23.2112C47.0927 23.3058 47.2469 23.4203 47.3856 23.552C47.4358 23.5922 47.4774 23.6421 47.5079 23.6988C47.5384 23.7554 47.5572 23.8176 47.5632 23.8816C47.5632 24.8 46.6432 28.3584 44.5136 34.3008Z" fill="#F0F0F0"/>
<path d="M45.9328 22.6992C45.2096 22.2288 45.2448 21.6912 45.4896 21.1728C45.551 21.0446 45.62 20.9201 45.696 20.8L45 19.624L44.488 18.7616C44.376 19.7088 44.0336 21.3856 43.2336 21.7568C43.6708 22.3741 44.2952 22.8342 45.0144 23.0688C46.1952 23.4368 45.9328 22.6992 45.9328 22.6992Z" fill="#FFB573"/>
<path d="M44.9696 23.0496L44.9584 22.7488L44.1584 22.9056L44.9696 23.0496Z" fill="#E0E0E0"/>
<path d="M44.9696 23.0496L45.1184 22.8048L45.6352 23.4336L44.9696 23.0496Z" fill="#E0E0E0"/>
<path d="M43.3424 21.6128C43.829 22.0606 44.3723 22.4425 44.9584 22.7488C44.6384 22.9456 44.3344 23.464 44.2192 23.8928C43.96 23.712 42.9232 22.0064 42.7792 21.5376L43.3424 21.6128Z" fill="white"/>
<path d="M45.7824 22.5168C45.5929 22.6749 45.3618 22.775 45.1168 22.8048C45.288 23.056 45.4368 23.7072 45.4368 24.0848C45.736 23.8896 46.1984 23.208 46.272 22.8992L45.7824 22.5168Z" fill="white"/>
<path opacity="0.3" d="M45.808 22.4944C45.808 22.4944 46.5072 22.8304 47.1248 23.2112C47.3778 23.3672 47.5734 23.6012 47.6819 23.8779C47.7904 24.1547 47.806 24.4592 47.7264 24.7456C46.9632 27.4432 45.9328 30.0624 45.5056 31.52C45.0528 33.0736 44.4224 35.0224 44.4224 35.0224L43.3328 35.28C43.3328 35.28 46.064 24.8336 45.808 22.4944Z" fill="black"/>
<path opacity="0.3" d="M43.3264 21.4912C43.3264 21.4912 42.3872 21.368 41.5664 21.3312C41.2786 21.3183 40.9951 21.4049 40.7637 21.5766C40.5323 21.7482 40.3671 21.9944 40.296 22.2736C39.88 23.9184 39.5728 27.064 39.152 28.288C38.6288 29.8176 37.92 32.8 37.92 32.8L41.6416 34.9504C41.6416 34.9504 45.4016 23.4 43.3264 21.4912Z" fill="black"/>
<path d="M43.3264 21.4912C43.3264 21.4912 42.3872 21.368 41.5664 21.3312C41.2786 21.3183 40.9951 21.4049 40.7637 21.5766C40.5323 21.7482 40.3671 21.9944 40.296 22.2736C39.88 23.9184 39.3136 26.9904 38.8912 28.216C38.3648 29.7456 37.248 32.3456 37.248 32.3456L41.9424 34.5472C41.9424 34.5472 45.4016 23.4 43.3264 21.4912Z" fill="#407BFF"/>
<path opacity="0.2" d="M43.3264 21.4912C43.3264 21.4912 42.3872 21.368 41.5664 21.3312C41.2786 21.3183 40.9951 21.4049 40.7637 21.5766C40.5323 21.7482 40.3671 21.9944 40.296 22.2736C39.88 23.9184 39.3136 26.9904 38.8912 28.216C38.3648 29.7456 37.248 32.3456 37.248 32.3456L41.9424 34.5472C41.9424 34.5472 45.4016 23.4 43.3264 21.4912Z" fill="black"/>
<path d="M45.808 22.4944C45.808 22.4944 46.5072 22.8304 47.1248 23.2112C47.3778 23.3672 47.5734 23.6012 47.6819 23.8779C47.7904 24.1547 47.806 24.4592 47.7264 24.7456C46.9632 27.4432 46.36 30.2704 46.056 31.7584C45.736 33.3424 45.4016 34.784 45.4016 34.784L43.6416 35.0224C43.6416 35.0224 46.064 24.8336 45.808 22.4944Z" fill="#407BFF"/>
<path opacity="0.2" d="M45.808 22.4944C45.808 22.4944 46.5072 22.8304 47.1248 23.2112C47.3778 23.3672 47.5734 23.6012 47.6819 23.8779C47.7904 24.1547 47.806 24.4592 47.7264 24.7456C46.9632 27.4432 46.36 30.2704 46.056 31.7584C45.736 33.3424 45.4016 34.784 45.4016 34.784L43.6416 35.0224C43.6416 35.0224 46.064 24.8336 45.808 22.4944Z" fill="black"/>
<path opacity="0.2" d="M45.696 20.8C45.6198 20.9217 45.5509 21.0478 45.4896 21.1776C45.1472 20.9712 44.7952 20.4016 44.8784 20.0064C44.9045 19.8748 44.9453 19.7466 45 19.624L45.696 20.8Z" fill="black"/>
<path d="M46.6832 15.9488C47.5344 16.0592 47.8464 17.208 47.376 17.9664C46.6048 16.848 46.6832 15.9488 46.6832 15.9488Z" fill="#263238"/>
<path d="M44.0336 18.0672C44.3216 19.2976 44.4256 20.0304 45.1632 20.5824C45.4009 20.7646 45.6839 20.8783 45.9816 20.9112C46.2793 20.9442 46.5803 20.895 46.8521 20.7691C47.1238 20.6432 47.356 20.4453 47.5233 20.1969C47.6907 19.9486 47.7869 19.6591 47.8016 19.36C47.8816 18.2096 47.3984 16.3904 46.0944 16.0608C45.8139 15.9817 45.5175 15.9777 45.235 16.0494C44.9525 16.1211 44.6938 16.2659 44.485 16.4693C44.2761 16.6726 44.1245 16.9273 44.0452 17.2078C43.966 17.4883 43.962 17.7847 44.0336 18.0672Z" fill="#FFB573"/>
<path d="M44.4128 19.1632C45.1536 19.184 45.0384 17.9568 44.7152 17.4928C45.7424 17.6528 47.4448 16.7456 47.616 15.7952C47.864 14.4176 45.7632 14.4176 45.0832 14.856C45.376 14.8768 45.5248 15.1248 45.4544 15.2528C45.4544 15.2528 44.44 14.9456 43.784 15.3024C44.0704 15.408 44.3744 15.8208 43.2848 15.952C42.248 16.0768 42.5616 17.12 43.0848 17.1008C42.8064 17.528 42.472 18.4992 43.0992 18.912C43.7264 19.3248 44.1552 19.8624 44.0192 20.0832C44.2384 20.0752 44.704 19.8112 44.4128 19.1632Z" fill="#263238"/>
<path d="M43.2336 17.0048C42.7376 17.0528 42.4528 17.44 42.4336 17.9648C42.6461 17.6033 42.9163 17.279 43.2336 17.0048Z" fill="#263238"/>
<path d="M43.7376 19.1792C43.864 19.4318 44.0812 19.6272 44.3456 19.7264C44.6928 19.8528 44.8752 19.5456 44.7856 19.2032C44.704 18.8928 44.4256 18.456 44.0736 18.4784C43.7216 18.5008 43.584 18.8656 43.7376 19.1792Z" fill="#FFB573"/>
<path d="M45.984 18.1616C46 18.2624 46.0688 18.336 46.1344 18.3216C46.2 18.3072 46.24 18.224 46.224 18.1232C46.208 18.0224 46.1392 17.9472 46.072 17.9632C46.0048 17.9792 45.9664 18.0608 45.984 18.1616Z" fill="#263238"/>
<path d="M47.1312 18.008C47.1472 18.1088 47.2144 18.1824 47.2816 18.168C47.3488 18.1536 47.3872 18.0704 47.3712 17.968C47.3552 17.8656 47.2864 17.7936 47.2192 17.808C47.152 17.8224 47.1136 17.9056 47.1312 18.008Z" fill="#263238"/>
<path d="M46.7744 18.1072C46.9484 18.4004 47.1604 18.6694 47.4048 18.9072C47.2544 19.0976 46.936 19.0672 46.936 19.0672L46.7744 18.1072Z" fill="#ED893E"/>
<path d="M46.568 19.3888C46.4497 19.392 46.3319 19.3711 46.2219 19.3273C46.1119 19.2836 46.0119 19.218 45.928 19.1344C45.9227 19.1288 45.9198 19.1213 45.9198 19.1136C45.9198 19.1059 45.9227 19.0984 45.928 19.0928C45.9308 19.09 45.9342 19.0877 45.9379 19.0861C45.9416 19.0846 45.9456 19.0838 45.9496 19.0838C45.9536 19.0838 45.9576 19.0846 45.9613 19.0861C45.965 19.0877 45.9684 19.09 45.9712 19.0928C46.0639 19.1826 46.1761 19.2497 46.2991 19.2889C46.4221 19.328 46.5525 19.3381 46.68 19.3184C46.6842 19.317 46.6887 19.3165 46.6932 19.3171C46.6976 19.3176 46.7019 19.3191 46.7057 19.3215C46.7095 19.3238 46.7127 19.327 46.7151 19.3308C46.7176 19.3345 46.7191 19.3388 46.7197 19.3432C46.7203 19.3476 46.72 19.3521 46.7186 19.3564C46.7173 19.3607 46.715 19.3646 46.712 19.3679C46.7089 19.3711 46.7052 19.3737 46.7011 19.3754C46.6969 19.3771 46.6925 19.3778 46.688 19.3776C46.6484 19.3845 46.6082 19.3882 46.568 19.3888Z" fill="#263238"/>
<path d="M46.248 19.7216C46.1523 19.6511 46.072 19.5618 46.0121 19.4592C45.9521 19.3566 45.9137 19.2428 45.8992 19.1248C45.8988 19.117 45.9013 19.1093 45.9064 19.1034C45.9115 19.0974 45.9186 19.0936 45.9264 19.0928C45.9303 19.0924 45.9343 19.0928 45.938 19.0939C45.9418 19.0951 45.9453 19.097 45.9483 19.0995C45.9513 19.1021 45.9537 19.1052 45.9555 19.1087C45.9572 19.1123 45.9582 19.1161 45.9584 19.12C45.9771 19.2477 46.0246 19.3695 46.0972 19.4762C46.1698 19.5829 46.2657 19.6718 46.3776 19.736C46.381 19.7379 46.384 19.7404 46.3865 19.7434C46.3889 19.7464 46.3907 19.7499 46.3917 19.7537C46.3928 19.7574 46.393 19.7613 46.3925 19.7651C46.392 19.769 46.3908 19.7727 46.3888 19.776C46.3868 19.7795 46.3842 19.7826 46.381 19.785C46.3778 19.7874 46.3742 19.7892 46.3703 19.7903C46.3665 19.7913 46.3624 19.7916 46.3585 19.7911C46.3545 19.7905 46.3507 19.7892 46.3472 19.7872C46.3131 19.767 46.2799 19.7452 46.248 19.7216Z" fill="#263238"/>
<path d="M45.5664 17.84C45.5569 17.8424 45.547 17.8424 45.5376 17.84C45.5304 17.8365 45.5241 17.8315 45.5189 17.8255C45.5137 17.8194 45.5098 17.8123 45.5074 17.8047C45.505 17.7971 45.5042 17.789 45.5049 17.7811C45.5057 17.7731 45.5081 17.7654 45.512 17.7584C45.5542 17.6727 45.6168 17.5987 45.6944 17.5429C45.772 17.4871 45.8621 17.4512 45.9568 17.4384C45.9647 17.4378 45.9726 17.4387 45.9802 17.4412C45.9877 17.4437 45.9947 17.4477 46.0006 17.4529C46.0066 17.4581 46.0115 17.4645 46.0149 17.4716C46.0184 17.4788 46.0204 17.4865 46.0208 17.4944C46.0214 17.5023 46.0205 17.5103 46.018 17.5178C46.0155 17.5254 46.0115 17.5323 46.0063 17.5383C46.0011 17.5443 45.9947 17.5491 45.9876 17.5526C45.9804 17.556 45.9727 17.558 45.9648 17.5584C45.8913 17.569 45.8214 17.597 45.761 17.6402C45.7006 17.6833 45.6514 17.7403 45.6176 17.8064C45.6132 17.8164 45.6061 17.8249 45.597 17.8309C45.5879 17.8368 45.5773 17.84 45.5664 17.84Z" fill="#263238"/>
<path d="M47.5568 17.5488C47.547 17.5491 47.5374 17.5469 47.5287 17.5424C47.52 17.5379 47.5126 17.5313 47.5072 17.5232C47.4647 17.4589 47.4079 17.4053 47.3413 17.3664C47.2747 17.3276 47.2001 17.3046 47.1232 17.2992C47.109 17.2969 47.096 17.2896 47.0867 17.2786C47.0773 17.2676 47.0722 17.2536 47.0722 17.2392C47.0722 17.2248 47.0773 17.2108 47.0867 17.1998C47.096 17.1888 47.109 17.1815 47.1232 17.1792C47.2191 17.1846 47.3124 17.2123 47.3957 17.26C47.4791 17.3078 47.5501 17.3744 47.6032 17.4544C47.6078 17.4608 47.6111 17.468 47.6128 17.4757C47.6146 17.4833 47.6148 17.4913 47.6134 17.499C47.6121 17.5068 47.6092 17.5142 47.605 17.5208C47.6008 17.5274 47.5953 17.5331 47.5888 17.5376C47.5797 17.5447 47.5684 17.5487 47.5568 17.5488Z" fill="#263238"/>
<path d="M41.9104 23.4016C41.5904 23.6624 41.2528 23.952 40.9312 24.2352C40.6096 24.5184 40.2816 24.8096 39.9712 25.1072C39.3536 25.6788 38.7752 26.2914 38.24 26.9408L38.0576 27.1776L38.0352 27.208C38.04 27.2009 38.0443 27.1934 38.048 27.1856C38.0576 27.1677 38.0657 27.1489 38.072 27.1296C38.0842 27.0974 38.0907 27.0633 38.0912 27.0288C38.0912 26.9744 38.0816 26.9744 38.0912 27C38.0982 27.0492 38.1122 27.0972 38.1328 27.1424C38.1973 27.2935 38.2777 27.4372 38.3728 27.5712C38.483 27.733 38.6016 27.8889 38.728 28.0384C38.9856 28.3584 39.2736 28.664 39.576 28.9664C39.8784 29.2688 40.1984 29.5744 40.504 29.8544L40.5248 29.872C40.6596 29.9931 40.7436 30.1607 40.7601 30.3412C40.7765 30.5217 40.7241 30.7017 40.6134 30.8452C40.5027 30.9887 40.3419 31.085 40.1632 31.1149C39.9844 31.1448 39.801 31.1061 39.6496 31.0064C38.847 30.4976 38.0967 29.9108 37.4096 29.2544C37.2352 29.08 37.064 28.8976 36.896 28.696C36.7143 28.4775 36.5536 28.2423 36.416 27.9936C36.3326 27.8407 36.2646 27.6799 36.2128 27.5136C36.1432 27.2897 36.1182 27.0543 36.1392 26.8208C36.1523 26.6745 36.1857 26.5307 36.2384 26.3936C36.266 26.3226 36.2987 26.2536 36.336 26.1872L36.3936 26.0928L36.4192 26.0544L36.6272 25.7456C37.1816 24.9716 37.7986 24.2443 38.472 23.5712C38.792 23.2384 39.128 22.9136 39.4688 22.6C39.8096 22.2864 40.1472 21.984 40.5232 21.6768C40.7543 21.5399 41.0268 21.4907 41.2912 21.5379C41.5555 21.5852 41.7941 21.7259 41.9634 21.9344C42.1327 22.1429 42.2214 22.4052 42.2135 22.6737C42.2055 22.9421 42.1014 23.1987 41.92 23.3968L41.9104 23.4016Z" fill="#407BFF"/>
<path opacity="0.2" d="M41.9104 23.4016C41.5904 23.6624 41.2528 23.952 40.9312 24.2352C40.6096 24.5184 40.2816 24.8096 39.9712 25.1072C39.3536 25.6788 38.7752 26.2914 38.24 26.9408L38.0576 27.1776L38.0352 27.208C38.04 27.2009 38.0443 27.1934 38.048 27.1856C38.0576 27.1677 38.0657 27.1489 38.072 27.1296C38.0842 27.0974 38.0907 27.0633 38.0912 27.0288C38.0912 26.9744 38.0816 26.9744 38.0912 27C38.0982 27.0492 38.1122 27.0972 38.1328 27.1424C38.1973 27.2935 38.2777 27.4372 38.3728 27.5712C38.483 27.733 38.6016 27.8889 38.728 28.0384C38.9856 28.3584 39.2736 28.664 39.576 28.9664C39.8784 29.2688 40.1984 29.5744 40.504 29.8544L40.5248 29.872C40.6596 29.9931 40.7436 30.1607 40.7601 30.3412C40.7765 30.5217 40.7241 30.7017 40.6134 30.8452C40.5027 30.9887 40.3419 31.085 40.1632 31.1149C39.9844 31.1448 39.801 31.1061 39.6496 31.0064C38.847 30.4976 38.0967 29.9108 37.4096 29.2544C37.2352 29.08 37.064 28.8976 36.896 28.696C36.7143 28.4775 36.5536 28.2423 36.416 27.9936C36.3326 27.8407 36.2646 27.6799 36.2128 27.5136C36.1432 27.2897 36.1182 27.0543 36.1392 26.8208C36.1523 26.6745 36.1857 26.5307 36.2384 26.3936C36.266 26.3226 36.2987 26.2536 36.336 26.1872L36.3936 26.0928L36.4192 26.0544L36.6272 25.7456C37.1816 24.9716 37.7986 24.2443 38.472 23.5712C38.792 23.2384 39.128 22.9136 39.4688 22.6C39.8096 22.2864 40.1472 21.984 40.5232 21.6768C40.7543 21.5399 41.0268 21.4907 41.2912 21.5379C41.5555 21.5852 41.7941 21.7259 41.9634 21.9344C42.1327 22.1429 42.2214 22.4052 42.2135 22.6737C42.2055 22.9421 42.1014 23.1987 41.92 23.3968L41.9104 23.4016Z" fill="black"/>
<path d="M40.7472 30.1184L41.8352 30.784L40.4448 31.576C40.4448 31.576 39.52 30.8848 39.9152 30.4384L40.3792 30.1184C40.434 30.0828 40.4979 30.0638 40.5632 30.0638C40.6285 30.0638 40.6924 30.0828 40.7472 30.1184Z" fill="#FFB573"/>
<path d="M41.8944 32L41.296 32.352C41.2546 32.3767 41.2086 32.3928 41.1609 32.3994C41.1131 32.406 41.0645 32.403 41.018 32.3905C40.9714 32.3779 40.9278 32.3562 40.8898 32.3265C40.8518 32.2968 40.8202 32.2597 40.7968 32.2176L40.4448 31.5776L41.8352 30.7856L42.0592 31.5856C42.0814 31.6632 42.0773 31.7459 42.0475 31.8209C42.0177 31.8959 41.9638 31.9589 41.8944 32Z" fill="#FFB573"/>
<path d="M52.3024 20.7008L53.776 20.4112C53.3712 21.1248 53.9664 21.808 54.5008 22.2368C54.7552 22.4416 54.576 22.808 54.1808 22.8768L53.2208 23.0656C52.0624 23.2992 52.3024 20.7008 52.3024 20.7008Z" fill="#407BFF"/>
<path d="M51.7168 20.8144L55.096 20.16C55.6237 20.0548 56.0882 19.745 56.3881 19.2982C56.6879 18.8515 56.7986 18.3042 56.696 17.776C56.5901 17.2488 56.2801 16.7848 55.8335 16.4851C55.387 16.1854 54.8401 16.0743 54.312 16.176L50.9344 16.8384C50.407 16.9447 49.943 17.2551 49.6434 17.7019C49.3437 18.1487 49.2327 18.6958 49.3344 19.224C49.4422 19.7494 49.7528 20.211 50.1988 20.5088C50.6448 20.8065 51.1903 20.9164 51.7168 20.8144Z" fill="#407BFF"/>
<path opacity="0.3" d="M51.7168 20.8144L55.096 20.16C55.6237 20.0548 56.0882 19.745 56.3881 19.2982C56.6879 18.8515 56.7986 18.3042 56.696 17.776C56.5901 17.2488 56.2801 16.7848 55.8335 16.4851C55.387 16.1854 54.8401 16.0743 54.312 16.176L50.9344 16.8384C50.407 16.9447 49.943 17.2551 49.6434 17.7019C49.3437 18.1487 49.2327 18.6958 49.3344 19.224C49.4422 19.7494 49.7528 20.211 50.1988 20.5088C50.6448 20.8065 51.1903 20.9164 51.7168 20.8144Z" fill="white"/>
<path d="M60.9136 21.504L55.1536 21.4272C54.6544 21.5248 53.3936 15.0608 53.8864 14.9632L59.1888 12.7232L60.9136 21.504Z" fill="#407BFF"/>
<path d="M59.592 17.2016C60.072 19.6272 60.6592 21.5536 60.9136 21.504C61.168 21.4544 60.9888 19.4464 60.512 17.024C60.0352 14.6016 59.4448 12.672 59.1904 12.7216C58.936 12.7712 59.1168 14.7744 59.592 17.2016Z" fill="#407BFF"/>
<path opacity="0.3" d="M59.592 17.2016C60.072 19.6272 60.6592 21.5536 60.9136 21.504C61.168 21.4544 60.9888 19.4464 60.512 17.024C60.0352 14.6016 59.4448 12.672 59.1904 12.7216C58.936 12.7712 59.1168 14.7744 59.592 17.2016Z" fill="black"/>
<path d="M61.76 16.9024C61.6432 16.3088 60.32 16.0672 60.04 16.1232C59.76 16.1792 59.624 16.704 59.7392 17.2976C59.8544 17.8912 60.1792 18.3264 60.4608 18.272C60.7424 18.2176 61.872 17.4944 61.76 16.9024Z" fill="#407BFF"/>
<path d="M70.6698 15.3624L63.1752 16.5749L63.2026 16.7439L70.6971 15.5314L70.6698 15.3624Z" fill="#407BFF"/>
<path d="M65.5418 12.1265L62.4687 14.7466L62.5798 14.8769L65.6529 12.2568L65.5418 12.1265Z" fill="#407BFF"/>
<path d="M67.0632 20.2291L67.0062 20.3906L68.1333 20.7884L68.1903 20.6269L67.0632 20.2291Z" fill="#407BFF"/>
<path d="M62.9795 18.838L62.9251 19.0003L65.777 19.9567L65.8314 19.7944L62.9795 18.838Z" fill="#407BFF"/>
</svg>
