<svg width="80" height="80" viewBox="0 0 80 80" fill="none" xmlns="http://www.w3.org/2000/svg">
<path d="M80 61.184H0V61.224H80V61.184Z" fill="#EBEBEB"/>
<path d="M71.984 62.7072H67.824V62.7472H71.984V62.7072Z" fill="#EBEBEB"/>
<path d="M56.9648 62.2736H48.3088V62.3136H56.9648V62.2736Z" fill="#EBEBEB"/>
<path d="M69.12 64.1936H63.4544V64.2336H69.12V64.1936Z" fill="#EBEBEB"/>
<path d="M12.184 63.9248H8.3936V63.9648H12.184V63.9248Z" fill="#EBEBEB"/>
<path d="M17.7424 63.9248H13.608V63.9648H17.7424V63.9248Z" fill="#EBEBEB"/>
<path d="M42.4224 63.2496H33.6928V63.2896H42.4224V63.2496Z" fill="#EBEBEB"/>
<path d="M37.92 54.048H7.0256C6.78358 54.0476 6.55161 53.9511 6.38062 53.7798C6.20963 53.6086 6.1136 53.3764 6.1136 53.1344V9.70559C6.11571 9.46495 6.21267 9.23486 6.38343 9.0653C6.55419 8.89574 6.78496 8.8004 7.0256 8.79999H37.92C38.1623 8.79999 38.3947 8.89624 38.566 9.06758C38.7373 9.23891 38.8336 9.47129 38.8336 9.71359V53.1344C38.8336 53.3767 38.7373 53.6091 38.566 53.7804C38.3947 53.9517 38.1623 54.048 37.92 54.048ZM7.0256 8.83199C6.79418 8.83241 6.57239 8.92464 6.40891 9.08842C6.24542 9.25221 6.1536 9.47417 6.1536 9.70559V53.1344C6.1536 53.3658 6.24542 53.5878 6.40891 53.7516C6.57239 53.9153 6.79418 54.0076 7.0256 54.008H37.92C38.1516 54.0076 38.3735 53.9154 38.5373 53.7517C38.701 53.5879 38.7932 53.366 38.7936 53.1344V9.70559C38.7932 9.47402 38.701 9.25207 38.5373 9.08833C38.3735 8.92459 38.1516 8.83241 37.92 8.83199H7.0256Z" fill="#EBEBEB"/>
<path d="M72.5296 54.048H41.6336C41.3914 54.0476 41.1593 53.9512 40.9881 53.7799C40.8168 53.6087 40.7204 53.3766 40.72 53.1344V9.70559C40.7225 9.46481 40.8198 9.23472 40.9909 9.0652C41.1619 8.89569 41.3928 8.8004 41.6336 8.79999H72.5296C72.77 8.80082 73.0003 8.89635 73.1707 9.06586C73.3412 9.23538 73.4379 9.46523 73.44 9.70559V53.1344C73.44 53.3761 73.3442 53.608 73.1735 53.7793C73.0029 53.9505 72.7714 54.0471 72.5296 54.048ZM41.6336 8.83199C41.402 8.83241 41.1801 8.92459 41.0163 9.08833C40.8526 9.25207 40.7604 9.47402 40.76 9.70559V53.1344C40.7604 53.366 40.8526 53.5879 41.0163 53.7517C41.1801 53.9154 41.402 54.0076 41.6336 54.008H72.5296C72.7612 54.0076 72.9831 53.9154 73.1469 53.7517C73.3106 53.5879 73.4028 53.366 73.4032 53.1344V9.70559C73.4028 9.47402 73.3106 9.25207 73.1469 9.08833C72.9831 8.92459 72.7612 8.83241 72.5296 8.83199H41.6336Z" fill="#EBEBEB"/>
<path d="M19.8336 60.3696H21.792L21.792 36.8352H19.8336L19.8336 60.3696Z" fill="#F0F0F0"/>
<path d="M10.4256 61.1808H21.2736V60.3696H10.4256V61.1808Z" fill="#F0F0F0"/>
<path d="M19.8336 36.8352H9.9104V60.3696H19.8336V36.8352Z" fill="#F5F5F5"/>
<path d="M18.776 49.0896H10.968V53.2912H18.776V49.0896Z" fill="#F0F0F0"/>
<path d="M18.776 54.5904H10.968V58.792H18.776V54.5904Z" fill="#F0F0F0"/>
<path d="M13.7744 51.48H15.968C16.0961 51.48 16.2 51.3761 16.2 51.248V51.136C16.2 51.0079 16.0961 50.904 15.968 50.904H13.7744C13.6463 50.904 13.5424 51.0079 13.5424 51.136V51.248C13.5424 51.3761 13.6463 51.48 13.7744 51.48Z" fill="#F5F5F5"/>
<path d="M13.7744 56.9792H15.968C16.0961 56.9792 16.2 56.8753 16.2 56.7472V56.6352C16.2 56.5071 16.0961 56.4032 15.968 56.4032H13.7744C13.6463 56.4032 13.5424 56.5071 13.5424 56.6352V56.7472C13.5424 56.8753 13.6463 56.9792 13.7744 56.9792Z" fill="#F5F5F5"/>
<path d="M18.776 38.1328H10.968V42.3344H18.776V38.1328Z" fill="#F0F0F0"/>
<path d="M18.776 43.5904H10.968V47.792H18.776V43.5904Z" fill="#F0F0F0"/>
<path d="M13.7744 40.5232H15.968C16.0961 40.5232 16.2 40.4193 16.2 40.2912V40.1792C16.2 40.0511 16.0961 39.9472 15.968 39.9472H13.7744C13.6463 39.9472 13.5424 40.0511 13.5424 40.1792V40.2912C13.5424 40.4193 13.6463 40.5232 13.7744 40.5232Z" fill="#F5F5F5"/>
<path d="M13.7744 45.9792H15.968C16.0961 45.9792 16.2 45.8753 16.2 45.7472V45.6352C16.2 45.5071 16.0961 45.4032 15.968 45.4032H13.7744C13.6463 45.4032 13.5424 45.5071 13.5424 45.6352V45.7472C13.5424 45.8753 13.6463 45.9792 13.7744 45.9792Z" fill="#F5F5F5"/>
<path d="M30.6928 60.3696H36.5712V36.8352H30.6928L30.6928 60.3696Z" fill="#F0F0F0"/>
<path d="M21.2848 61.1808H35.968V60.3696H21.2848V61.1808Z" fill="#F0F0F0"/>
<path d="M30.6928 36.8352H20.7696V60.3696H30.6928V36.8352Z" fill="#F5F5F5"/>
<path d="M29.6352 49.0896H21.8272V53.2912H29.6352V49.0896Z" fill="#F0F0F0"/>
<path d="M29.6352 54.5904H21.8272V58.792H29.6352V54.5904Z" fill="#F0F0F0"/>
<path d="M24.6336 51.48H26.8272C26.9553 51.48 27.0592 51.3761 27.0592 51.248V51.136C27.0592 51.0079 26.9553 50.904 26.8272 50.904H24.6336C24.5055 50.904 24.4016 51.0079 24.4016 51.136V51.248C24.4016 51.3761 24.5055 51.48 24.6336 51.48Z" fill="#F5F5F5"/>
<path d="M24.6336 56.9792H26.8272C26.9553 56.9792 27.0592 56.8753 27.0592 56.7472V56.6352C27.0592 56.5071 26.9553 56.4032 26.8272 56.4032H24.6336C24.5055 56.4032 24.4016 56.5071 24.4016 56.6352V56.7472C24.4016 56.8753 24.5055 56.9792 24.6336 56.9792Z" fill="#F5F5F5"/>
<path d="M29.6352 38.1328H21.8272V42.3344H29.6352V38.1328Z" fill="#F0F0F0"/>
<path d="M29.6352 43.5904H21.8272V47.792H29.6352V43.5904Z" fill="#F0F0F0"/>
<path d="M24.6336 40.5232H26.8272C26.9553 40.5232 27.0592 40.4193 27.0592 40.2912V40.1792C27.0592 40.0511 26.9553 39.9472 26.8272 39.9472H24.6336C24.5055 39.9472 24.4016 40.0511 24.4016 40.1792V40.2912C24.4016 40.4193 24.5055 40.5232 24.6336 40.5232Z" fill="#F5F5F5"/>
<path d="M24.6336 45.9792H26.8272C26.9553 45.9792 27.0592 45.8753 27.0592 45.7472V45.6352C27.0592 45.5071 26.9553 45.4032 26.8272 45.4032H24.6336C24.5055 45.4032 24.4016 45.5071 24.4016 45.6352V45.7472C24.4016 45.8753 24.5055 45.9792 24.6336 45.9792Z" fill="#F5F5F5"/>
<path d="M43.9472 59.4384H68.6624V12.672H43.9472L43.9472 59.4384Z" fill="#E6E6E6"/>
<path d="M43.4544 59.4384H68.1696V12.672H43.4544L43.4544 59.4384Z" fill="#F5F5F5"/>
<path d="M67.2896 58.4464V13.6624L44.3392 13.6624V58.4464H67.2896Z" fill="white"/>
<path d="M44.7104 58.448V13.664H44.3392V58.448H44.7104Z" fill="#E6E6E6"/>
<path d="M43.8192 28.1872L67.8048 28.1872V26.856L43.8192 26.856V28.1872Z" fill="#F5F5F5"/>
<path d="M16.4864 31.3696H29.7872L29.7872 11.648H16.4864V31.3696Z" fill="#E0E0E0"/>
<path d="M15.6784 31.3696H29.5312L29.5312 11.648H15.6784L15.6784 31.3696Z" fill="#F5F5F5"/>
<path d="M16.8384 13.2032V29.816H28.3696V13.2032H16.8384Z" fill="white"/>
<path d="M23.3152 23.544C22.9328 23.864 22.2736 24.824 20.7776 23.3264C19.2816 21.8288 20.2352 21.1712 20.5616 20.7904C20.888 20.4096 19.192 18.0704 18.3456 19.3216C17.4992 20.5728 18.152 22.0736 20.0928 24.0128C22.0336 25.952 23.5344 26.6064 24.7824 25.76C26.0304 24.9136 23.6976 23.2192 23.3152 23.544Z" fill="#F5F5F5"/>
<path d="M24.3488 23.0496C24.3064 23.0496 24.2657 23.0327 24.2357 23.0027C24.2057 22.9727 24.1888 22.932 24.1888 22.8896C24.1879 22.1014 23.8745 21.3458 23.3171 20.7885C22.7598 20.2311 22.0042 19.9176 21.216 19.9168C21.1736 19.9168 21.1329 19.8999 21.1029 19.8699C21.0729 19.8399 21.056 19.7992 21.056 19.7568C21.056 19.7144 21.0729 19.6737 21.1029 19.6437C21.1329 19.6137 21.1736 19.5968 21.216 19.5968C22.089 19.5976 22.9261 19.9448 23.5434 20.5622C24.1608 21.1795 24.5079 22.0166 24.5088 22.8896C24.5088 22.932 24.4919 22.9727 24.4619 23.0027C24.4319 23.0327 24.3912 23.0496 24.3488 23.0496Z" fill="#F5F5F5"/>
<path d="M25.6944 22.8656C25.652 22.8656 25.6113 22.8487 25.5813 22.8187C25.5513 22.7887 25.5344 22.748 25.5344 22.7056C25.5331 21.6093 25.0972 20.5583 24.3222 19.7829C23.5471 19.0076 22.4963 18.5713 21.4 18.5696C21.3576 18.5696 21.3169 18.5527 21.2869 18.5227C21.2569 18.4927 21.24 18.452 21.24 18.4096C21.24 18.3671 21.2569 18.3264 21.2869 18.2964C21.3169 18.2664 21.3576 18.2496 21.4 18.2496C22.5813 18.2508 23.7138 18.7208 24.5489 19.5562C25.384 20.3916 25.8536 21.5243 25.8544 22.7056C25.8544 22.748 25.8375 22.7887 25.8075 22.8187C25.7775 22.8487 25.7368 22.8656 25.6944 22.8656Z" fill="#F5F5F5"/>
<path d="M27.2112 22.88C27.1688 22.88 27.1281 22.8631 27.0981 22.8331C27.0681 22.8031 27.0512 22.7624 27.0512 22.72C27.0491 21.2194 26.4519 19.781 25.3908 18.7201C24.3296 17.6592 22.8909 17.0625 21.3904 17.0608C21.348 17.0608 21.3073 17.0439 21.2773 17.0139C21.2473 16.9839 21.2304 16.9432 21.2304 16.9008C21.2304 16.8583 21.2473 16.8177 21.2773 16.7876C21.3073 16.7576 21.348 16.7408 21.3904 16.7408C22.9758 16.7425 24.4958 17.3729 25.617 18.4938C26.7382 19.6147 27.3691 21.1346 27.3712 22.72C27.3712 22.7624 27.3543 22.8031 27.3243 22.8331C27.2943 22.8631 27.2536 22.88 27.2112 22.88Z" fill="#F5F5F5"/>
<path d="M10.2528 27.5936C10.6096 27.7328 11.5808 27.584 11.2576 28.0928C11.0653 28.3666 10.8425 28.6178 10.5936 28.8416C10.232 29.1872 10.3008 29.5616 10.728 29.6976C10.8156 29.7206 10.8963 29.7645 10.9632 29.8256C11.16 30.0432 10.696 30.3376 10.4672 30.5552C10.2384 30.7728 10.1472 30.9904 10.3168 31.1536C10.4864 31.3168 10.8896 31.2672 11.1968 31.3136C11.9376 31.4432 11.176 32.2352 11.2544 32.6432C11.3088 32.9216 11.6 32.9984 11.9952 33.0384C12.3152 33.0704 12.7488 33.0928 12.7664 33.3488C12.7824 33.5712 12.4096 33.8288 12.312 34.056C12.2653 34.1551 12.2473 34.2654 12.26 34.3742C12.2728 34.4831 12.3157 34.5862 12.384 34.672C12.532 34.8405 12.7372 34.9482 12.96 34.9744C13.3264 35.0352 13.88 34.9744 13.9072 35.2944C13.9184 35.4384 13.7904 35.5648 13.88 35.6976C13.9929 35.8148 14.1462 35.8846 14.3088 35.8928C14.6604 35.9349 15.0161 35.9301 15.3664 35.8784C15.7968 35.8176 16.432 35.5232 16.1984 35.2384C16.1079 35.152 15.9903 35.0994 15.8656 35.0896C15.7616 35.0736 15.4608 35.0992 15.4224 35.0448C15.384 34.9904 15.488 34.7824 15.4928 34.7056C15.5026 34.4945 15.4591 34.2843 15.3664 34.0944C15.2383 33.8257 15.048 33.5915 14.8112 33.4112C14.7104 33.3312 14.5472 33.272 14.5264 33.1552C14.5056 33.0384 14.6 32.9104 14.704 32.7952C14.864 32.616 15.1248 32.4448 15.216 32.2528C15.3616 31.9504 15.0096 31.8544 14.6848 31.7856C14.3904 31.7232 14.0032 31.6432 14.1024 31.3664C14.176 31.1664 14.5008 31.0016 14.5984 30.8064C14.728 30.5456 14.4096 30.5344 14.1808 30.4416C14.1189 30.4248 14.0617 30.3942 14.0134 30.352C13.965 30.3099 13.9269 30.2574 13.9018 30.1984C13.8767 30.1394 13.8653 30.0755 13.8684 30.0115C13.8716 29.9475 13.8892 29.885 13.92 29.8288C14.096 29.376 15.1664 28.736 14.6192 28.4432C14.48 28.368 14.3504 28.3424 14.2672 28.2304C14.184 28.1184 14.1648 27.96 14.048 27.8512C13.864 27.6784 13.4832 27.6496 13.2832 27.4896C12.8752 27.16 13.7632 26.576 12.952 26.4368C12.7858 26.4218 12.6251 26.3698 12.4816 26.2848C12.408 26.232 12.3488 25.9744 12.2656 25.9552C11.896 25.8752 11.2288 26.4352 11.0192 26.6048C10.768 26.8128 9.82561 27.4272 10.2528 27.5936Z" fill="#E0E0E0"/>
<path d="M16.592 35.2704C16.3728 34.9504 15.4144 34.64 16.0512 34.2736C16.4026 34.0895 16.7713 33.9405 17.152 33.8288C17.7088 33.648 17.9072 33.232 17.632 32.8864C17.5695 32.8185 17.5278 32.7341 17.512 32.6432C17.4896 32.3232 18.1024 32.248 18.4544 32.1328C18.8064 32.0176 19.0352 31.8432 19 31.5936C18.96 31.32 18.5712 31.2016 18.3376 30.9984C17.7744 30.5072 18.992 30.0624 19.2048 29.608C19.3488 29.2976 19.1456 29.0768 18.824 28.8464C18.5616 28.6576 18.1968 28.4272 18.3584 28.1568C18.4976 27.9216 18.9984 27.8368 19.248 27.6512C19.3556 27.5762 19.4442 27.4771 19.5067 27.3618C19.5692 27.2466 19.6039 27.1183 19.608 26.9872C19.6027 26.8734 19.5722 26.7621 19.5188 26.6614C19.4654 26.5607 19.3904 26.4731 19.2992 26.4048C19.0176 26.1664 18.4848 25.9632 18.6832 25.6224C18.7712 25.4624 18.9728 25.4016 18.984 25.224C18.9779 25.1416 18.9528 25.0617 18.9106 24.9906C18.8684 24.9195 18.8103 24.8592 18.7408 24.8144C18.4548 24.6011 18.1367 24.4348 17.7984 24.3216C17.376 24.176 16.6128 24.1712 16.624 24.5744C16.6322 24.6368 16.6534 24.6968 16.6862 24.7505C16.719 24.8043 16.7627 24.8505 16.8144 24.8864C16.8944 24.9536 17.1776 25.072 17.1744 25.1456C17.1712 25.2192 16.936 25.384 16.8784 25.4656C16.7273 25.6703 16.6214 25.9048 16.568 26.1536C16.4965 26.4703 16.5025 26.7997 16.5856 27.1136C16.6208 27.2448 16.7248 27.3824 16.6624 27.512C16.5629 27.6497 16.4196 27.7495 16.256 27.7952C15.9872 27.8992 15.6432 27.9552 15.4288 28.1056C15.0928 28.344 15.3376 28.6128 15.576 28.84C15.8144 29.0672 16.08 29.32 15.8 29.5488C15.5984 29.7184 15.1984 29.7296 14.9792 29.8832C14.6832 30.088 14.9568 30.2528 15.0928 30.4576C15.272 30.7248 15.1888 30.9824 14.904 31.2128C14.4352 31.5904 13.0496 31.7296 13.3296 32.2944C13.4016 32.4384 13.4896 32.5264 13.4896 32.6816C13.4896 32.8368 13.3936 33.0016 13.4208 33.1744C13.464 33.4416 13.7808 33.6544 13.8448 33.9152C13.9792 34.4496 12.7968 34.6224 13.4112 35.152C13.5515 35.247 13.6624 35.3795 13.7312 35.5344C13.7584 35.624 13.6336 35.9168 13.6944 35.976C13.9648 36.2352 14.9376 35.9872 15.24 35.912C15.5984 35.8208 16.8544 35.6464 16.592 35.2704Z" fill="#E6E6E6"/>
<path d="M17.7856 33.5344C17.7856 33.5344 17.7008 36.8352 14.4816 36.8352C11.2624 36.8352 11.1792 33.5344 11.1792 33.5344H17.7856Z" fill="#F0F0F0"/>
<path d="M40 68.4096C57.1332 68.4096 71.0224 67.5987 71.0224 66.5984C71.0224 65.5981 57.1332 64.7872 40 64.7872C22.8668 64.7872 8.9776 65.5981 8.9776 66.5984C8.9776 67.5987 22.8668 68.4096 40 68.4096Z" fill="#F5F5F5"/>
<path d="M31.3888 12.5312H31.2288C31.2276 12.0523 31.3256 11.5783 31.5168 11.1392C31.7885 10.5105 32.2382 9.97513 32.8105 9.59899C33.3829 9.22285 34.0527 9.02241 34.7376 9.0224V9.1824C34.0844 9.18337 33.4456 9.37473 32.8994 9.73307C32.3532 10.0914 31.9234 10.6012 31.6624 11.2C31.4803 11.6201 31.3871 12.0733 31.3888 12.5312Z" fill="#407BFF"/>
<path d="M31.3888 13.5296H31.2288V15.6768H31.3888V13.5296Z" fill="#407BFF"/>
<path d="M45.1328 9.5824H34.7392C33.1097 9.5824 31.7888 10.9033 31.7888 12.5328V15.6752C31.7888 17.3047 33.1097 18.6256 34.7392 18.6256H45.1328C46.7623 18.6256 48.0832 17.3047 48.0832 15.6752V12.5328C48.0832 10.9033 46.7623 9.5824 45.1328 9.5824Z" fill="#407BFF"/>
<path d="M41.808 17.952C42.8176 20.3344 45.5648 21.256 47.1584 21.4624C45.5952 19.288 45.664 17.376 45.664 17.376L41.808 17.952Z" fill="#407BFF"/>
<path d="M36.8416 12.12L35.416 11.7728L34.4032 12.8336L34.8144 14.2416L36.2416 14.5888L37.2544 13.528L36.8416 12.12Z" fill="#E0E0E0"/>
<path d="M36.3424 11.9984L34.9152 11.6512L33.9024 12.712L34.3152 14.12L35.7408 14.4672L36.7536 13.4064L36.3424 11.9984Z" fill="white"/>
<path d="M44.7088 14.4624L39.6544 13.2336C39.5891 12.8594 39.4262 12.509 39.1822 12.2178C38.9382 11.9266 38.6218 11.7049 38.2647 11.5751C37.9077 11.4453 37.5228 11.4119 37.1488 11.4784C36.7747 11.5448 36.4248 11.7087 36.1344 11.9536L37.8256 12.3648L38.2368 13.7728L37.224 14.8352L35.528 14.416C35.6728 14.7688 35.9084 15.0769 36.2108 15.3092C36.5133 15.5414 36.8719 15.6894 37.2501 15.7382C37.6283 15.7869 38.0127 15.7347 38.3641 15.5868C38.7156 15.4388 39.0217 15.2005 39.2512 14.896L44.3056 16.1248C44.5254 16.1774 44.757 16.141 44.95 16.0235C45.1431 15.906 45.2818 15.717 45.336 15.4976C45.363 15.3884 45.3682 15.275 45.3512 15.1638C45.3343 15.0527 45.2956 14.9459 45.2373 14.8498C45.179 14.7536 45.1024 14.6699 45.0117 14.6034C44.921 14.5369 44.818 14.489 44.7088 14.4624Z" fill="white"/>
<path d="M44.4832 15.848C44.7907 15.848 45.04 15.5987 45.04 15.2912C45.04 14.9837 44.7907 14.7344 44.4832 14.7344C44.1757 14.7344 43.9264 14.9837 43.9264 15.2912C43.9264 15.5987 44.1757 15.848 44.4832 15.848Z" fill="#407BFF"/>
<path d="M49.648 58.536H48.128V62.3776H49.648V58.536Z" fill="#E0E0E0"/>
<path d="M49.9488 61.056H47.8272L47.68 64.7552C47.6761 64.8494 47.6913 64.9434 47.7247 65.0316C47.7581 65.1198 47.809 65.2003 47.8743 65.2683C47.9396 65.3363 48.018 65.3904 48.1048 65.4273C48.1916 65.4643 48.2849 65.4833 48.3792 65.4832H49.4048C49.499 65.483 49.5921 65.4639 49.6787 65.4269C49.7653 65.3898 49.8435 65.3357 49.9086 65.2677C49.9738 65.1998 50.0245 65.1193 50.0578 65.0312C50.0911 64.9432 50.1063 64.8493 50.1024 64.7552L49.9488 61.056Z" fill="#263238"/>
<path d="M54.1696 65.3824C54.1249 65.3822 54.0809 65.371 54.0416 65.3498C54.0022 65.3286 53.9687 65.298 53.944 65.2608C53.7335 64.9396 53.4462 64.676 53.1082 64.4938C52.7701 64.3117 52.392 64.2167 52.008 64.2176H45.768C45.384 64.2167 45.0059 64.3117 44.6678 64.4938C44.3298 64.676 44.0425 64.9396 43.832 65.2608C43.7915 65.318 43.7302 65.3573 43.6613 65.3703C43.5923 65.3832 43.521 65.3689 43.4624 65.3303C43.4038 65.2916 43.3626 65.2317 43.3474 65.1632C43.3321 65.0947 43.3441 65.023 43.3808 64.9632C43.6414 64.5686 43.996 64.245 44.4127 64.0216C44.8294 63.7981 45.2952 63.6818 45.768 63.6831H52.008C52.4814 63.6807 52.9479 63.7961 53.3655 64.019C53.7831 64.2419 54.1386 64.5653 54.4 64.96C54.4269 65.0007 54.4422 65.048 54.4444 65.0967C54.4465 65.1455 54.4355 65.1939 54.4123 65.2369C54.3892 65.2799 54.3549 65.3158 54.313 65.3409C54.2711 65.3659 54.2232 65.3791 54.1744 65.3792L54.1696 65.3824Z" fill="#263238"/>
<path d="M51.4496 58.8048H46.3296C46.0528 58.8049 45.7844 58.7094 45.5698 58.5345C45.3553 58.3596 45.2077 58.116 45.152 57.8448L44.992 57.0608H52.7936L52.6336 57.8448C52.5777 58.117 52.4292 58.3615 52.2133 58.5365C51.9974 58.7116 51.7275 58.8064 51.4496 58.8048Z" fill="#263238"/>
<path d="M37.6848 56.736H43.8224C46.1487 56.7286 48.3945 55.8836 50.1486 54.3557C51.9028 52.8278 53.0479 50.7192 53.3744 48.416L55.0576 36.5632H65.9024L64.2192 48.416C63.8927 50.7192 62.7476 52.8278 60.9934 54.3557C59.2392 55.8836 56.9935 56.7286 54.6672 56.736H37.6848Z" fill="#263238"/>
<path d="M37.6848 57.6352C37.5634 57.6403 37.4423 57.6208 37.3286 57.5779C37.2149 57.535 37.1111 57.4695 37.0234 57.3854C36.9357 57.3014 36.866 57.2004 36.8183 57.0887C36.7706 56.9769 36.746 56.8567 36.746 56.7352C36.746 56.6137 36.7706 56.4935 36.8183 56.3817C36.866 56.27 36.9357 56.169 37.0234 56.0849C37.1111 56.0009 37.2149 55.9354 37.3286 55.8925C37.4423 55.8496 37.5634 55.8301 37.6848 55.8352H43.84C45.9452 55.8182 47.9746 55.0471 49.5598 53.6618C51.145 52.2765 52.1811 50.3687 52.48 48.2848L54.1632 36.432C54.1939 36.2174 54.3009 36.021 54.4646 35.8788C54.6282 35.7366 54.8376 35.6581 55.0544 35.6576H65.8992C66.0281 35.6577 66.1555 35.6855 66.2728 35.739C66.39 35.7926 66.4944 35.8707 66.5789 35.9681C66.6634 36.0654 66.726 36.1798 66.7625 36.3035C66.799 36.4271 66.8085 36.5572 66.7904 36.6848L65.1072 48.5376C64.3712 53.7232 59.8816 57.6352 54.664 57.6352H37.6848ZM55.84 37.4592L54.2656 48.5376C54.0549 50.0079 53.5379 51.4177 52.748 52.6756C51.9581 53.9335 50.9129 55.0115 49.68 55.84H54.6672C56.7757 55.8281 58.8099 55.0594 60.3995 53.674C61.989 52.2885 63.0282 50.3784 63.328 48.2912L64.8656 37.464L55.84 37.4592Z" fill="#263238"/>
<path opacity="0.2" d="M48.528 57.6352C48.4066 57.6403 48.2855 57.6208 48.1718 57.5779C48.0581 57.535 47.9543 57.4695 47.8667 57.3854C47.779 57.3013 47.7092 57.2004 47.6615 57.0887C47.6138 56.9769 47.5892 56.8567 47.5892 56.7352C47.5892 56.6137 47.6138 56.4935 47.6615 56.3817C47.7092 56.27 47.779 56.169 47.8667 56.0849C47.9543 56.0009 48.0581 55.9354 48.1718 55.8925C48.2855 55.8496 48.4066 55.8301 48.528 55.8352H54.6672C56.7757 55.8232 58.8099 55.0546 60.3995 53.6691C61.989 52.2837 63.0282 50.3735 63.328 48.2864L65.0112 36.4336C65.0235 36.313 65.0601 36.1961 65.1187 36.0899C65.1773 35.9838 65.2567 35.8906 65.3522 35.8159C65.4477 35.7412 65.5573 35.6865 65.6744 35.6551C65.7915 35.6238 65.9138 35.6164 66.0338 35.6334C66.1538 35.6505 66.2692 35.6915 66.373 35.7542C66.4768 35.8169 66.5668 35.8999 66.6378 35.9982C66.7087 36.0965 66.7591 36.2082 66.7859 36.3264C66.8126 36.4447 66.8153 36.5671 66.7936 36.6864L65.1104 48.5392C64.3744 53.7248 59.8848 57.6368 54.6672 57.6368L48.528 57.6352Z" fill="white"/>
<path d="M44.3952 65.3584C44.3952 65.2052 44.3498 65.0555 44.2647 64.9282C44.1796 64.8008 44.0586 64.7015 43.9171 64.6429C43.7756 64.5843 43.6199 64.569 43.4697 64.5989C43.3195 64.6287 43.1815 64.7025 43.0732 64.8108C42.9649 64.9191 42.8912 65.0571 42.8613 65.2073C42.8314 65.3575 42.8467 65.5132 42.9054 65.6547C42.964 65.7962 43.0632 65.9172 43.1906 66.0023C43.3179 66.0874 43.4676 66.1328 43.6208 66.1328C43.8262 66.1328 44.0231 66.0512 44.1684 65.906C44.3136 65.7607 44.3952 65.5638 44.3952 65.3584Z" fill="#263238"/>
<path d="M54.9296 65.3584C54.9296 65.2052 54.8842 65.0555 54.7991 64.9282C54.714 64.8008 54.5931 64.7015 54.4516 64.6429C54.3101 64.5843 54.1543 64.569 54.0041 64.5989C53.8539 64.6287 53.7159 64.7025 53.6076 64.8108C53.4993 64.9191 53.4256 65.0571 53.3957 65.2073C53.3658 65.3575 53.3811 65.5132 53.4397 65.6547C53.4984 65.7962 53.5976 65.9172 53.725 66.0023C53.8523 66.0874 54.002 66.1328 54.1552 66.1328C54.3606 66.1328 54.5576 66.0512 54.7028 65.906C54.848 65.7607 54.9296 65.5638 54.9296 65.3584Z" fill="#263238"/>
<path d="M54.1696 65.3824C54.1249 65.3822 54.0809 65.371 54.0416 65.3498C54.0022 65.3286 53.9687 65.298 53.944 65.2608C53.7335 64.9396 53.4462 64.676 53.1082 64.4938C52.7701 64.3117 52.392 64.2167 52.008 64.2176H45.768C45.384 64.2167 45.0059 64.3117 44.6678 64.4938C44.3298 64.676 44.0425 64.9396 43.832 65.2608C43.7915 65.318 43.7302 65.3573 43.6613 65.3703C43.5923 65.3832 43.521 65.3689 43.4624 65.3303C43.4038 65.2916 43.3626 65.2317 43.3474 65.1632C43.3321 65.0947 43.3441 65.023 43.3808 64.9632C43.6414 64.5686 43.996 64.245 44.4127 64.0216C44.8294 63.7981 45.2952 63.6818 45.768 63.6831H52.008C52.4814 63.6807 52.9479 63.7961 53.3655 64.019C53.7831 64.2419 54.1386 64.5653 54.4 64.96C54.4269 65.0007 54.4422 65.048 54.4444 65.0967C54.4465 65.1455 54.4355 65.1939 54.4123 65.2369C54.3892 65.2799 54.3549 65.3158 54.313 65.3409C54.2711 65.3659 54.2232 65.3791 54.1744 65.3792L54.1696 65.3824Z" fill="#263238"/>
<path d="M51.5296 65.8384C51.4725 65.838 51.417 65.8197 51.3708 65.7861C51.3246 65.7526 51.29 65.7054 51.272 65.6512C51.0768 65.0576 50.7536 64.672 50.448 64.672H47.328C47.0224 64.672 46.6992 65.0576 46.504 65.6512C46.4797 65.7167 46.4309 65.7702 46.368 65.8006C46.3051 65.8309 46.2329 65.8358 46.1665 65.8141C46.1 65.7923 46.0446 65.7458 46.0118 65.6841C45.979 65.6224 45.9713 65.5504 45.9904 65.4832C46.2688 64.6368 46.768 64.1328 47.328 64.1328H50.448C51.008 64.1328 51.5072 64.6368 51.7856 65.4832C51.8078 65.5513 51.8021 65.6255 51.7697 65.6893C51.7373 65.7532 51.6809 65.8017 51.6128 65.824C51.5861 65.8334 51.558 65.8383 51.5296 65.8384Z" fill="#263238"/>
<path d="M47.0208 65.8144C47.0208 65.6612 46.9754 65.5115 46.8903 65.3841C46.8052 65.2568 46.6843 65.1575 46.5428 65.0989C46.4013 65.0403 46.2455 65.025 46.0953 65.0549C45.9451 65.0847 45.8071 65.1585 45.6988 65.2668C45.5905 65.3751 45.5168 65.5131 45.4869 65.6633C45.457 65.8135 45.4723 65.9692 45.5309 66.1107C45.5896 66.2522 45.6888 66.3732 45.8162 66.4583C45.9435 66.5434 46.0932 66.5888 46.2464 66.5888C46.4518 66.5888 46.6488 66.5072 46.794 66.362C46.9392 66.2167 47.0208 66.0198 47.0208 65.8144Z" fill="#263238"/>
<path d="M52.304 65.8144C52.304 65.6612 52.2586 65.5115 52.1735 65.3841C52.0884 65.2568 51.9675 65.1575 51.826 65.0989C51.6845 65.0403 51.5288 65.025 51.3785 65.0549C51.2283 65.0847 51.0903 65.1585 50.982 65.2668C50.8737 65.3751 50.8 65.5131 50.7701 65.6633C50.7402 65.8135 50.7555 65.9692 50.8142 66.1107C50.8728 66.2522 50.972 66.3732 51.0994 66.4583C51.2267 66.5434 51.3764 66.5888 51.5296 66.5888C51.735 66.5888 51.932 66.5072 52.0772 66.362C52.2224 66.2167 52.304 66.0198 52.304 65.8144Z" fill="#263238"/>
<path d="M32.2208 55.1872L34.9456 56.3696L33.384 58.192L31.1056 57.2048L32.2208 55.1872Z" fill="#FFB573"/>
<path opacity="0.2" d="M32.2224 55.1872L34.9472 56.3712L34.072 57.392L31.5968 56.3184L32.2224 55.1872Z" fill="black"/>
<path d="M33.7712 59.1408L33.464 59.0704C33.3737 59.0499 33.2899 59.0075 33.2199 58.9469C33.1498 58.8864 33.0958 58.8095 33.0624 58.7232L32.8656 58.8144C32.7519 58.8682 32.6234 58.8823 32.5008 58.8544L28.2976 57.8944C28.3088 57.5168 28.6416 57.0944 28.6416 57.0944C28.6416 57.0944 30.512 57.4144 31.0528 56.968C31.0741 56.953 31.0992 56.9443 31.1252 56.9429C31.1513 56.9415 31.1772 56.9474 31.2 56.96C31.5392 57.12 32.8768 57.6976 33.7344 57.616C33.761 57.6139 33.7876 57.6181 33.8123 57.6281C33.837 57.6381 33.859 57.6538 33.8765 57.6739C33.8941 57.6939 33.9067 57.7178 33.9134 57.7435C33.9202 57.7693 33.9208 57.7963 33.9152 57.8224C33.8354 58.2578 33.7873 58.6984 33.7712 59.1408Z" fill="#263238"/>
<path d="M31.1264 57.0896C31.1204 57.0896 31.1144 57.0883 31.1089 57.0858C31.1034 57.0833 31.0984 57.0797 31.0944 57.0752C31.0768 57.056 30.6496 56.5952 30.6624 56.3344C30.6631 56.3083 30.6691 56.2826 30.6801 56.259C30.6911 56.2353 30.7069 56.2141 30.7264 56.1968C30.7484 56.1747 30.7768 56.1602 30.8076 56.1553C30.8383 56.1504 30.8699 56.1554 30.8976 56.1696C31.0816 56.2624 31.1968 56.776 31.1728 57.0496C31.1716 57.0581 31.1682 57.0662 31.1629 57.073C31.1575 57.0797 31.1504 57.0849 31.1424 57.088L31.1264 57.0896ZM30.832 56.2432C30.8232 56.2437 30.8145 56.2459 30.8066 56.2498C30.7986 56.2536 30.7915 56.259 30.7856 56.2656C30.775 56.2746 30.7666 56.2859 30.7611 56.2987C30.7555 56.3114 30.753 56.3253 30.7536 56.3392C30.7456 56.4992 30.9488 56.7696 31.0848 56.9296C31.0752 56.6656 30.9744 56.3088 30.8576 56.2496C30.8496 56.2458 30.8409 56.2436 30.832 56.2432Z" fill="#263238"/>
<path d="M30.7952 57.1088C30.6167 57.1237 30.4377 57.0864 30.28 57.0016C30.2592 56.9861 30.2419 56.9664 30.2292 56.9438C30.2165 56.9212 30.2087 56.8962 30.2064 56.8704C30.2002 56.8388 30.2045 56.806 30.2186 56.7772C30.2328 56.7483 30.256 56.7248 30.2848 56.7104C30.4672 56.6176 30.9504 56.8272 31.1568 57.008C31.1634 57.0136 31.1682 57.0211 31.1706 57.0295C31.173 57.0378 31.1729 57.0467 31.1704 57.055C31.1678 57.0633 31.1629 57.0707 31.1562 57.0763C31.1496 57.0818 31.1414 57.0853 31.1328 57.0864C31.0208 57.1 30.9081 57.1075 30.7952 57.1088ZM30.4 56.7792C30.3726 56.7782 30.3453 56.7832 30.32 56.7936C30.304 56.8032 30.2864 56.8176 30.2912 56.8624C30.2929 56.8759 30.2972 56.889 30.3041 56.9009C30.311 56.9127 30.3202 56.923 30.3312 56.9312C30.4528 57.0288 30.7952 57.0272 31.0048 57.0112C30.8251 56.8858 30.6175 56.8062 30.4 56.7792Z" fill="#263238"/>
<path d="M56.6928 46.6144L55.52 49.0576C53.7984 52.664 49.5568 54.4768 46.1696 53.0576C44.192 52.2288 42.0336 50.4768 40.5696 49.6752C39.3136 52.4288 36.9616 55.4656 35.1616 57.5792L31.52 55.7472C32.88 52.6256 34.9968 47.7472 36.3408 44.5856C36.5801 44.0249 36.9726 43.5431 37.4732 43.1953C37.9738 42.8475 38.5623 42.6478 39.1712 42.6192C45.2256 42.456 56.6928 46.6144 56.6928 46.6144Z" fill="#407BFF"/>
<path d="M52.9328 21.3248C52.2496 21.0992 51.4704 21.5328 51.4608 23.0592C51.4512 24.5856 52.8384 25.4032 53.424 23.4304C53.776 22.24 53.44 21.4896 52.9328 21.3248Z" fill="#E0E0E0"/>
<path d="M38.9952 63.1792L41.9616 63.04L41.3648 65.3632L38.8848 65.4816L38.9952 63.1792Z" fill="#FFB573"/>
<path opacity="0.2" d="M38.9968 63.1792L41.9632 63.04L41.6288 64.3424L38.9344 64.4704L38.9968 63.1792Z" fill="black"/>
<path d="M41.8192 66.5887H41.4992C41.4067 66.5886 41.3156 66.5656 41.2341 66.5218C41.1526 66.478 41.0831 66.4147 41.032 66.3375L40.8608 66.472C40.7613 66.5486 40.6392 66.5902 40.5136 66.5903H36.2064C36.1328 66.2208 36.3664 65.7376 36.3664 65.7376C36.3664 65.7376 38.2608 65.6368 38.688 65.0816C38.7034 65.0603 38.7245 65.0438 38.7488 65.0339C38.7731 65.024 38.7997 65.0212 38.8256 65.0256C39.192 65.1024 40.6256 65.3744 41.4432 65.104C41.4685 65.096 41.4953 65.094 41.5215 65.0982C41.5476 65.1025 41.5725 65.1128 41.5939 65.1283C41.6154 65.1439 41.6329 65.1643 41.6451 65.1878C41.6573 65.2114 41.6637 65.2375 41.664 65.264C41.6837 65.7087 41.7356 66.1515 41.8192 66.5887Z" fill="#263238"/>
<path d="M38.776 65.176C38.7668 65.1765 38.7577 65.1736 38.7504 65.168C38.728 65.1536 38.2112 64.8048 38.1648 64.5408C38.1596 64.5154 38.1598 64.4891 38.1653 64.4638C38.1708 64.4385 38.1816 64.4145 38.1968 64.3936C38.2131 64.3671 38.2374 64.3466 38.2662 64.3348C38.2949 64.323 38.3266 64.3206 38.3568 64.328C38.5552 64.3792 38.7824 64.8528 38.8192 65.128C38.8202 65.1368 38.8185 65.1457 38.8146 65.1536C38.8106 65.1616 38.8044 65.1682 38.7968 65.1728C38.7903 65.1758 38.7831 65.177 38.776 65.176ZM38.32 64.4128C38.3094 64.4139 38.2993 64.4176 38.2904 64.4234C38.2814 64.4292 38.2741 64.4371 38.2688 64.4464C38.2608 64.4579 38.2554 64.471 38.2529 64.4848C38.2504 64.4986 38.2509 64.5128 38.2544 64.5264C38.2816 64.6864 38.5392 64.9024 38.7088 65.0288C38.6416 64.7728 38.4624 64.448 38.336 64.416L38.32 64.4128Z" fill="#263238"/>
<path d="M38.1344 65.312C38.0675 65.3148 38.0009 65.3028 37.9392 65.2768C37.9156 65.2661 37.8944 65.2507 37.877 65.2314C37.8597 65.2121 37.8465 65.1894 37.8384 65.1648C37.8268 65.1357 37.8246 65.1037 37.8321 65.0733C37.8395 65.0429 37.8563 65.0156 37.88 64.9952C38.04 64.864 38.5552 64.9616 38.7968 65.0912C38.8042 65.0957 38.8104 65.102 38.8146 65.1096C38.8188 65.1172 38.8209 65.1257 38.8208 65.1344C38.8202 65.1431 38.817 65.1515 38.8116 65.1583C38.8061 65.1652 38.7988 65.1702 38.7904 65.1728C38.5797 65.2508 38.3587 65.2977 38.1344 65.312ZM38.1344 65.0208C38.0665 65.0153 37.9984 65.0303 37.9392 65.064C37.9248 65.0768 37.912 65.0944 37.9248 65.1376C37.9296 65.1506 37.9371 65.1624 37.9467 65.1723C37.9564 65.1822 37.968 65.19 37.9808 65.1952C38.1216 65.264 38.4528 65.1872 38.6544 65.1248C38.4878 65.0605 38.3113 65.0253 38.1328 65.0208H38.1344Z" fill="#263238"/>
<path d="M58.3888 45.6464L58.3696 48.2272C58.3392 52.0336 55.112 55.4272 51.2592 55.7184C49.0096 55.8784 45.9696 55.936 44.2192 55.9008C43.9648 58.5664 43.1312 61.7072 42.2992 63.9824L38.5104 63.7184C38.4112 60.488 38.2656 55.9072 38.144 52.8688C38.096 51.6848 38.8304 50.52 39.96 49.9632C45.632 47.1664 58.3888 45.6464 58.3888 45.6464Z" fill="#407BFF"/>
<path opacity="0.1" d="M41.4832 64.016C41.4747 64.0175 41.4661 64.0175 41.4576 64.016C41.4349 64.009 41.4159 63.9932 41.4048 63.9722C41.3937 63.9512 41.3914 63.9267 41.3984 63.904C41.9712 62.0208 42.9984 56.1424 43.048 53.4432C43.0495 53.4175 43.061 53.3934 43.08 53.376C43.0897 53.3679 43.101 53.3619 43.1131 53.3583C43.1252 53.3547 43.1379 53.3537 43.1504 53.3552C48.6848 54.0912 52.4304 53.8352 53.9904 52.632C56.7248 50.5072 56.6848 47.0672 55.992 45.272C55.9833 45.2497 55.9838 45.2249 55.9934 45.203C56.003 45.1811 56.0209 45.1639 56.0432 45.1552C56.0655 45.1465 56.0903 45.147 56.1122 45.1566C56.1341 45.1662 56.1513 45.1841 56.16 45.2064C56.872 47.0496 56.912 50.5856 54.1008 52.7712C52.4912 54.0208 48.8336 54.2816 43.2208 53.544C43.152 56.2976 42.1328 62.0848 41.5648 63.952C41.5597 63.9699 41.5491 63.9858 41.5344 63.9973C41.5198 64.0088 41.5018 64.0153 41.4832 64.016Z" fill="black"/>
<path opacity="0.2" d="M40.4224 49.992C39.7723 51.2949 39.019 52.5437 38.1696 53.7264C38.1888 54.2592 38.2096 54.824 38.2304 55.4112C39.5712 53.2944 40.424 49.9888 40.424 49.9888L40.4224 49.992Z" fill="black"/>
<path d="M48.2352 34.24L48.0928 34.3312L47.9776 34.4016L47.7536 34.5312C47.6048 34.616 47.456 34.6912 47.3088 34.7648C47.0128 34.9152 46.7088 35.0448 46.4 35.168C45.7731 35.4164 45.1244 35.606 44.4624 35.7344C44.1248 35.8 43.7776 35.8464 43.4256 35.88C43.0657 35.9076 42.7046 35.9134 42.344 35.8976C41.9706 35.8826 41.5989 35.8393 41.232 35.768C40.8549 35.6915 40.4846 35.5845 40.1248 35.448L39.9776 35.3936C39.7549 35.3118 39.554 35.1799 39.3904 35.008C39.042 34.6418 38.7758 34.2054 38.6096 33.728C38.4782 33.3501 38.3991 32.9561 38.3744 32.5568C38.335 31.9124 38.3889 31.2658 38.5344 30.6368C38.6612 30.0802 38.8335 29.5349 39.0496 29.0064C39.1552 28.7488 39.2704 28.4976 39.392 28.2512L39.5824 27.8832C39.6528 27.76 39.7168 27.6496 39.7984 27.5104C39.9152 27.3136 40.0938 27.1609 40.3063 27.0761C40.5188 26.9912 40.7534 26.979 40.9736 27.0412C41.1938 27.1034 41.3873 27.2366 41.5241 27.4201C41.6608 27.6037 41.733 27.8272 41.7296 28.056V28.216C41.7296 28.3136 41.7136 28.4432 41.7072 28.5584L41.68 28.9152C41.6608 29.152 41.6496 29.3952 41.6384 29.6224C41.6272 29.8496 41.6224 30.0864 41.6208 30.3104C41.6192 30.5344 41.6208 30.7568 41.6352 30.968C41.6457 31.3407 41.7032 31.7105 41.8064 32.0688C41.8356 32.1731 41.8845 32.2708 41.9504 32.3568C41.9952 32.4032 42.016 32.3808 41.992 32.328L41.2576 31.888C41.6185 31.9533 41.9863 31.9721 42.352 31.944C42.5524 31.9294 42.7517 31.9027 42.9488 31.864C43.152 31.8288 43.36 31.7856 43.5696 31.728C43.7792 31.6704 43.9888 31.6032 44.2016 31.5328C44.4144 31.4624 44.6256 31.3728 44.8416 31.2896C45.0576 31.2064 45.2624 31.1056 45.472 31.0096C45.5744 30.9616 45.6768 30.9104 45.7744 30.8608L45.9184 30.7872L45.9856 30.7536C46 30.7456 46.0336 30.7264 46.0224 30.736C46.4871 30.4426 47.0492 30.3457 47.5853 30.4668C48.1213 30.5879 48.5874 30.9169 48.8808 31.3816C49.1742 31.8463 49.2711 32.4085 49.15 32.9445C49.0289 33.4806 48.6998 33.9466 48.2352 34.24Z" fill="#FFB573"/>
<path d="M40.0976 28.6112L41.2912 28.6672C42.4864 28.2784 41.72 26.8288 41.72 26.8288L41.632 25.984C41.6058 25.8365 41.5287 25.7028 41.414 25.6064C41.2994 25.5099 41.1546 25.4567 41.0048 25.456L40.1712 25.4096C39.7904 25.3888 39.4608 25.6432 39.4416 25.9728L39.3952 26.712C39.3822 26.9275 39.4223 27.1428 39.512 27.3392L40.0976 28.6112Z" fill="#FFB573"/>
<path d="M50.24 28.9824C49.736 28.3072 48.1024 28.4656 47.1584 29.5328C46.768 29.5168 45.2384 30.9008 44.0672 31.1968C42.896 31.4928 42.0512 32.9088 42.3776 33.7072C42.9808 35.1808 43.3904 35.8864 44.48 36.0048C45.5696 36.1232 47.0032 35.4176 48.16 34.552C49.3168 33.6864 51.1296 30.1808 50.24 28.9824Z" fill="#E0E0E0"/>
<path d="M43.5648 31.168C42.6544 30.5824 41.76 31.5648 41.76 32.8C41.76 34.0352 42.0496 35.088 42.4928 35.8128C42.936 36.5376 43.7184 36.4768 44.448 36.4432C45.0784 36.4128 45.3888 36.1856 45.088 35.6128C44.7872 35.04 43.6784 34.2112 43.5136 32.6016C43.4224 31.7872 43.9856 31.4384 43.5648 31.168Z" fill="#FAFAFA"/>
<path d="M43.3312 42.616C43.136 42.8176 42.9952 43.5984 43.392 44.768C43.6656 45.5792 44.7424 45.1744 44.7424 45.1744C44.7424 45.1744 44.9312 46.6448 46.272 46.96C48.4816 47.4784 56.816 47.3392 58.232 46.24C53.7904 46.1936 43.3312 42.616 43.3312 42.616Z" fill="#FAFAFA"/>
<path d="M50.8064 28.4448C52.9869 28.4571 55.1618 28.6681 57.304 29.0752C57.6573 29.149 57.9919 29.2942 58.2872 29.5018C58.5825 29.7094 58.8324 29.9751 59.0215 30.2825C59.2107 30.59 59.3351 30.9328 59.3873 31.29C59.4394 31.6472 59.4182 32.0113 59.3248 32.36C57.7248 38.4544 58.6272 45.1472 58.5008 46.368C58.5008 46.368 45.712 48.2096 43.752 44.408C41.12 40.1072 45.6 37.2976 47.1312 31.256C47.536 29.6592 49.16 28.4352 50.8064 28.4448Z" fill="#263238"/>
<path opacity="0.1" d="M50.8064 28.4448C52.9869 28.4571 55.1618 28.6681 57.304 29.0752C57.6573 29.149 57.9919 29.2942 58.2872 29.5018C58.5825 29.7094 58.8324 29.9751 59.0215 30.2825C59.2107 30.59 59.3351 30.9328 59.3873 31.29C59.4394 31.6472 59.4182 32.0113 59.3248 32.36C57.7248 38.4544 58.6272 45.1472 58.5008 46.368C58.5008 46.368 45.712 48.2096 43.752 44.408C41.12 40.1072 45.6 37.2976 47.1312 31.256C47.536 29.6592 49.16 28.4352 50.8064 28.4448Z" fill="white"/>
<path opacity="0.4" d="M55.0832 28.728L55.0608 28.7184L54.9904 28.6944L54.9712 28.7088C53.8976 28.5808 52.7792 28.4976 51.712 28.464C51.4512 28.4544 51.1936 28.4496 50.9408 28.4464C50.6068 28.6344 50.3496 28.9341 50.2144 29.2928C49.8944 30.1024 50.1216 31.0048 50.8432 31.7056L50.9024 31.7632L50.9872 31.7552C52.5552 31.6032 55.4864 30.3472 55.6096 29.3792C55.6304 29.216 55.5888 28.912 55.0832 28.728Z" fill="#FAFAFA"/>
<path d="M59.6288 33.2L59.7456 33.424L59.8496 33.6288C59.9184 33.7648 59.9792 33.9008 60.0432 34.0368C60.1696 34.3072 60.2816 34.5808 60.3952 34.856C60.6128 35.4064 60.816 35.9648 60.9856 36.5376C61.0736 36.8224 61.1456 37.1104 61.232 37.4016C61.3184 37.6928 61.3712 37.9872 61.432 38.2864C61.5586 38.8897 61.6505 39.4997 61.7072 40.1136L61.7232 40.2736C61.7454 40.5099 61.7171 40.7482 61.64 40.9728C61.5176 41.3241 61.331 41.6496 61.0896 41.9328C60.8847 42.1733 60.6447 42.3815 60.3776 42.5504C59.9762 42.8008 59.5353 42.9815 59.0736 43.0848C58.3812 43.2376 57.6707 43.2914 56.9632 43.2448C56.3362 43.2082 55.7126 43.1259 55.0976 42.9984C54.7968 42.9391 54.5008 42.8656 54.2064 42.7872C53.912 42.7088 53.6304 42.6272 53.32 42.512C53.0955 42.4322 52.905 42.2781 52.7803 42.0751C52.6555 41.8721 52.604 41.6326 52.6343 41.3963C52.6646 41.16 52.7749 40.9411 52.9468 40.7762C53.1187 40.6112 53.3418 40.5101 53.5792 40.4896H53.64L54.44 40.4224C54.7136 40.4032 54.984 40.376 55.2512 40.3488C55.5184 40.3216 55.784 40.2912 56.0432 40.2576C56.3024 40.224 56.5552 40.184 56.8 40.136C57.2322 40.0665 57.6545 39.945 58.0576 39.7744C58.2048 39.7024 58.3088 39.6144 58.2992 39.5968C58.2896 39.5792 58.2608 39.5968 58.2112 39.6384C58.1501 39.6982 58.1011 39.7694 58.0672 39.848L58 40.7024C57.88 40.2352 57.7536 39.768 57.6 39.296C57.5248 39.0608 57.44 38.816 57.3552 38.5888C57.2704 38.3616 57.1952 38.1088 57.096 37.88C56.9104 37.4096 56.7264 36.936 56.5264 36.4672L56.2256 35.768L55.9344 35.1104L55.8976 35.024C55.6837 34.5335 55.6679 33.9793 55.8537 33.4775C56.0394 32.9757 56.4122 32.5653 56.8938 32.3324C57.3755 32.0994 57.9287 32.0619 58.4374 32.2279C58.946 32.3938 59.3707 32.7502 59.6224 33.2224L59.6288 33.2Z" fill="#FFB573"/>
<path d="M49.9344 39.0912H47.5472C47.4253 39.0912 47.3264 39.19 47.3264 39.312V42.3936C47.3264 42.5155 47.4253 42.6144 47.5472 42.6144H49.9344C50.0563 42.6144 50.1552 42.5155 50.1552 42.3936V39.312C50.1552 39.19 50.0563 39.0912 49.9344 39.0912Z" fill="#407BFF"/>
<path d="M49.9344 39.7744C50.0796 39.7688 50.2245 39.7925 50.3603 39.8442C50.4961 39.896 50.6201 39.9746 50.7248 40.0753C50.8295 40.1761 50.9128 40.2969 50.9697 40.4307C51.0266 40.5644 51.056 40.7082 51.056 40.8535C51.056 40.9989 51.0266 41.1427 50.9697 41.2764C50.9128 41.4101 50.8295 41.531 50.7248 41.6318C50.6201 41.7325 50.4961 41.8111 50.3603 41.8628C50.2245 41.9146 50.0796 41.9383 49.9344 41.9327H49.92C49.7748 41.9383 49.6299 41.9146 49.4941 41.8628C49.3583 41.8111 49.2343 41.7325 49.1296 41.6318C49.0249 41.531 48.9416 41.4101 48.8847 41.2764C48.8278 41.1427 48.7984 40.9989 48.7984 40.8535C48.7984 40.7082 48.8278 40.5644 48.8847 40.4307C48.9416 40.2969 49.0249 40.1761 49.1296 40.0753C49.2343 39.9746 49.3583 39.896 49.4941 39.8442C49.6299 39.7925 49.7748 39.7688 49.92 39.7744H49.9392H49.9344ZM49.9392 39.4544H49.92C49.7316 39.448 49.5439 39.4796 49.368 39.5473C49.1921 39.615 49.0317 39.7174 48.8962 39.8484C48.7607 39.9794 48.6529 40.1363 48.5793 40.3098C48.5057 40.4833 48.4678 40.6699 48.4678 40.8583C48.4678 41.0468 48.5057 41.2334 48.5793 41.4069C48.6529 41.5804 48.7607 41.7373 48.8962 41.8683C49.0317 41.9993 49.1921 42.1017 49.368 42.1694C49.5439 42.2371 49.7316 42.2687 49.92 42.2623H49.9392C50.1276 42.2687 50.3153 42.2371 50.4912 42.1694C50.6671 42.1017 50.8275 41.9993 50.963 41.8683C51.0985 41.7373 51.2063 41.5804 51.2799 41.4069C51.3535 41.2334 51.3914 41.0468 51.3914 40.8583C51.3914 40.6699 51.3535 40.4833 51.2799 40.3098C51.2063 40.1363 51.0985 39.9794 50.963 39.8484C50.8275 39.7174 50.6671 39.615 50.4912 39.5473C50.3153 39.4796 50.1276 39.448 49.9392 39.4544Z" fill="#407BFF"/>
<path d="M53.6816 41.0464L53.672 41.8016C53.2128 42.9712 51.8112 42.1216 51.8112 42.1216L50.9728 41.984C50.8271 41.949 50.6983 41.864 50.6089 41.7439C50.5194 41.6237 50.4749 41.4759 50.4832 41.3264V40.4912C50.4738 40.3193 50.5317 40.1506 50.6446 40.0207C50.7575 39.8907 50.9165 39.8099 51.088 39.7952H51.84C52.0559 39.7966 52.2681 39.8516 52.4576 39.9552L53.304 40.4064C53.419 40.4689 53.5148 40.5615 53.5813 40.6742C53.6478 40.7869 53.6825 40.9155 53.6816 41.0464Z" fill="#FFB573"/>
<path d="M57.8016 29.7072C58.6304 29.5472 59.7216 30.7744 59.6992 32.2C59.9968 32.4512 60.512 34.5456 61.1712 35.56C61.8304 36.5744 61.4912 38.184 60.7168 38.5504C59.2768 39.2272 58.496 39.4704 57.6128 38.8208C56.7296 38.1712 55.7152 36.6592 55.568 35.224C55.36 33.12 56.3312 29.984 57.8016 29.7072Z" fill="#E0E0E0"/>
<path d="M56.6608 37.9952C56.136 38.9424 57.1744 39.7728 58.4 39.7008C59.6256 39.6288 60.6624 39.2624 61.3584 38.7728C62.0544 38.2832 61.9424 37.5088 61.8592 36.7808C61.7888 36.1536 61.5392 35.8592 60.9904 36.1968C60.4416 36.5344 59.6832 37.6944 58.088 37.9568C57.288 38.0976 56.9024 37.5584 56.6608 37.9952Z" fill="#FAFAFA"/>
<path d="M50.5888 29.2208C50.7819 28.8979 51.0785 28.6498 51.4304 28.5168C51.5781 28.1928 51.6097 27.8278 51.52 27.4832L55.4752 26.4848C55.0832 27.7488 54.776 28.7472 55.2144 29.3984C54.424 29.8176 52.9744 30.568 51.4544 30.432C49.9344 30.296 50.3088 29.744 50.5888 29.2208Z" fill="#FFB573"/>
<path opacity="0.2" d="M51.544 27.6048L54.4656 27.6128C53.496 28.5296 52.0928 28.8112 51.488 28.3776C51.5715 28.1288 51.5908 27.863 51.544 27.6048Z" fill="black"/>
<path d="M56.352 24.5536C55.7888 26.3312 55.368 27.5248 54.1296 28.0256C51.6704 29.0176 50.6672 27.7216 50.688 25.808C50.7072 24.0848 51.6256 21.4688 53.568 21.2096C53.9989 21.1519 54.4374 21.2044 54.8424 21.3623C55.2475 21.5202 55.6058 21.7782 55.884 22.1123C56.1621 22.4464 56.351 22.8456 56.4328 23.2726C56.5147 23.6996 56.4869 24.1403 56.352 24.5536Z" fill="#FFB573"/>
<path d="M55.176 25.952C54.4448 25.632 54.6656 25.4096 54.6656 25.4096C54.6656 25.4096 55.2576 24.7504 55.352 24.3664C55.4464 23.9824 54.872 23.1616 55.0752 22.7312C55.2784 22.3008 57.4256 22.0912 58.336 23.1904C58.1227 23.2373 57.9049 23.2609 57.6864 23.2608C57.87 23.4631 57.9882 23.7162 58.0256 23.9868C58.063 24.2574 58.0178 24.5331 57.896 24.7776C57.4768 25.6624 55.9552 26.3024 55.176 25.952Z" fill="#E0E0E0"/>
<path d="M51.2 26.1376L53.0896 26.1664C53.0896 26.1664 52.8224 26.6224 52.0288 26.6928C51.2352 26.7632 51.2 26.1376 51.2 26.1376Z" fill="#263238"/>
<path d="M51.2384 26.1376C51.2976 26.2592 51.4768 26.4416 52.0192 26.3936C52.3151 26.3749 52.6041 26.2966 52.8688 26.1632C52.5344 26.16 51.864 26.1488 51.2384 26.1376Z" fill="white"/>
<path opacity="0.2" d="M53.8944 24.3104C54.1163 24.2667 54.3464 24.3127 54.5344 24.4384C54.3148 24.4373 54.0975 24.3938 53.8944 24.3104Z" fill="black"/>
<path opacity="0.2" d="M53.8736 24.4656C53.9763 24.4671 54.0774 24.491 54.1699 24.5354C54.2625 24.5799 54.3442 24.644 54.4096 24.7232C54.2146 24.6764 54.0319 24.5886 53.8736 24.4656Z" fill="black"/>
<path opacity="0.2" d="M51.4032 23.712C51.4032 23.712 51.28 23.512 51.1536 23.592C51.1853 23.6274 51.2236 23.6563 51.2665 23.6769C51.3093 23.6974 51.3557 23.7094 51.4032 23.712Z" fill="black"/>
<path opacity="0.2" d="M51.36 23.8512C51.36 23.8512 51.2624 23.672 51.16 23.8128C51.185 23.8395 51.2178 23.8577 51.2537 23.8646C51.2897 23.8715 51.3269 23.8668 51.36 23.8512Z" fill="black"/>
<path opacity="0.2" d="M52.3856 22.176C52.9373 22.1809 53.4848 22.2727 54.008 22.448C53.4625 22.3879 52.9209 22.2971 52.3856 22.176Z" fill="black"/>
<path opacity="0.2" d="M52.1312 22.4256C52.1312 22.4256 53.3824 22.5664 53.96 22.9424C53.3357 22.827 52.7235 22.654 52.1312 22.4256Z" fill="black"/>
<path d="M56.5872 26.4224C56.4413 26.6017 56.2615 26.7505 56.0581 26.8603C55.8546 26.9701 55.6316 27.0388 55.4016 27.0624C54.7824 27.1216 54.5776 26.5408 54.8368 26.0144C55.0688 25.5344 55.672 24.9376 56.2496 25.1232C56.8272 25.3088 56.9424 25.9728 56.5872 26.4224Z" fill="#FFB573"/>
<path d="M53.392 24.2848C53.3552 24.432 53.248 24.5312 53.152 24.5072C53.056 24.4832 53.008 24.3472 53.0448 24.1952C53.0816 24.0432 53.1888 23.9488 53.2848 23.9744C53.3808 24 53.4288 24.1392 53.392 24.2848Z" fill="#263238"/>
<path d="M51.8288 23.9152C51.792 24.0624 51.6848 24.1616 51.5888 24.136C51.4928 24.1104 51.4448 23.976 51.4816 23.8256C51.5184 23.6752 51.6256 23.5792 51.7216 23.6048C51.8176 23.6304 51.8656 23.768 51.8288 23.9152Z" fill="#263238"/>
<path d="M52.3056 24.16L52 25.3968C52 25.3968 51.5008 25.3968 51.2752 25.1104C51.5984 24.5136 52.3056 24.16 52.3056 24.16Z" fill="#ED893E"/>
<path d="M53.9984 23.9248C54.0125 23.9287 54.0275 23.9287 54.0416 23.9248C54.0525 23.9204 54.0625 23.9139 54.0708 23.9056C54.0792 23.8973 54.0858 23.8874 54.0903 23.8765C54.0948 23.8656 54.097 23.854 54.0969 23.8422C54.0968 23.8304 54.0943 23.8188 54.0896 23.808C54.0376 23.6759 53.9548 23.5582 53.8483 23.4644C53.7417 23.3706 53.6144 23.3036 53.4768 23.2688C53.4649 23.2659 53.4526 23.2655 53.4406 23.2675C53.4285 23.2695 53.417 23.274 53.4068 23.2807C53.3965 23.2873 53.3878 23.296 53.381 23.3062C53.3742 23.3163 53.3696 23.3278 53.3674 23.3398C53.3652 23.3518 53.3655 23.3642 53.3683 23.3761C53.371 23.388 53.3762 23.3992 53.3834 23.409C53.3907 23.4188 53.3999 23.4271 53.4104 23.4332C53.421 23.4394 53.4327 23.4433 53.4448 23.4448C53.553 23.4743 53.6527 23.5288 53.7361 23.6038C53.8194 23.6788 53.8841 23.7723 53.9248 23.8768C53.9318 23.8905 53.9423 23.9022 53.9552 23.9106C53.9681 23.9191 53.983 23.9239 53.9984 23.9248Z" fill="#E0E0E0"/>
<path d="M51.0944 23.2576C51.1087 23.2611 51.1236 23.261 51.1378 23.2574C51.152 23.2538 51.1651 23.2467 51.176 23.2368C51.2552 23.1582 51.3518 23.0994 51.458 23.0652C51.5642 23.031 51.677 23.0224 51.7872 23.04C51.7985 23.0428 51.8102 23.0434 51.8216 23.0416C51.8331 23.0398 51.8441 23.0357 51.8539 23.0296C51.8638 23.0235 51.8723 23.0155 51.879 23.006C51.8857 22.9965 51.8904 22.9858 51.8928 22.9744C51.8981 22.9515 51.8942 22.9274 51.882 22.9074C51.8697 22.8873 51.85 22.8729 51.8272 22.8672C51.6887 22.8421 51.5462 22.8507 51.4117 22.8922C51.2772 22.9337 51.1547 23.0069 51.0544 23.1056C51.0377 23.1224 51.0283 23.1451 51.0283 23.1688C51.0283 23.1925 51.0377 23.2152 51.0544 23.232C51.0652 23.2439 51.079 23.2528 51.0944 23.2576Z" fill="#E0E0E0"/>
<path d="M41.5904 28.76C42.4624 28.2192 42.3728 27.3008 42.5264 26.5696C42.5536 26.4448 42.2688 26.2624 42.1008 26.4192C41.9897 26.5071 41.8973 26.6163 41.8291 26.7406C41.761 26.8648 41.7184 27.0014 41.704 27.1424C41.384 27.1904 40.5696 27.632 40.6976 28.5296C40.957 28.7129 41.2747 28.7949 41.5904 28.76Z" fill="#FFB573"/>
<path d="M51.8272 25.5872C51.8272 25.5872 51.7408 25.9072 51.9952 25.976C52.2496 26.0448 52.9088 25.6768 53.4512 26.0288C53.2608 25.76 52.664 25.376 51.8272 25.5872Z" fill="#E0E0E0"/>
<path d="M51.5536 25.5344C51.5536 25.5344 51.5104 25.8304 51.288 25.8544C51.0656 25.8784 50.68 25.48 50.136 25.7344C50.3275 25.5673 50.5635 25.4595 50.8151 25.424C51.0668 25.3885 51.3233 25.4268 51.5536 25.5344Z" fill="#E0E0E0"/>
<path d="M50.9696 31.576C53.0496 31.3728 56.6512 29.496 55.0224 28.8976C53.9968 29.712 52.2736 30.0368 51.4624 30.0384C51.1616 29.7488 51.0672 28.9408 51.4304 28.5168C50.5808 28.4448 49.5136 30.16 50.9696 31.576Z" fill="#FAFAFA"/>
<path d="M51.4624 30.0384C52.2176 29.5184 54.6096 28.256 55.28 28.2672C55.3587 28.5266 55.3714 28.8016 55.3168 29.0672C55.3168 29.0672 54.4336 30.0336 51.4624 30.0384Z" fill="#E0E0E0"/>
<path d="M51.4624 30.0384C51.4624 30.0384 51.5792 28.408 51.432 28.064C51.3082 28.1122 51.1989 28.1916 51.1148 28.2945C51.0307 28.3974 50.9746 28.5202 50.952 28.6512C50.952 28.6512 51.1088 29.7888 51.4624 30.0384Z" fill="#E0E0E0"/>
<path d="M57.136 22.6832C56.0528 22.8128 52.8432 22.5104 51.7936 21.3008C50.744 20.0912 51.5088 19.2704 52.632 19.9696C52.632 19.9696 51.8864 18.9552 53.0848 19.2096C54.216 19.4496 55.5552 21.4144 57.256 21.3312C58.704 21.2592 58.2064 22.56 57.136 22.6832Z" fill="#E0E0E0"/>
<path d="M56.6304 27.0304C56.1264 27.4384 55.4624 27.4528 55.1472 27.064C54.832 26.6752 54.9872 26.0288 55.488 25.624C55.9888 25.2192 56.656 25.2016 56.9712 25.5904C57.2864 25.9792 57.1328 26.6224 56.6304 27.0304Z" fill="#263238"/>
<path d="M52.4576 27.6544C52.4 27.6325 52.3498 27.595 52.3124 27.546C52.2751 27.497 52.2523 27.4386 52.2465 27.3773C52.2407 27.316 52.2522 27.2543 52.2796 27.1992C52.3071 27.1441 52.3495 27.0978 52.4019 27.0655C52.4544 27.0333 52.5148 27.0163 52.5764 27.0167C52.638 27.017 52.6982 27.0346 52.7503 27.0674C52.8024 27.1002 52.8443 27.147 52.8711 27.2024C52.898 27.2577 52.9089 27.3196 52.9024 27.3808C52.8785 27.4753 52.8187 27.5568 52.7356 27.6079C52.6525 27.659 52.5528 27.6757 52.4576 27.6544Z" fill="#263238"/>
<path d="M56.5968 25.9584C56.5689 25.9582 56.5414 25.9516 56.5164 25.9391C56.4915 25.9267 56.4697 25.9086 56.4528 25.8864C56.4385 25.8677 56.4281 25.8464 56.422 25.8236C56.416 25.8009 56.4145 25.7772 56.4176 25.7538C56.4207 25.7305 56.4284 25.708 56.4402 25.6877C56.452 25.6673 56.4677 25.6495 56.4864 25.6352C56.8912 25.3264 57.1376 24.5584 57.1024 23.7152C57.08 23.1808 56.8928 21.8512 55.6624 21.0656C55.6424 21.053 55.6252 21.0366 55.6115 21.0173C55.5979 20.998 55.5882 20.9762 55.583 20.9532C55.5778 20.9302 55.5772 20.9063 55.5812 20.8831C55.5852 20.8598 55.5938 20.8376 55.6064 20.8176C55.619 20.7976 55.6354 20.7804 55.6547 20.7667C55.674 20.7531 55.6958 20.7434 55.7188 20.7382C55.7418 20.733 55.7657 20.7324 55.7889 20.7364C55.8122 20.7404 55.8344 20.749 55.8544 20.7616C56.824 21.3792 57.4112 22.4512 57.464 23.7008C57.504 24.6608 57.208 25.5312 56.7072 25.9136C56.6767 25.9408 56.6377 25.9566 56.5968 25.9584Z" fill="#263238"/>
<path d="M53.3488 27.6544C53.0861 27.654 52.8236 27.6364 52.5632 27.6016C52.5514 27.6002 52.54 27.5965 52.5296 27.5907C52.5193 27.5848 52.5102 27.577 52.5029 27.5676C52.4956 27.5582 52.4902 27.5475 52.4871 27.536C52.484 27.5246 52.4832 27.5126 52.4848 27.5008C52.4884 27.4774 52.5009 27.4564 52.5197 27.442C52.5385 27.4277 52.5621 27.4212 52.5856 27.424C54.5056 27.6752 55.6528 26.8864 55.664 26.8784C55.6835 26.8646 55.7077 26.8591 55.7313 26.8632C55.7548 26.8672 55.7758 26.8805 55.7896 26.9C55.8034 26.9195 55.8089 26.9437 55.8048 26.9673C55.8008 26.9908 55.7875 27.0118 55.768 27.0256C55.7264 27.056 54.8592 27.6544 53.3488 27.6544Z" fill="#263238"/>
<path d="M48.16 40.728V40.4464H48.0304L48.0976 40.0832H47.84L47.7744 40.4464H47.568L47.6352 40.0832H47.3712L47.3264 40.3312V41.624H47.36L47.4256 41.2672H47.6304L47.5648 41.624H47.8256L47.8912 41.2672H48.16V40.9856H47.9328L47.9808 40.728H48.16ZM47.68 40.9856H47.4768L47.5248 40.728H47.7264L47.68 40.9856Z" fill="white"/>
<path d="M49.152 40.0816V41.6H48.7712V40.6048C48.7166 40.653 48.657 40.6954 48.5936 40.7312C48.5238 40.7677 48.451 40.7982 48.376 40.8224V40.48C48.4851 40.4464 48.5867 40.3921 48.6752 40.32C48.745 40.2536 48.7996 40.1728 48.8352 40.0832L49.152 40.0816Z" fill="white"/>
<path d="M62.8544 42.616H17.04V43.8624H62.8544V42.616Z" fill="#407BFF"/>
<path opacity="0.5" d="M62.8544 42.616H17.04V43.8624H62.8544V42.616Z" fill="white"/>
<path opacity="0.5" d="M62.8544 42.616H52.4224V43.8624H62.8544V42.616Z" fill="white"/>
<path d="M52.2384 43.8608H52.4208V42.6144H52.2384V43.8608Z" fill="white"/>
<path d="M62.0752 43.8624L63.4576 67.0672H62.9088L61.2496 44.6912H54.0256L52.368 67.0672H51.8192L53.2 43.8624H62.0752Z" fill="#407BFF"/>
<path opacity="0.5" d="M62.0752 43.8624L63.4576 67.0672H62.9088L61.2496 44.6912H54.0256L52.368 67.0672H51.8192L53.2 43.8624H62.0752Z" fill="white"/>
<path d="M26.7312 43.8624L28.1136 67.0672H27.5648L25.9072 44.6912H18.6816L17.024 67.0672H16.4752L17.8576 43.8624H26.7312Z" fill="#407BFF"/>
<path opacity="0.2" d="M26.7312 43.8624L28.1136 67.0672H27.5648L25.9072 44.6912H18.6816L17.024 67.0672H16.4752L17.8576 43.8624H26.7312Z" fill="white"/>
<path d="M37.7536 39.3872H20.88L19.3488 29.152H36.224L37.7536 39.3872Z" fill="#407BFF"/>
<path opacity="0.3" d="M28.36 39.3872H30.6816L30.1264 34.6704L29.4096 36.6576L28.36 39.3872Z" fill="black"/>
<path opacity="0.3" d="M37.7536 39.3872H37.56L36.0304 29.152H36.224L37.7536 39.3872Z" fill="black"/>
<path d="M31.6336 42.1824H27.0416V42.616H32.0304L31.6336 42.1824Z" fill="#407BFF"/>
<path opacity="0.3" d="M31.6336 42.1824H27.0416V42.616H32.0304L31.6336 42.1824Z" fill="black"/>
<path d="M27.6368 36.3632L27.5728 36.8352H27.3808C27.2857 36.8353 27.1936 36.8692 27.121 36.9307C27.0484 36.9921 26.9999 37.0773 26.984 37.1712L26.5888 39.5824C26.5793 39.6398 26.5824 39.6986 26.5979 39.7547C26.6133 39.8108 26.6408 39.8629 26.6784 39.9073C26.716 39.9518 26.7628 39.9875 26.8156 40.0121C26.8683 40.0366 26.9258 40.0494 26.984 40.0496H27.144V40.2432H26.08V36.3632H27.6368Z" fill="#407BFF"/>
<path opacity="0.3" d="M27.6368 36.3632L27.5728 36.8352H27.3808C27.2857 36.8353 27.1936 36.8692 27.121 36.9307C27.0484 36.9921 26.9999 37.0773 26.984 37.1712L26.5888 39.5824C26.5793 39.6398 26.5824 39.6986 26.5979 39.7547C26.6133 39.8108 26.6408 39.8629 26.6784 39.9073C26.716 39.9518 26.7628 39.9875 26.8156 40.0121C26.8683 40.0366 26.9258 40.0494 26.984 40.0496H27.144V40.2432H26.08V36.3632H27.6368Z" fill="black"/>
<path d="M26.08 34.2704L24.7088 42.616H28.944L30.3152 34.2704H26.08ZM28.4272 37.3024L28.0304 39.712C28.0152 39.806 27.9672 39.8915 27.8948 39.9533C27.8224 40.0152 27.7304 40.0493 27.6352 40.0496H26.8176C26.7593 40.0494 26.7018 40.0366 26.649 40.012C26.5962 39.9875 26.5493 39.9518 26.5116 39.9074C26.4739 39.863 26.4462 39.811 26.4306 39.7548C26.4149 39.6987 26.4116 39.6399 26.4208 39.5824L26.8176 37.1712C26.8332 37.0772 26.8816 36.9918 26.9543 36.9303C27.027 36.8688 27.1192 36.835 27.2144 36.8352H28.0304C28.0891 36.8344 28.1473 36.8465 28.2009 36.8707C28.2545 36.8948 28.3021 36.9304 28.3404 36.975C28.3786 37.0195 28.4067 37.0719 28.4225 37.1285C28.4384 37.1851 28.4416 37.2444 28.432 37.3024H28.4272Z" fill="#407BFF"/>
<path opacity="0.3" d="M28.9488 42.616L28.744 42.5888L30.1104 34.2704H30.32L28.9488 42.616Z" fill="black"/>
<path opacity="0.3" d="M28.368 32.2224H28.1232L27.8048 30.0944H28.0496L28.368 32.2224Z" fill="black"/>
<path opacity="0.3" d="M28.824 32.2224H28.5776L28.2608 30.0944H28.5056L28.824 32.2224Z" fill="black"/>
<path opacity="0.3" d="M29.28 32.2224H29.0336L28.7152 30.0944H28.9616L29.28 32.2224Z" fill="black"/>
<path opacity="0.3" d="M29.736 32.2224H29.4896L29.1712 30.0944H29.4176L29.736 32.2224Z" fill="black"/>
<path opacity="0.3" d="M30.1904 32.2224H29.9456L29.6272 30.0944H29.8736L30.1904 32.2224Z" fill="black"/>
<path opacity="0.3" d="M27.912 32.2224H27.6672L27.3488 30.0944H27.5936L27.912 32.2224Z" fill="black"/>
<path opacity="0.3" d="M27.456 32.2224H27.2112L26.8928 30.0944H27.1392L27.456 32.2224Z" fill="black"/>
<path opacity="0.3" d="M27 32.2224H26.7552L26.4368 30.0944H26.6832L27 32.2224Z" fill="black"/>
<path opacity="0.3" d="M26.5456 32.2224H26.2992L25.9808 30.0944H26.2272L26.5456 32.2224Z" fill="black"/>
</svg>
