<svg width="64" height="64" viewBox="0 0 64 64" fill="none" xmlns="http://www.w3.org/2000/svg">
<rect width="64" height="64" rx="32" fill="#EBEEFA"/>
<path d="M24.0002 33.333C20.3202 33.333 17.3335 36.3063 17.3335 39.9997C17.3335 43.693 20.3202 46.6663 24.0002 46.6663C27.6802 46.6663 30.6668 43.6797 30.6668 39.9997C30.6668 36.3197 27.6935 33.333 24.0002 33.333ZM21.2802 37.2797H24.0002C24.5068 37.2797 24.9068 37.693 24.9068 38.1863C24.9068 38.6797 24.4935 39.093 24.0002 39.093H21.2802C20.7735 39.093 20.3735 38.6797 20.3735 38.1863C20.3735 37.693 20.7735 37.2797 21.2802 37.2797ZM26.7202 42.7197H21.2668C20.7602 42.7197 20.3601 42.3063 20.3601 41.813C20.3601 41.3197 20.7735 40.9063 21.2668 40.9063H26.7202C27.2268 40.9063 27.6268 41.3197 27.6268 41.813C27.6268 42.3063 27.2268 42.7197 26.7202 42.7197Z" fill="#292D32"/>
<path opacity="0.4" d="M38.6665 20H25.3332C21.3332 20 18.6665 22 18.6665 26.6667V30.8533C18.6665 31.8267 19.6665 32.44 20.5599 32.0533C22.0265 31.4133 23.6932 31.1733 25.4398 31.4533C28.9332 32.0267 31.7865 34.7867 32.4932 38.2533C32.6932 39.2667 32.7198 40.2533 32.5865 41.2C32.4798 41.9867 33.1198 42.68 33.9065 42.68H38.6665C42.6665 42.68 45.3332 40.68 45.3332 36.0133V26.68C45.3332 22 42.6665 20 38.6665 20Z" fill="#292D32"/>
<path d="M31.9999 31.8269C30.8799 31.8269 29.7465 31.4803 28.8799 30.7736L24.7065 27.4403C24.2799 27.0936 24.1999 26.467 24.5465 26.0403C24.8932 25.6136 25.5199 25.5336 25.9465 25.8803L30.1199 29.2136C31.1332 30.027 32.8532 30.027 33.8665 29.2136L38.0399 25.8803C38.4665 25.5336 39.1065 25.6003 39.4398 26.0403C39.7865 26.467 39.7199 27.107 39.2799 27.4403L35.1065 30.7736C34.2532 31.4803 33.1199 31.8269 31.9999 31.8269Z" fill="#292D32"/>
</svg>
