<svg width="64" height="64" viewBox="0 0 64 64" fill="none" xmlns="http://www.w3.org/2000/svg">
<rect width="64" height="64" rx="32" fill="#EBEEFA"/>
<path opacity="0.4" d="M35.7201 21.3335H28.2801C22.3867 21.3335 22.3867 24.4668 22.3867 27.2268V32.2802C22.3867 32.5735 22.5201 32.8402 22.7467 33.0135C22.9734 33.1868 23.2801 33.2535 23.5601 33.1735C24.1601 33.0135 24.9067 32.9335 25.8001 32.9335C26.6934 32.9335 26.8801 33.0402 27.4134 33.4402L28.6267 34.7202C29.4934 35.6535 30.7334 36.1868 32.0134 36.1868C33.2934 36.1868 34.5201 35.6535 35.4001 34.7202L36.6134 33.4402C37.1467 33.0402 37.3334 32.9335 38.2267 32.9335C39.1201 32.9335 39.8667 33.0135 40.4667 33.1735C40.7467 33.2535 41.0401 33.1868 41.2801 33.0135C41.5067 32.8402 41.6401 32.5602 41.6401 32.2802V27.2268C41.6134 24.4668 41.6134 21.3335 35.7201 21.3335Z" fill="#292D32"/>
<path d="M35.0337 25.067C34.687 24.7203 34.1137 24.7203 33.767 25.067L32.9004 25.9337V19.5603C32.9004 19.067 32.487 18.667 31.9937 18.667C31.5004 18.667 31.087 19.067 31.087 19.5603V25.9203L30.2337 25.067C29.887 24.7203 29.3137 24.7203 28.967 25.067C28.6204 25.4137 28.6204 25.987 28.967 26.3337L31.367 28.7337C31.3804 28.747 31.3804 28.747 31.3937 28.747C31.4737 28.8137 31.5537 28.8803 31.6604 28.9203C31.767 28.9603 31.887 28.987 32.007 28.987C32.127 28.987 32.2337 28.9603 32.3537 28.9203C32.4604 28.8803 32.567 28.8137 32.647 28.7203L35.047 26.3203C35.3804 25.987 35.3804 25.4137 35.0337 25.067Z" fill="#292D32"/>
<path d="M40.9196 31.3731C40.1596 31.1731 39.2662 31.0664 38.1996 31.0664C36.7196 31.0664 36.1729 31.4264 35.4129 31.9997C35.3729 32.0264 35.3329 32.0664 35.2929 32.1064L34.0262 33.4531C32.9596 34.5731 31.0396 34.5864 29.9729 33.4397L28.7062 32.1064C28.6662 32.0664 28.6262 32.0264 28.5862 31.9997C27.8262 31.4264 27.2796 31.0664 25.7996 31.0664C24.7329 31.0664 23.8396 31.1731 23.0796 31.3731C19.9062 32.2264 19.9062 34.7464 19.9062 36.9597V38.1997C19.9062 41.5464 19.9062 45.3331 27.0396 45.3331H36.9596C41.6929 45.3331 44.0929 42.9331 44.0929 38.1997V36.9597C44.0929 34.7464 44.0929 32.2264 40.9196 31.3731ZM35.1062 40.5331H28.8929C28.3862 40.5331 27.9729 40.1197 27.9729 39.5997C27.9729 39.0797 28.3862 38.6664 28.8929 38.6664H35.1062C35.6129 38.6664 36.0262 39.0797 36.0262 39.5997C36.0262 40.1197 35.6129 40.5331 35.1062 40.5331Z" fill="#292D32"/>
<path opacity="0.4" d="M36.027 39.6003C36.027 40.1203 35.6136 40.5337 35.107 40.5337H28.8936C28.387 40.5337 27.9736 40.1203 27.9736 39.6003C27.9736 39.0803 28.387 38.667 28.8936 38.667H35.107C35.6136 38.667 36.027 39.0803 36.027 39.6003Z" fill="#292D32"/>
</svg>
