<svg width="80" height="80" viewBox="0 0 80 80" fill="none" xmlns="http://www.w3.org/2000/svg">
<path d="M80 61.184H0V61.224H80V61.184Z" fill="#EBEBEB"/>
<path d="M71.984 63.7584H66.6848V63.7984H71.984V63.7584Z" fill="#EBEBEB"/>
<path d="M52.9952 64.1936H46.72V64.2336H52.9952V64.1936Z" fill="#EBEBEB"/>
<path d="M66.5248 62.2736H57.4016V62.3136H66.5248V62.2736Z" fill="#EBEBEB"/>
<path d="M38.8976 62.5424H27.9168V62.5824H38.8976V62.5424Z" fill="#EBEBEB"/>
<path d="M41.3344 62.5424H40.3216V62.5824H41.3344V62.5424Z" fill="#EBEBEB"/>
<path d="M36.0224 63.2176H15.7328V63.2576H36.0224V63.2176Z" fill="#EBEBEB"/>
<path d="M37.92 54.048H7.02559C6.78356 54.0476 6.5516 53.9511 6.38061 53.7798C6.20962 53.6086 6.11359 53.3764 6.11359 53.1344V9.70559C6.11569 9.46495 6.21266 9.23486 6.38342 9.0653C6.55418 8.89574 6.78494 8.8004 7.02559 8.79999H37.92C38.1623 8.79999 38.3947 8.89624 38.566 9.06758C38.7373 9.23891 38.8336 9.47129 38.8336 9.71359V53.1344C38.8336 53.3767 38.7373 53.6091 38.566 53.7804C38.3947 53.9517 38.1623 54.048 37.92 54.048ZM7.02559 8.83199C6.79417 8.83241 6.57238 8.92464 6.40889 9.08842C6.24541 9.25221 6.15359 9.47417 6.15359 9.70559V53.1344C6.15359 53.3658 6.24541 53.5878 6.40889 53.7516C6.57238 53.9153 6.79417 54.0076 7.02559 54.008H37.92C38.1516 54.0076 38.3735 53.9154 38.5373 53.7517C38.701 53.5879 38.7932 53.366 38.7936 53.1344V9.70559C38.7932 9.47402 38.701 9.25207 38.5373 9.08833C38.3735 8.92459 38.1516 8.83241 37.92 8.83199H7.02559Z" fill="#EBEBEB"/>
<path d="M72.5296 54.048H41.6336C41.3914 54.0476 41.1593 53.9512 40.988 53.7799C40.8168 53.6087 40.7204 53.3766 40.72 53.1344V9.70559C40.7225 9.46481 40.8198 9.23472 40.9908 9.0652C41.1618 8.89569 41.3928 8.8004 41.6336 8.79999H72.5296C72.7699 8.80082 73.0003 8.89635 73.1707 9.06586C73.3411 9.23538 73.4379 9.46523 73.44 9.70559V53.1344C73.44 53.3761 73.3442 53.608 73.1735 53.7793C73.0029 53.9505 72.7713 54.0471 72.5296 54.048ZM41.6336 8.83199C41.402 8.83241 41.18 8.92459 41.0163 9.08833C40.8526 9.25207 40.7604 9.47402 40.76 9.70559V53.1344C40.7604 53.366 40.8526 53.5879 41.0163 53.7517C41.18 53.9154 41.402 54.0076 41.6336 54.008H72.5296C72.7611 54.0076 72.9831 53.9154 73.1468 53.7517C73.3106 53.5879 73.4027 53.366 73.4032 53.1344V9.70559C73.4027 9.47402 73.3106 9.25207 73.1468 9.08833C72.9831 8.92459 72.7611 8.83241 72.5296 8.83199H41.6336Z" fill="#EBEBEB"/>
<path d="M12.5344 61.184H18.1392L18.1392 42.3552H12.5344L12.5344 61.184Z" fill="#F5F5F5"/>
<path d="M12.5328 61.184H13.4576L13.4576 42.3552H12.5328L12.5328 61.184Z" fill="#F0F0F0"/>
<path d="M38.5584 42.9776H17.2752V47.688H38.5584V42.9776Z" fill="#E6E6E6"/>
<path d="M38.5584 49.0992H17.2752V50.1872H38.5584V49.0992Z" fill="#E6E6E6"/>
<path d="M37.3136 42.3552H12.5328V43.9904H37.3136V42.3552Z" fill="#F0F0F0"/>
<path d="M37.3136 61.184H42.9184V42.3552H37.3136V61.184Z" fill="#F5F5F5"/>
<path d="M37.3136 61.184H38.2384V42.3552H37.3136V61.184Z" fill="#F0F0F0"/>
<path d="M55.0816 61.184V32.0896H45.4608V61.184H55.0816Z" fill="#F0F0F0"/>
<path d="M54.5536 41.3824V32.8176H45.9888V41.3824H54.5536Z" fill="#E6E6E6"/>
<path d="M54.5536 50.7168V42.152H45.9888V50.7168H54.5536Z" fill="#E6E6E6"/>
<path d="M54.5536 60.0496V51.4848H45.9888V60.0496H54.5536Z" fill="#E6E6E6"/>
<path d="M49.3584 41.384V32.8192H45.9904V41.384H49.3584Z" fill="#E0E0E0"/>
<path d="M49.3568 50.7168V42.152H45.9888V50.7168H49.3568Z" fill="#E0E0E0"/>
<path d="M49.3584 60.0512V51.4864H45.9904V60.0512H49.3584Z" fill="#E0E0E0"/>
<path d="M57.6944 61.1824V32.088H55.0816V61.1824H57.6944Z" fill="#F5F5F5"/>
<path d="M65.368 61.184V32.0896H55.7472V61.184H65.368Z" fill="#F0F0F0"/>
<path d="M64.8384 41.384V32.8192H56.2736V41.384H64.8384Z" fill="#E6E6E6"/>
<path d="M64.84 50.7168V42.152H56.2752V50.7168H64.84Z" fill="#E6E6E6"/>
<path d="M64.84 60.0512V51.4864H56.2752V60.0512H64.84Z" fill="#E6E6E6"/>
<path d="M59.6448 41.384V32.8192H56.2768V41.384H59.6448Z" fill="#E0E0E0"/>
<path d="M59.6432 50.7168V42.152H56.2752V50.7168H59.6432Z" fill="#E0E0E0"/>
<path d="M59.6432 60.0496V51.4848H56.2752V60.0496H59.6432Z" fill="#E0E0E0"/>
<path d="M67.9808 61.184V32.0896H65.368V61.184H67.9808Z" fill="#F5F5F5"/>
<path d="M62.1203 40.7345C62.9838 39.8709 62.9838 38.4709 62.1203 37.6073C61.2568 36.7438 59.8567 36.7438 58.9932 37.6073C58.1297 38.4709 58.1297 39.8709 58.9932 40.7345C59.8567 41.598 61.2568 41.598 62.1203 40.7345Z" fill="#F5F5F5"/>
<path d="M53.0128 48.5056C52.9973 49.082 52.7575 49.6295 52.3443 50.0317C51.9312 50.4339 51.3774 50.6589 50.8008 50.6589C50.2242 50.6589 49.6704 50.4339 49.2573 50.0317C48.8442 49.6295 48.6043 49.082 48.5888 48.5056H53.0128Z" fill="#F0F0F0"/>
<path d="M53.0128 46.8512C53.0208 47.1467 52.9694 47.4408 52.8618 47.7161C52.7542 47.9914 52.5926 48.2424 52.3864 48.4542C52.1802 48.666 51.9337 48.8344 51.6613 48.9493C51.389 49.0643 51.0964 49.1235 50.8008 49.1235C50.5052 49.1235 50.2126 49.0643 49.9403 48.9493C49.668 48.8344 49.4214 48.666 49.2152 48.4542C49.009 48.2424 48.8474 47.9914 48.7398 47.7161C48.6322 47.4408 48.5809 47.1467 48.5888 46.8512H53.0128Z" fill="#F0F0F0"/>
<path d="M56.856 60.0496H63.8096V52.72H56.856V60.0496Z" fill="#F0F0F0"/>
<path d="M64.8384 52.72H63.8096V60.0496H64.8384V52.72Z" fill="#E0E0E0"/>
<path d="M58.6656 32.0896H61.4304V21.376H58.6656V32.0896Z" fill="#E6E6E6"/>
<path d="M51.1696 32.0896H60.3456L61.7312 19.5488H52.5552L51.1696 32.0896Z" fill="#F0F0F0"/>
<path d="M50.176 32.0896H59.6528L61.04 19.5488H51.5616L50.176 32.0896Z" fill="#F5F5F5"/>
<path d="M56.9216 32.0896H58.7616L56.6416 19.5488H54.8032L56.9216 32.0896Z" fill="#FAFAFA"/>
<path d="M55.2832 32.0896H55.9968L53.8768 19.5488H53.1632L55.2832 32.0896Z" fill="#FAFAFA"/>
<path d="M32.9504 38.0816V13.9744L11.3504 13.9744V38.0816H32.9504Z" fill="#EBEBEB"/>
<path d="M33.1456 38.08V13.9728H32.9504V38.08H33.1456Z" fill="#E0E0E0"/>
<path d="M12.9504 36.48H31.3504L31.3504 15.5728L12.9504 15.5728L12.9504 36.48Z" fill="#F5F5F5"/>
<path d="M23.6016 37.6H28.784V30.3472H23.6016V37.6Z" fill="white"/>
<path d="M16.0016 35.0464H21.1824L21.5552 27.7936H16.3744L16.0016 35.0464Z" fill="white"/>
<path d="M26.4944 22.1408H31.6752L32.048 14.8864H26.8672L26.4944 22.1408Z" fill="white"/>
<path d="M19.687 26.292L24.8628 26.5189L25.1804 19.273L20.0046 19.0461L19.687 26.292Z" fill="white"/>
<path d="M12.2683 24.2775L17.4469 24.1274L17.2368 16.8776L12.0582 17.0277L12.2683 24.2775Z" fill="white"/>
<path d="M40 68.4096C57.1332 68.4096 71.0224 67.5987 71.0224 66.5984C71.0224 65.5981 57.1332 64.7872 40 64.7872C22.8668 64.7872 8.9776 65.5981 8.9776 66.5984C8.9776 67.5987 22.8668 68.4096 40 68.4096Z" fill="#F5F5F5"/>
<path d="M24.7872 65.336H26.024L26.5184 62.4736H25.2816L24.7872 65.336Z" fill="#FFC3BD"/>
<path d="M17.5184 65.336H18.7552L19.8848 62.4736H18.648L17.5184 65.336Z" fill="#FFC3BD"/>
<path d="M18.928 65.1936H17.4208C17.3962 65.194 17.3723 65.2023 17.3527 65.2173C17.3331 65.2323 17.3189 65.2531 17.312 65.2768L17.0032 66.376C16.9955 66.4012 16.9938 66.4278 16.9981 66.4538C17.0025 66.4797 17.0129 66.5043 17.0284 66.5256C17.0439 66.5469 17.0642 66.5642 17.0876 66.5763C17.111 66.5884 17.1369 66.5949 17.1632 66.5952C17.6432 66.5872 18.0048 66.5584 18.6144 66.5584C18.9904 66.5584 19.7616 66.5984 20.2816 66.5984C20.8016 66.5984 20.8976 66.0848 20.688 66.0384C19.7472 65.8304 19.408 65.5424 19.1168 65.2688C19.0653 65.2214 18.998 65.1946 18.928 65.1936Z" fill="#263238"/>
<path d="M26.0224 65.1936H24.6736C24.6488 65.1939 24.6247 65.2022 24.6048 65.2171C24.585 65.2321 24.5704 65.253 24.5632 65.2768L24.256 66.376C24.248 66.4012 24.246 66.4279 24.2502 66.454C24.2544 66.4801 24.2648 66.5049 24.2804 66.5262C24.2959 66.5476 24.3164 66.565 24.3399 66.577C24.3635 66.589 24.3896 66.5952 24.416 66.5952C24.896 66.5872 25.608 66.5584 26.2192 66.5584C26.936 66.5584 27.5504 66.5984 28.3904 66.5984C28.8976 66.5984 29.0672 66.0848 28.8576 66.0384C27.8976 65.8272 27.1152 65.8048 26.3104 65.2896C26.2255 65.231 26.1256 65.1977 26.0224 65.1936Z" fill="#263238"/>
<path d="M25.9584 29.9344C26.6112 30.344 27.2976 30.7568 27.9744 31.1488C28.6512 31.5408 29.3392 31.9216 30.0272 32.2512C30.1984 32.336 30.3696 32.4112 30.5408 32.488C30.6256 32.5264 30.7104 32.5568 30.7952 32.592L30.9232 32.6448L31.0272 32.6832C31.247 32.779 31.4897 32.8095 31.7264 32.7712C31.9849 32.7061 32.2169 32.5624 32.3904 32.36C32.5036 32.2383 32.6069 32.1078 32.6992 31.9696C32.7472 31.8976 32.7936 31.8224 32.8368 31.7456L32.96 31.52L33.8656 31.728C33.8524 31.8484 33.8326 31.9681 33.8064 32.0864C33.7808 32.1984 33.752 32.3104 33.7168 32.4224C33.6471 32.6519 33.5521 32.873 33.4336 33.0816C33.3031 33.3093 33.1416 33.5177 32.9536 33.7008C32.7491 33.9026 32.5094 34.0653 32.2464 34.1808C31.9756 34.2981 31.6853 34.3643 31.3904 34.376C31.1143 34.3886 30.8378 34.3611 30.5696 34.2944C30.5088 34.28 30.4352 34.264 30.384 34.2464L30.224 34.1968C30.12 34.1632 30.0128 34.1312 29.912 34.0944C29.7104 34.0192 29.5024 33.9488 29.3088 33.8656C28.5366 33.5458 27.7829 33.1831 27.0512 32.7792C26.688 32.5808 26.3296 32.3776 25.9776 32.1632C25.6256 31.9488 25.2784 31.7376 24.9248 31.4992L25.9584 29.9344Z" fill="#FFC3BD"/>
<path d="M24.0976 31.0752C24.3424 32.256 27.3136 33.9552 27.3136 33.9552L28.3968 31.1088C28.3968 31.1088 27.5504 30.5792 26.2864 29.7344C25.0224 28.8896 23.8272 29.7792 24.0976 31.0752Z" fill="#263238"/>
<path d="M32.616 31.976L33.4752 30.6272L34.1152 32.096C34.1152 32.096 33.6064 32.8672 32.8208 32.4704L32.616 31.976Z" fill="#FFC3BD"/>
<path d="M34.5712 30.1168L34.992 31.2176L34.1168 32.0944L33.4752 30.6272L34.5712 30.1168Z" fill="#FFC3BD"/>
<path opacity="0.2" d="M26.5184 62.4752L26.2624 63.9504H25.0272L25.2816 62.4752H26.5184Z" fill="black"/>
<path opacity="0.2" d="M18.648 62.4752H19.8848L19.3008 63.9504H18.0656L18.648 62.4752Z" fill="black"/>
<path d="M25.5312 29.44C25.5312 29.44 27.248 32.9792 26.3776 40.1024L19.8176 40.9632C19.6992 39.9552 19.9776 34.9264 18.6544 30.2784C19.3665 30.0434 20.0928 29.8537 20.8288 29.7104C21.7495 29.535 22.6796 29.4132 23.6144 29.3456C24.2548 29.326 24.8958 29.3576 25.5312 29.44Z" fill="#263238"/>
<path opacity="0.2" d="M18.6608 30.2816L18.6896 30.272C19.3296 30.0928 20.0672 30.768 20.4608 31.7536C21.0352 33.1936 21.712 35.0928 21.712 35.0928L19.592 35.6C19.4464 33.8023 19.1347 32.0219 18.6608 30.2816Z" fill="black"/>
<path d="M20.8816 26.5168C21.1232 27.3968 21.4176 29.0288 20.8352 29.7168C21.5899 30.3462 22.5152 30.7361 23.4928 30.8368C24.1056 30.1856 23.6208 29.3536 23.6208 29.3536C22.6032 29.2432 22.576 28.4928 22.6992 27.768L20.8816 26.5168Z" fill="#FFC3BD"/>
<path d="M25.9872 37.5072L24.5168 29.3472C24.2463 29.3958 23.988 29.4972 23.7566 29.6457C23.5253 29.7941 23.3255 29.9867 23.1686 30.2124C23.0117 30.4381 22.9008 30.6925 22.8422 30.961C22.7836 31.2296 22.7785 31.507 22.8272 31.7776L23.5552 35.8224C23.6549 36.368 23.9669 36.8518 24.4228 37.1676C24.8788 37.4835 25.4414 37.6056 25.9872 37.5072Z" fill="#407BFF"/>
<path opacity="0.3" d="M25.9872 37.5072L24.5168 29.3472C24.2463 29.3958 23.988 29.4972 23.7566 29.6457C23.5253 29.7941 23.3255 29.9867 23.1686 30.2124C23.0117 30.4381 22.9008 30.6925 22.8422 30.961C22.7836 31.2296 22.7785 31.507 22.8272 31.7776L23.5552 35.8224C23.6549 36.368 23.9669 36.8518 24.4228 37.1676C24.8788 37.4835 25.4414 37.6056 25.9872 37.5072Z" fill="black"/>
<path d="M31.6208 45.584L30.5904 45.7696C30.4132 45.8014 30.2313 45.7951 30.0568 45.7512C29.8822 45.7073 29.719 45.6268 29.578 45.5149C29.4369 45.4031 29.3213 45.2625 29.2387 45.1026C29.1562 44.9426 29.1086 44.7669 29.0992 44.5872L28.6752 36.4272C28.6587 36.1189 28.7555 35.8151 28.9473 35.5732C29.1392 35.3313 29.4128 35.1678 29.7168 35.1136L31.6224 34.7696C31.827 34.7331 32.0375 34.7474 32.2353 34.8113C32.433 34.8752 32.6121 34.9868 32.7567 35.1361C32.9013 35.2854 33.0069 35.468 33.0644 35.6677C33.1219 35.8674 33.1295 36.0782 33.0864 36.2816L32.32 39.8688C32.294 39.9923 32.2865 40.119 32.2976 40.2448L32.6528 44.224C32.6812 44.5385 32.5911 44.8523 32.4002 45.1039C32.2093 45.3554 31.9314 45.5267 31.6208 45.584Z" fill="#407BFF"/>
<path opacity="0.2" d="M31.6224 34.7664L29.7168 35.1088C29.4131 35.1636 29.1399 35.3273 28.9481 35.569C28.7564 35.8108 28.6594 36.1142 28.6752 36.4224L28.8144 39.1312C30.0709 38.9178 31.3307 38.7402 32.5936 38.5984L33.0864 36.2752C33.1293 36.072 33.1215 35.8614 33.0639 35.6619C33.0063 35.4624 32.9005 35.2802 32.7559 35.1312C32.6113 34.9821 32.4323 34.8709 32.2347 34.8073C32.037 34.7437 31.8268 34.7297 31.6224 34.7664Z" fill="black"/>
<path d="M33.1968 42.3776L31.464 42.688L31.4784 39.6832L33.2112 39.3712L33.1968 42.3776Z" fill="#407BFF"/>
<path d="M33.4592 40.8272C33.4592 41.6576 33.3376 42.352 33.1968 42.376C33.056 42.4 32.944 41.7504 32.9472 40.92C32.9504 40.0896 33.0688 39.3968 33.2112 39.3712C33.3536 39.3456 33.464 40 33.4592 40.8272Z" fill="#407BFF"/>
<path opacity="0.2" d="M33.4592 40.8272C33.4592 41.6576 33.3376 42.352 33.1968 42.376C33.056 42.4 32.944 41.7504 32.9472 40.92C32.9504 40.0896 33.0688 39.3968 33.2112 39.3712C33.3536 39.3456 33.464 40 33.4592 40.8272Z" fill="black"/>
<path d="M26.112 27.3136C25.5426 27.4175 25.0376 27.743 24.7077 28.2187C24.3778 28.6943 24.2499 29.2814 24.352 29.8512L25.6544 37.088C25.758 37.6576 26.0834 38.1629 26.5592 38.4929C27.0349 38.8228 27.6222 38.9506 28.192 38.848C32.4448 38.0835 36.7633 37.7453 41.0832 37.8384L45.5264 37.936L42.6816 22.1232L38.5504 23.7632C34.533 25.3584 30.3662 26.5477 26.112 27.3136Z" fill="#407BFF"/>
<path opacity="0.3" d="M37.52 24.16L39.9776 37.8256C40.1936 37.8256 40.4112 37.8256 40.6272 37.8256L38.1248 23.9216C37.92 24.0112 37.7216 24.088 37.52 24.16Z" fill="black"/>
<path d="M44.7712 29.92C45.5568 34.2864 45.8912 37.88 45.5232 37.9472C45.1552 38.0144 44.216 34.528 43.4304 30.1616C42.6448 25.7952 42.3104 22.2016 42.6784 22.1344C43.0464 22.0672 43.9856 25.5456 44.7712 29.92Z" fill="#407BFF"/>
<path opacity="0.2" d="M44.7712 29.92C45.5568 34.2864 45.8912 37.88 45.5232 37.9472C45.1552 38.0144 44.216 34.528 43.4304 30.1616C42.6448 25.7952 42.3104 22.2016 42.6784 22.1344C43.0464 22.0672 43.9856 25.5456 44.7712 29.92Z" fill="black"/>
<path opacity="0.2" d="M21.6224 27.0256L22.6976 27.7632C22.6663 27.931 22.6497 28.1013 22.648 28.272C22.2624 28.272 21.7072 27.9136 21.6368 27.5168C21.6024 27.3552 21.5976 27.1888 21.6224 27.0256Z" fill="black"/>
<path d="M22.5296 22.9248C23.1792 22.984 24.1584 24.7296 23.5072 25.344C22.856 25.9584 21.2992 22.8112 22.5296 22.9248Z" fill="#263238"/>
<path d="M20.2496 25.4144C20.6288 26.5664 20.7904 27.2624 21.5424 27.6752C22.672 28.296 23.9872 27.2944 23.9632 26.032C23.9424 24.896 23.3232 23.2032 22.0528 23.104C21.7649 23.0864 21.4769 23.1392 21.2139 23.2578C20.9509 23.3764 20.7207 23.5572 20.5431 23.7846C20.3656 24.0121 20.2461 24.2793 20.195 24.5632C20.1439 24.8472 20.1626 25.1393 20.2496 25.4144Z" fill="#FFC3BD"/>
<path d="M23.36 22.7376C23.0443 22.6732 22.7219 22.6479 22.4 22.6624C22.5871 22.4899 22.757 22.2997 22.9072 22.0944C22.6064 22.3005 22.2725 22.4536 21.92 22.5472C21.9789 22.3998 22.0156 22.2445 22.0288 22.0864C21.784 22.3808 21.368 22.5808 20.9184 22.7488C21.1101 22.51 21.258 22.2392 21.3552 21.9488C21.0752 22.4656 20.024 22.9088 19.3616 23.3488H19.352C19.3055 23.3764 19.2611 23.4074 19.2192 23.4416C19.1651 23.4797 19.1184 23.5274 19.0816 23.5824C19.019 23.6517 18.9718 23.7335 18.9432 23.8224C18.9147 23.9113 18.9054 24.0053 18.916 24.0981C18.9266 24.1909 18.9568 24.2804 19.0047 24.3606C19.0526 24.4408 19.117 24.5098 19.1936 24.5632C19.0725 24.6491 18.9858 24.7753 18.9492 24.9192C18.9125 25.0632 18.9283 25.2154 18.9936 25.3488C18.984 25.1248 19.0368 24.88 19.1984 24.7808C18.9264 25.568 19.8384 26.3104 20.6512 26.52C21.1312 26.6416 21.4256 24.8048 20.9712 24.0784C21.5872 24 22.1136 23.8464 22.4288 23.6288C22.1915 23.7058 21.9397 23.7271 21.6928 23.6912C22.2848 23.4576 22.9216 23.128 23.424 23.2112C23.1821 23.1231 22.9263 23.0792 22.6688 23.0816C22.8391 23.0118 23.0209 22.9744 23.2048 22.9712C23.744 22.9936 24.0992 23.4512 23.9616 23.7584C24.168 23.4272 24.0928 22.8928 23.36 22.7376Z" fill="#263238"/>
<path d="M20.0544 26.88C20.1669 26.9791 20.2984 27.0542 20.4409 27.1007C20.5834 27.1472 20.7339 27.1641 20.8832 27.1504C21.288 27.112 21.3632 26.7088 21.152 26.3984C20.9568 26.12 20.512 25.8032 20.1536 25.9968C20.0764 26.038 20.0104 26.0973 19.9613 26.1697C19.9122 26.2421 19.8814 26.3254 19.8717 26.4123C19.8619 26.4992 19.8734 26.5872 19.9053 26.6687C19.9371 26.7502 19.9883 26.8227 20.0544 26.88Z" fill="#FFC3BD"/>
<path d="M26.3776 40.1056C26.3776 40.1056 29.7376 49.3424 29.3808 53.1104C29.0144 57.032 26.744 63.6704 26.744 63.6704H24.6496C24.6496 63.6704 25.8784 57.2704 26.0096 53.416C26.152 49.2192 22.3056 43.912 22.0704 40.6784L26.3776 40.1056Z" fill="#407BFF"/>
<path opacity="0.2" d="M22.9504 43.2896C22.8751 43.2412 22.7932 43.204 22.7072 43.1792C23.4432 45.1616 24.6352 47.4736 25.368 49.7296C25.448 46 24.64 44.3392 22.9504 43.2896Z" fill="black"/>
<path d="M24.0528 40.4112C24.0528 40.4112 25.0128 49.5472 24.0384 53.0848C22.9712 56.96 19.8992 63.664 19.8992 63.664H17.6352C17.6352 63.664 19.6064 57.28 20.3104 53.44C21.0752 49.28 20.0496 44.0624 19.8304 40.9696L24.0528 40.4112Z" fill="#407BFF"/>
<path d="M20.2976 63.7136H17.4224L17.616 62.8656H20.6944L20.2976 63.7136Z" fill="#407BFF"/>
<path opacity="0.4" d="M20.2976 63.7136H17.4224L17.616 62.8656H20.6944L20.2976 63.7136Z" fill="black"/>
<path d="M27.208 63.7136H24.3632L24.4096 62.9072L27.3664 62.8656L27.208 63.7136Z" fill="#407BFF"/>
<path opacity="0.4" d="M27.208 63.7136H24.3632L24.4096 62.9072L27.3664 62.8656L27.208 63.7136Z" fill="black"/>
<path d="M22.1232 25.1728C22.1472 25.2672 22.2192 25.3328 22.2832 25.3088C22.3472 25.2848 22.376 25.1952 22.352 25.0992C22.328 25.0032 22.256 24.9392 22.192 24.9632C22.128 24.9872 22.0976 25.0768 22.1232 25.1728Z" fill="#263238"/>
<path d="M23.2 24.8256C23.2256 24.9216 23.296 24.9856 23.36 24.9632C23.424 24.9408 23.4544 24.848 23.4288 24.7536C23.4032 24.6592 23.3328 24.5936 23.2688 24.616C23.2048 24.6384 23.1824 24.7296 23.2 24.8256Z" fill="#263238"/>
<path d="M22.88 24.984C23.0698 25.2388 23.2956 25.4646 23.5504 25.6544C23.4983 25.7219 23.4323 25.7775 23.357 25.8175C23.2817 25.8575 23.1987 25.881 23.1136 25.8864L22.88 24.984Z" fill="#ED847E"/>
<path d="M22.8992 26.24C22.7749 26.2854 22.6413 26.2992 22.5103 26.2802C22.3794 26.2612 22.2552 26.21 22.1488 26.1312C22.146 26.1285 22.1438 26.1253 22.1423 26.1217C22.1407 26.1182 22.14 26.1143 22.14 26.1104C22.14 26.1065 22.1407 26.1027 22.1423 26.0991C22.1438 26.0955 22.146 26.0923 22.1488 26.0896C22.1542 26.0844 22.1614 26.0815 22.1688 26.0815C22.1763 26.0815 22.1835 26.0844 22.1888 26.0896C22.2885 26.1611 22.4041 26.2073 22.5256 26.2243C22.6471 26.2413 22.7709 26.2286 22.8864 26.1872C22.89 26.186 22.8938 26.1855 22.8975 26.1859C22.9013 26.1862 22.9049 26.1873 22.9083 26.1891C22.9116 26.1909 22.9145 26.1934 22.9168 26.1963C22.9191 26.1993 22.9207 26.2028 22.9216 26.2064C22.9223 26.2137 22.9205 26.2211 22.9164 26.2272C22.9123 26.2333 22.9063 26.2378 22.8992 26.24Z" fill="#263238"/>
<path d="M21.7056 24.928C21.6935 24.9312 21.6808 24.9312 21.6688 24.928C21.6616 24.9254 21.655 24.9213 21.6495 24.916C21.6439 24.9108 21.6395 24.9044 21.6365 24.8974C21.6335 24.8903 21.632 24.8827 21.632 24.8751C21.6321 24.8674 21.6337 24.8598 21.6368 24.8528C21.6699 24.7634 21.723 24.6828 21.7921 24.6171C21.8611 24.5514 21.9443 24.5023 22.0352 24.4736C22.0425 24.4717 22.0502 24.4714 22.0577 24.4725C22.0652 24.4737 22.0724 24.4764 22.0789 24.4804C22.0853 24.4845 22.0908 24.4898 22.0952 24.496C22.0995 24.5023 22.1025 24.5094 22.104 24.5168C22.1062 24.5324 22.1027 24.5482 22.0942 24.5614C22.0856 24.5747 22.0727 24.5844 22.0576 24.5888C21.9847 24.6114 21.9179 24.6504 21.8624 24.7028C21.807 24.7553 21.7643 24.8197 21.7376 24.8912C21.7319 24.9071 21.7205 24.9202 21.7056 24.928Z" fill="#263238"/>
<path d="M23.5856 24.3024C23.5754 24.3058 23.5644 24.3062 23.5539 24.3036C23.5435 24.3011 23.5339 24.2957 23.5264 24.288C23.4807 24.2315 23.4217 24.1873 23.3547 24.1593C23.2876 24.1314 23.2146 24.1206 23.1424 24.128C23.1351 24.1296 23.1275 24.1297 23.1202 24.1281C23.1129 24.1266 23.106 24.1236 23.0999 24.1192C23.0939 24.1148 23.0888 24.1092 23.0851 24.1027C23.0814 24.0962 23.0791 24.089 23.0784 24.0816C23.0768 24.066 23.081 24.0505 23.0901 24.0378C23.0993 24.0251 23.1127 24.0162 23.128 24.0128C23.2173 24.0014 23.3079 24.0126 23.3918 24.0453C23.4756 24.078 23.55 24.1312 23.608 24.2C23.6186 24.2112 23.6244 24.2261 23.6244 24.2416C23.6244 24.257 23.6186 24.2719 23.608 24.2832C23.6028 24.2918 23.5949 24.2986 23.5856 24.3024Z" fill="#263238"/>
<path d="M19.9776 31.28C20.1152 31.816 20.2592 32.3792 20.4144 32.9248C20.5696 33.4704 20.7248 34.0192 20.8944 34.5568C21.064 35.0944 21.2528 35.6256 21.4528 36.1408C21.6401 36.6379 21.8664 37.1194 22.1296 37.5808C22.1616 37.6304 22.192 37.688 22.224 37.7328L22.2736 37.8048L22.2976 37.84C22.3434 37.8953 22.3973 37.9434 22.4576 37.9824C22.6611 38.1234 22.875 38.2485 23.0976 38.3568C23.5776 38.5952 24.1008 38.8144 24.6288 39.0208C25.688 39.4336 26.7856 39.8208 27.8736 40.192L27.6624 41.096C26.4887 40.9261 25.3262 40.6867 24.1808 40.3792C23.5923 40.2225 23.0132 40.0323 22.4464 39.8096C22.1339 39.6876 21.8321 39.5399 21.544 39.368C21.3554 39.2549 21.1832 39.1165 21.032 38.9568L20.96 38.88L20.92 38.8288L20.8384 38.7232C20.7824 38.6528 20.7392 38.584 20.6896 38.5136C20.3395 37.9837 20.0385 37.423 19.7904 36.8384C19.5408 36.28 19.3296 35.7184 19.1328 35.1472C18.7401 34.0192 18.4105 32.8702 18.1456 31.7056L19.9776 31.28Z" fill="#FFC3BD"/>
<path d="M17.928 30.9616C17.32 32.3792 18.3088 35.6128 18.3088 35.6128L21.2688 34.8528C21.0859 33.7118 20.8223 32.5852 20.48 31.4816C19.968 29.9664 18.4 29.8704 17.928 30.9616Z" fill="#263238"/>
<path d="M19.3248 65.4096C19.2168 65.4069 19.1094 65.3919 19.0048 65.3648C18.9994 65.3633 18.9945 65.3602 18.9908 65.3559C18.9871 65.3517 18.9848 65.3464 18.984 65.3408C18.9838 65.335 18.9852 65.3292 18.988 65.3242C18.9909 65.3191 18.995 65.3149 19 65.312C19.0464 65.2832 19.4592 65.0384 19.592 65.1088C19.6068 65.1168 19.6189 65.1289 19.6268 65.1437C19.6348 65.1585 19.6382 65.1753 19.6368 65.192C19.6392 65.2222 19.6342 65.2526 19.6222 65.2805C19.6102 65.3084 19.5916 65.3329 19.568 65.352C19.4956 65.3975 19.41 65.4178 19.3248 65.4096ZM19.0912 65.3232C19.2355 65.3715 19.3926 65.3635 19.5312 65.3008C19.5468 65.2881 19.5591 65.272 19.5672 65.2536C19.5752 65.2352 19.5788 65.2152 19.5776 65.1952C19.5781 65.1883 19.5768 65.1814 19.5737 65.1752C19.5706 65.169 19.5659 65.1637 19.56 65.16C19.4912 65.12 19.2576 65.2304 19.0912 65.3232Z" fill="#407BFF"/>
<path d="M19.0096 65.3648H18.9952C18.9909 65.3622 18.9874 65.3584 18.9852 65.3538C18.9829 65.3493 18.982 65.3442 18.9824 65.3392C18.9824 65.3232 19.0352 64.9664 19.1856 64.8496C19.2029 64.8349 19.2231 64.8239 19.2449 64.8176C19.2666 64.8113 19.2895 64.8096 19.312 64.8128C19.3336 64.8122 19.3546 64.8195 19.3711 64.8334C19.3876 64.8472 19.3985 64.8667 19.4016 64.888C19.4192 65.0272 19.1568 65.2976 19.024 65.368C19.019 65.3687 19.0139 65.3676 19.0096 65.3648ZM19.2896 64.864C19.2645 64.8648 19.2403 64.8738 19.2208 64.8896C19.1284 64.9998 19.0696 65.1342 19.0512 65.2768C19.184 65.1808 19.3536 64.976 19.3424 64.8944C19.3424 64.8944 19.3424 64.8704 19.3024 64.8656L19.2896 64.864Z" fill="#407BFF"/>
<path d="M26.5248 65.4096C26.3952 65.407 26.266 65.392 26.1392 65.3648C26.1333 65.3641 26.1278 65.3613 26.1237 65.3569C26.1196 65.3525 26.1172 65.3468 26.1168 65.3408C26.1163 65.3346 26.1176 65.3283 26.1208 65.3228C26.1239 65.3174 26.1287 65.3131 26.1344 65.3104C26.192 65.2816 26.7024 65.0288 26.848 65.1136C26.8616 65.1213 26.873 65.1325 26.8808 65.146C26.8887 65.1595 26.8928 65.1748 26.8928 65.1904C26.894 65.2175 26.8888 65.2445 26.8776 65.2692C26.8665 65.2939 26.8498 65.3157 26.8288 65.3328C26.7389 65.3917 26.6319 65.4188 26.5248 65.4096ZM26.2384 65.3232C26.5088 65.368 26.7184 65.3568 26.792 65.2896C26.8059 65.2783 26.8169 65.2638 26.8242 65.2474C26.8314 65.231 26.8346 65.2131 26.8336 65.1952C26.8341 65.1892 26.8329 65.1831 26.83 65.1777C26.8272 65.1723 26.8229 65.1679 26.8176 65.1648C26.7376 65.12 26.448 65.2256 26.24 65.3232H26.2384Z" fill="#407BFF"/>
<path d="M26.144 65.3648C26.1388 65.3664 26.1332 65.3664 26.128 65.3648C26.1239 65.3617 26.1207 65.3576 26.1187 65.3528C26.1167 65.348 26.1161 65.3427 26.1168 65.3376C26.1393 65.159 26.2157 64.9915 26.336 64.8576C26.3809 64.8209 26.4381 64.8026 26.496 64.8064C26.576 64.816 26.5968 64.856 26.6016 64.8896C26.616 65.0288 26.304 65.296 26.152 65.3696L26.144 65.3648ZM26.4752 64.864C26.4371 64.864 26.4002 64.8776 26.3712 64.9024C26.2729 65.0081 26.2083 65.1407 26.1856 65.2832C26.3456 65.192 26.5568 64.9824 26.5472 64.8976C26.5472 64.8976 26.5472 64.8704 26.4928 64.8656L26.4752 64.864Z" fill="#407BFF"/>
<path d="M27.6384 40.1712L28.8752 39.968L28.3776 41.5056C28.3776 41.5056 27.2992 41.4432 27.3008 40.8544L27.6384 40.1712Z" fill="#FFC3BD"/>
<path d="M30.0464 40.5392L29.5728 41.7808L28.3776 41.5056L28.8752 39.968L30.0464 40.5392Z" fill="#FFC3BD"/>
<path d="M62.7728 22.9648L60.96 16.2288C60.9247 16.0975 60.8639 15.9743 60.7811 15.8665C60.6982 15.7587 60.5949 15.6682 60.4771 15.6003C60.3593 15.5324 60.2292 15.4884 60.0944 15.4708C59.9595 15.4531 59.8225 15.4623 59.6912 15.4976L46.5712 19.0176C46.3058 19.0892 46.0797 19.2632 45.9426 19.5014C45.8055 19.7397 45.7686 20.0226 45.84 20.288L47.6512 27.024C47.7224 27.2893 47.8961 27.5155 48.134 27.6529C48.3719 27.7903 48.6546 27.8277 48.92 27.7568L50.7712 27.2592L53.32 28.7264L52.7776 26.72L62.0416 24.2304C62.3059 24.1588 62.5311 23.9855 62.6681 23.7484C62.8051 23.5112 62.8428 23.2296 62.7728 22.9648Z" fill="#407BFF"/>
<path opacity="0.2" d="M62.7728 22.9648L60.96 16.2288C60.9247 16.0975 60.8639 15.9743 60.7811 15.8665C60.6982 15.7587 60.5949 15.6682 60.4771 15.6003C60.3593 15.5324 60.2292 15.4884 60.0944 15.4708C59.9595 15.4531 59.8225 15.4623 59.6912 15.4976L46.5712 19.0176C46.3058 19.0892 46.0797 19.2632 45.9426 19.5014C45.8055 19.7397 45.7686 20.0226 45.84 20.288L47.6512 27.024C47.7224 27.2893 47.8961 27.5155 48.134 27.6529C48.3719 27.7903 48.6546 27.8277 48.92 27.7568L50.7712 27.2592L53.32 28.7264L52.7776 26.72L62.0416 24.2304C62.3059 24.1588 62.5311 23.9855 62.6681 23.7484C62.8051 23.5112 62.8428 23.2296 62.7728 22.9648Z" fill="black"/>
<path d="M68.1184 37.0688L68.8192 32.5088C68.8467 32.3293 68.8019 32.1462 68.6945 31.9998C68.587 31.8534 68.4259 31.7556 68.2464 31.728L59.36 30.3616C59.2711 30.3477 59.1803 30.3516 59.0929 30.3729C59.0055 30.3942 58.9231 30.4326 58.8506 30.4858C58.778 30.539 58.7167 30.606 58.6701 30.683C58.6235 30.76 58.5926 30.8455 58.5792 30.9344L57.8768 35.4944C57.8492 35.6739 57.8941 35.857 58.0015 36.0034C58.1089 36.1499 58.2701 36.2476 58.4496 36.2752L59.7024 36.4688L60.8528 38.0368L61.0624 36.6768L67.3312 37.6368C67.4202 37.6514 67.5112 37.6483 67.599 37.6276C67.6868 37.607 67.7697 37.5692 67.8428 37.5164C67.9159 37.4636 67.9779 37.3969 68.0252 37.3201C68.0725 37.2433 68.1042 37.1579 68.1184 37.0688Z" fill="#407BFF"/>
<path opacity="0.3" d="M68.1184 37.0688L68.8192 32.5088C68.8467 32.3293 68.8019 32.1462 68.6945 31.9998C68.587 31.8534 68.4259 31.7556 68.2464 31.728L59.36 30.3616C59.2711 30.3477 59.1803 30.3516 59.0929 30.3729C59.0055 30.3942 58.9231 30.4326 58.8506 30.4858C58.778 30.539 58.7167 30.606 58.6701 30.683C58.6235 30.76 58.5926 30.8455 58.5792 30.9344L57.8768 35.4944C57.8492 35.6739 57.8941 35.857 58.0015 36.0034C58.1089 36.1499 58.2701 36.2476 58.4496 36.2752L59.7024 36.4688L60.8528 38.0368L61.0624 36.6768L67.3312 37.6368C67.4202 37.6514 67.5112 37.6483 67.599 37.6276C67.6868 37.607 67.7697 37.5692 67.8428 37.5164C67.9159 37.4636 67.9779 37.3969 68.0252 37.3201C68.0725 37.2433 68.1042 37.1579 68.1184 37.0688Z" fill="white"/>
<path d="M67.8032 29.6768L66.6608 21.5168C66.6156 21.195 66.4444 20.9043 66.1848 20.7086C65.9253 20.513 65.5987 20.4285 65.2768 20.4736L49.3712 22.6976C49.0493 22.7428 48.7586 22.9141 48.563 23.1736C48.3674 23.4331 48.2828 23.7598 48.328 24.0816L49.4704 32.2416C49.4924 32.401 49.5456 32.5545 49.6271 32.6933C49.7085 32.832 49.8166 32.9533 49.945 33.0503C50.0734 33.1472 50.2197 33.2178 50.3755 33.258C50.5313 33.2983 50.6935 33.3074 50.8528 33.2848L53.0928 32.9648L55.8688 35.0592L55.528 32.624L66.7552 31.0544C67.0765 31.0099 67.3671 30.84 67.5634 30.5819C67.7598 30.3237 67.846 29.9983 67.8032 29.6768Z" fill="#407BFF"/>
<path d="M50.9488 26.2816L51.8496 26.1552L53.2656 27.7168L53.024 25.9904L53.9328 25.864L54.3696 28.984L53.4608 29.112L52.0528 27.5616L52.2928 29.2752L51.3856 29.4016L50.9488 26.2816Z" fill="white"/>
<path d="M54.5712 25.7744L57.1568 25.4128L57.2496 26.08L55.632 26.3056L55.7008 26.8016L57.2016 26.592L57.2912 27.232L55.7904 27.4416L55.8752 28.056L57.5408 27.824L57.64 28.5296L55.008 28.8976L54.5712 25.7744Z" fill="white"/>
<path d="M57.4016 25.3792L58.3168 25.2512L58.8912 26.952L59.1296 25.1376L60.0416 25.0096L60.7696 26.6864L60.856 24.896L61.7664 24.768L61.5152 27.9856L60.5696 28.1168L59.7472 26.2288L59.4768 28.2704L58.5312 28.4016L57.4016 25.3792Z" fill="white"/>
<path d="M62.2048 26.8352L63.1152 26.6496C63.1401 26.7683 63.1952 26.8785 63.2752 26.9696C63.3351 27.0253 63.4074 27.0661 63.4861 27.0886C63.5648 27.1111 63.6476 27.1147 63.728 27.0992C63.8434 27.0907 63.9516 27.04 64.032 26.9568C64.0626 26.9254 64.0858 26.8875 64.0999 26.846C64.1141 26.8045 64.1187 26.7603 64.1136 26.7168C64.1066 26.6752 64.0907 26.6357 64.0669 26.6009C64.0432 26.5661 64.0121 26.5368 63.976 26.5152C63.8133 26.4409 63.6364 26.4026 63.4576 26.4032C63.1221 26.3958 62.7932 26.3092 62.4976 26.1504C62.3998 26.0892 62.3169 26.0068 62.2552 25.9093C62.1934 25.8119 62.1543 25.7018 62.1408 25.5872C62.1176 25.4231 62.1444 25.2559 62.2176 25.1072C62.2998 24.9418 62.4289 24.8044 62.5888 24.712C62.8212 24.5865 63.0763 24.5087 63.3392 24.4832C63.6562 24.4185 63.9853 24.4514 64.2832 24.5776C64.4044 24.6465 64.5093 24.7409 64.5908 24.8541C64.6723 24.9673 64.7283 25.0967 64.7552 25.2336L63.8544 25.4144C63.8257 25.2986 63.7565 25.197 63.6592 25.128C63.5569 25.073 63.4388 25.0549 63.3248 25.0768C63.2336 25.0827 63.1475 25.1207 63.0816 25.184C63.058 25.2083 63.0403 25.2376 63.0297 25.2698C63.0192 25.3019 63.0161 25.3361 63.0208 25.3696C63.0253 25.3958 63.0357 25.4207 63.0513 25.4423C63.0668 25.4639 63.087 25.4817 63.1104 25.4944C63.2172 25.5415 63.3329 25.565 63.4496 25.5632C63.769 25.5759 64.0858 25.6258 64.3936 25.712C64.5666 25.7655 64.7213 25.8664 64.84 26.0032C64.943 26.1311 65.0083 26.2851 65.0288 26.448C65.0576 26.6445 65.0269 26.8451 64.9408 27.024C64.8515 27.2109 64.709 27.3673 64.5312 27.4736C64.3052 27.6016 64.0552 27.6817 63.7968 27.7088C63.2635 27.7835 62.8816 27.7301 62.6512 27.5488C62.4231 27.3708 62.2651 27.1181 62.2048 26.8352Z" fill="white"/>
</svg>
