<svg width="64" height="64" viewBox="0 0 64 64" fill="none" xmlns="http://www.w3.org/2000/svg">
<rect width="64" height="64" rx="32" fill="#EBEEFA"/>
<path opacity="0.4" d="M35.7201 24H28.2801C22.3867 24 22.3867 27.1333 22.3867 29.8933V32.28C22.3867 32.5733 22.5201 32.84 22.7467 33.0133C22.9734 33.1867 23.2801 33.2533 23.5601 33.1733C24.1601 33.0133 24.9067 32.9333 25.8001 32.9333C26.6934 32.9333 26.8801 33.04 27.4134 33.44L28.6267 34.72C29.4934 35.6533 30.7334 36.1867 32.0134 36.1867C33.2934 36.1867 34.5201 35.6533 35.4001 34.72L36.6134 33.44C37.1467 33.04 37.3334 32.9333 38.2267 32.9333C39.1201 32.9333 39.8667 33.0133 40.4667 33.1733C40.7467 33.2533 41.0401 33.1867 41.2801 33.0133C41.5067 32.84 41.6401 32.56 41.6401 32.28V29.8933C41.6134 27.1333 41.6134 24 35.7201 24Z" fill="#292D32"/>
<path d="M35.0402 22.6003C34.6935 22.947 34.1202 22.947 33.7735 22.6003L32.9069 21.7337V28.0937C32.9069 28.587 32.5069 29.0003 32.0002 29.0003C31.4935 29.0003 31.0935 28.6003 31.0935 28.0937V21.7337L30.2269 22.6003C29.8802 22.947 29.3069 22.947 28.9602 22.6003C28.6135 22.2537 28.6135 21.6803 28.9602 21.3337L31.3602 18.9337C31.3735 18.9203 31.3735 18.9203 31.3869 18.9203C31.4669 18.8537 31.5469 18.787 31.6535 18.747C31.7735 18.6937 31.8802 18.667 32.0002 18.667C32.1202 18.667 32.2269 18.6937 32.3469 18.7337C32.4535 18.7737 32.5602 18.8403 32.6402 18.9337L35.0402 21.3337C35.3869 21.6803 35.3869 22.2537 35.0402 22.6003Z" fill="#292D32"/>
<path d="M40.9196 31.3731C40.1596 31.1731 39.2663 31.0664 38.1996 31.0664C36.7196 31.0664 36.1729 31.4264 35.4129 31.9997C35.3729 32.0264 35.3329 32.0664 35.2929 32.1064L34.0263 33.4531C32.9596 34.5731 31.0396 34.5864 29.9729 33.4397L28.7062 32.1064C28.6662 32.0664 28.6262 32.0264 28.5862 31.9997C27.8262 31.4264 27.2796 31.0664 25.7996 31.0664C24.7329 31.0664 23.8396 31.1731 23.0796 31.3731C19.9062 32.2264 19.9062 34.7464 19.9062 36.9597V38.1997C19.9062 41.5464 19.9062 45.3331 27.0396 45.3331H36.9596C41.6929 45.3331 44.0929 42.9331 44.0929 38.1997V36.9597C44.0929 34.7464 44.0929 32.2264 40.9196 31.3731ZM35.1062 40.5331H28.8929C28.3862 40.5331 27.9729 40.1197 27.9729 39.5997C27.9729 39.0797 28.3862 38.6664 28.8929 38.6664H35.1062C35.6129 38.6664 36.0263 39.0797 36.0263 39.5997C36.0263 40.1197 35.6129 40.5331 35.1062 40.5331Z" fill="#292D32"/>
<path opacity="0.4" d="M36.027 39.6003C36.027 40.1203 35.6136 40.5337 35.107 40.5337H28.8936C28.387 40.5337 27.9736 40.1203 27.9736 39.6003C27.9736 39.0803 28.387 38.667 28.8936 38.667H35.107C35.6136 38.667 36.027 39.0803 36.027 39.6003Z" fill="#292D32"/>
</svg>
