<svg width="64" height="64" viewBox="0 0 64 64" fill="none" xmlns="http://www.w3.org/2000/svg">
<rect width="64" height="64" rx="32" fill="#EBEEFA"/>
<path opacity="0.4" d="M27.9998 18.667C24.5065 18.667 21.6665 21.507 21.6665 25.0003C21.6665 28.427 24.3465 31.2003 27.8398 31.3203C27.9465 31.307 28.0532 31.307 28.1332 31.3203C28.1598 31.3203 28.1732 31.3203 28.1998 31.3203C28.2132 31.3203 28.2132 31.3203 28.2265 31.3203C31.6398 31.2003 34.3198 28.427 34.3332 25.0003C34.3332 21.507 31.4932 18.667 27.9998 18.667Z" fill="#292D32"/>
<path d="M34.7733 34.8668C31.0533 32.3868 24.9866 32.3868 21.2399 34.8668C19.5466 36.0002 18.6133 37.5335 18.6133 39.1735C18.6133 40.8135 19.5466 42.3335 21.2266 43.4535C23.0933 44.7068 25.5466 45.3335 27.9999 45.3335C30.4533 45.3335 32.9066 44.7068 34.7733 43.4535C36.4533 42.3202 37.3866 40.8002 37.3866 39.1468C37.3733 37.5068 36.4533 35.9868 34.7733 34.8668Z" fill="#292D32"/>
<path opacity="0.4" d="M42.6535 25.7866C42.8668 28.3733 41.0268 30.64 38.4801 30.9466C38.4668 30.9466 38.4668 30.9466 38.4535 30.9466H38.4135C38.3335 30.9466 38.2535 30.9466 38.1868 30.9733C36.8935 31.04 35.7068 30.6266 34.8135 29.8666C36.1868 28.64 36.9735 26.8 36.8135 24.8C36.7201 23.72 36.3468 22.7333 35.7868 21.8933C36.2935 21.64 36.8801 21.48 37.4801 21.4266C40.0935 21.2 42.4268 23.1466 42.6535 25.7866Z" fill="#292D32"/>
<path d="M45.32 38.1199C45.2133 39.4132 44.3867 40.5332 43 41.2932C41.6667 42.0265 39.9867 42.3732 38.32 42.3332C39.28 41.4665 39.84 40.3865 39.9467 39.2399C40.08 37.5865 39.2933 35.9999 37.72 34.7332C36.8267 34.0265 35.7867 33.4665 34.6533 33.0532C37.6 32.1999 41.3067 32.7732 43.5867 34.6132C44.8133 35.5999 45.44 36.8399 45.32 38.1199Z" fill="#292D32"/>
</svg>
