<svg xmlns="http://www.w3.org/2000/svg" viewBox="0 0 500 500"><g id="freepik--background-complete--inject-57"><rect x="416.78" y="398.49" width="33.12" height="0.25" style="fill:#ebebeb"></rect><rect x="322.53" y="401.21" width="8.69" height="0.25" style="fill:#ebebeb"></rect><rect x="396.59" y="389.21" width="19.19" height="0.25" style="fill:#ebebeb"></rect><rect x="52.46" y="390.89" width="43.19" height="0.25" style="fill:#ebebeb"></rect><rect x="104.56" y="390.89" width="6.33" height="0.25" style="fill:#ebebeb"></rect><rect x="131.47" y="395.11" width="93.68" height="0.25" style="fill:#ebebeb"></rect><path d="M238.4,337.8H45.3a5.71,5.71,0,0,1-5.71-5.71V60.66A5.71,5.71,0,0,1,45.3,55H238.4a5.71,5.71,0,0,1,5.71,5.71V332.09A5.71,5.71,0,0,1,238.4,337.8ZM45.3,55.2a5.47,5.47,0,0,0-5.46,5.46V332.09a5.47,5.47,0,0,0,5.46,5.46H238.4a5.47,5.47,0,0,0,5.46-5.46V60.66a5.47,5.47,0,0,0-5.46-5.46Z" style="fill:#ebebeb"></path><path d="M454.7,337.8H261.6a5.71,5.71,0,0,1-5.71-5.71V60.66A5.71,5.71,0,0,1,261.6,55H454.7a5.71,5.71,0,0,1,5.71,5.71V332.09A5.71,5.71,0,0,1,454.7,337.8ZM261.6,55.2a5.47,5.47,0,0,0-5.46,5.46V332.09a5.47,5.47,0,0,0,5.46,5.46H454.7a5.47,5.47,0,0,0,5.46-5.46V60.66a5.47,5.47,0,0,0-5.46-5.46Z" style="fill:#ebebeb"></path><rect y="382.4" width="500" height="0.25" style="fill:#ebebeb"></rect><rect x="345.98" y="323.57" width="59.83" height="59.83" transform="translate(751.79 706.97) rotate(180)" style="fill:#f5f5f5"></rect><rect x="309.23" y="323.57" width="36.75" height="59.83" transform="translate(655.2 706.97) rotate(180)" style="fill:#ebebeb"></rect><polygon points="331.27 323.57 331.27 346.21 330.32 345.35 328.65 346.4 327.18 345.35 325.29 346.4 323.29 345.35 322.03 346.4 320.57 345.63 320.57 323.57 331.27 323.57" style="fill:#e0e0e0"></polygon><polygon points="331.27 323.57 331.27 346.21 330.32 345.35 328.65 346.4 327.18 345.35 325.29 346.4 323.29 345.35 322.03 346.4 320.57 345.63 320.57 323.57 331.27 323.57" style="fill:#e0e0e0;opacity:0.7000000000000001"></polygon><rect x="290.1" y="347.77" width="35.63" height="35.63" transform="translate(615.83 731.17) rotate(180)" style="fill:#f5f5f5"></rect><rect x="268.22" y="347.77" width="21.88" height="35.63" transform="translate(558.31 731.17) rotate(180)" style="fill:#e6e6e6"></rect><polygon points="296.91 357.79 332.53 357.79 325.73 347.77 290.1 347.77 296.91 357.79" style="fill:#e6e6e6"></polygon><polygon points="283.65 357.79 261.77 357.79 268.21 347.77 290.1 347.77 283.65 357.79" style="fill:#f5f5f5"></polygon><rect x="406.64" y="347.77" width="35.63" height="35.63" transform="translate(848.91 731.17) rotate(180)" style="fill:#f5f5f5"></rect><rect x="384.76" y="347.77" width="21.88" height="35.63" transform="translate(791.4 731.17) rotate(180)" style="fill:#e6e6e6"></rect><polygon points="413.45 338.83 449.07 338.83 442.27 347.77 406.64 347.77 413.45 338.83" style="fill:#e6e6e6"></polygon><polygon points="400.19 338.83 378.31 338.83 384.76 347.77 406.64 347.77 400.19 338.83" style="fill:#ebebeb"></polygon><path d="M115.32,381.65l-26-26-26,26a2,2,0,0,1-2.83,0h0a2,2,0,0,1,0-2.83l28.88-28.88,28.87,28.88a2,2,0,0,1,0,2.83h0A2,2,0,0,1,115.32,381.65Z" style="fill:#e0e0e0"></path><path d="M89.27,383.4h0a2,2,0,0,1-2-2V158.22h4V381.4A2,2,0,0,1,89.27,383.4Z" style="fill:#e6e6e6"></path><path d="M107.23,172.07c5.29,2.19,13.14-4.61,17.53-15.2s3.65-20.94-1.65-23.14L90.05,120c-5.29-2.19-13.14,4.61-17.52,15.2s-3.65,20.95,1.64,23.14Z" style="fill:#f5f5f5"></path><path d="M105.59,148.93c-4.39,10.59-3.65,20.95,1.64,23.14s13.14-4.61,17.53-15.2,3.65-20.94-1.65-23.14S110,138.35,105.59,148.93Z" style="fill:#e0e0e0"></path><path d="M106.79,149.43c-3.83,9.26-3.19,18.31,1.44,20.23s11.49-4,15.32-13.29,3.19-18.31-1.44-20.23S110.63,140.18,106.79,149.43Z" style="fill:#f0f0f0"></path><ellipse cx="115.17" cy="152.9" rx="12.62" ry="6.31" transform="translate(-70.17 200.79) rotate(-67.5)" style="fill:#fafafa"></ellipse><polygon points="99.91 153.96 100.49 162.15 101.86 160.96 102.33 167.53 100.95 168.72 101.54 176.91 90.51 194.46 89.27 176.95 99.91 153.96" style="fill:#ebebeb"></polygon><polygon points="130.44 151.84 129.85 143.65 128.48 144.84 128.02 138.28 129.39 137.09 128.81 128.9 156.81 118.37 158.05 135.88 130.44 151.84" style="fill:#ebebeb"></polygon><polygon points="107.84 179.52 114.04 174.14 113.91 172.33 118.89 168.01 119.01 169.82 125.22 164.45 133.46 195.26 120.2 206.76 107.84 179.52" style="fill:#ebebeb"></polygon><polygon points="122.5 126.29 116.3 131.67 116.43 133.48 111.46 137.79 111.33 135.98 105.13 141.36 113.86 117.58 127.12 106.08 122.5 126.29" style="fill:#ebebeb"></polygon><rect x="205.13" y="111.58" width="22.72" height="6.1" rx="1.32" transform="translate(432.97 229.26) rotate(180)" style="fill:#ebebeb"></rect><rect x="181.3" y="111.58" width="22.72" height="6.1" rx="1.32" transform="translate(385.32 229.26) rotate(180)" style="fill:#f5f5f5"></rect><rect x="191.91" y="104.03" width="22.72" height="6.1" rx="1.32" transform="translate(406.54 214.15) rotate(180)" style="fill:#f5f5f5"></rect><rect x="168.13" y="104.03" width="22.72" height="6.1" rx="1.32" transform="translate(358.98 214.15) rotate(180)" style="fill:#f0f0f0"></rect><rect x="342.83" y="107.81" width="22.72" height="6.1" rx="1.32" transform="translate(708.38 221.71) rotate(180)" style="fill:#f5f5f5"></rect><rect x="353.44" y="100.25" width="22.72" height="6.1" rx="1.32" transform="translate(729.61 206.6) rotate(180)" style="fill:#f5f5f5"></rect><rect x="329.66" y="100.25" width="22.72" height="6.1" rx="1.32" transform="translate(682.05 206.6) rotate(180)" style="fill:#f0f0f0"></rect><rect x="396.1" y="287.93" width="22.72" height="6.1" rx="1.32" transform="translate(814.92 581.95) rotate(180)" style="fill:#f5f5f5"></rect><rect x="406.71" y="280.37" width="22.72" height="6.1" rx="1.32" transform="translate(836.14 566.84) rotate(180)" style="fill:#f5f5f5"></rect><rect x="382.93" y="280.37" width="22.72" height="6.1" rx="1.32" transform="translate(788.58 566.84) rotate(180)" style="fill:#f0f0f0"></rect><rect x="95.04" y="261.12" width="22.72" height="6.1" rx="1.32" transform="translate(212.81 528.34) rotate(180)" style="fill:#f5f5f5"></rect><rect x="105.66" y="253.57" width="22.72" height="6.1" rx="1.32" transform="translate(234.03 513.23) rotate(180)" style="fill:#f5f5f5"></rect><path d="M242.3,340.59a56.92,56.92,0,0,1,10.95-26.22c-4.63,1.74-11.35,2.15-7.32-4.81,4.87-8.41,4.26-1,8.08-3.26,3.13-1.89.81-6.92,5.06-9.4,4.9-2.84,3.22,6.72,7.07,4.29,2.68-1.68,7.28-3.15,9,.74-2,2.64-4.57,5.09-7.72,6.09-4.48,1.42,4.08,4.54,1.29,6.93s-6.93,4.21-6.69,1.08-3.89,1.15-2.42,3.34-5.32,6.7-5.33,2.95-.14-7.52-.14-7.52A55.67,55.67,0,0,0,244,342.51C243.32,341.77,243,341.38,242.3,340.59Z" style="fill:#f0f0f0"></path><path d="M236,341.43a57,57,0,0,0-15.46-23.84c4.86.88,11.55.09,6.34-6-6.29-7.41-4.36-.18-8.53-1.76-3.42-1.3-2-6.67-6.66-8.34-5.33-1.93-2,7.18-6.2,5.48-2.93-1.18-7.72-1.8-8.75,2.33,2.45,2.24,5.4,4.2,8.68,4.62,4.66.6-3.2,5.19,0,7.05s7.57,2.9,6.77-.13,4,.44,3,2.85,6.43,5.64,5.78,2-1.22-7.42-1.22-7.42a55.65,55.65,0,0,1,14.95,25.45C235.18,342.77,235.45,342.33,236,341.43Z" style="fill:#e0e0e0"></path><path d="M238.45,341A72.16,72.16,0,0,0,236.94,305c4.74,4.09,12.54,7.53,10.81-2.51-2.09-12.13-4.64-3-8.17-7.41-2.89-3.62,2.07-8.59-1.89-13.39-4.57-5.53-6.77,6.57-10.29,2-2.44-3.18-7.26-6.94-11.05-3.09,1.23,4,3.19,8,6.49,10.62,4.7,3.66-6.83,3.61-4.57,7.68s6.39,8,7.47,4.21,4.12,3.08,1.42,5,3.37,10.3,5,5.85,3.45-8.88,3.45-8.88a70.37,70.37,0,0,1-.09,37.38C236.72,341.91,237.3,341.61,238.45,341Z" style="fill:#e6e6e6"></path><path d="M249.38,383.4H226.32a3.05,3.05,0,0,1-3-2.87l-2.45-39.77c-.11-1.75,34.15-1.75,34,0l-2.44,39.77A3.06,3.06,0,0,1,249.38,383.4Z" style="fill:#ebebeb"></path></g><g id="freepik--Shadow--inject-57"><ellipse id="freepik--path--inject-57" cx="245.18" cy="412.39" rx="193.89" ry="11.32" style="fill:#f5f5f5"></ellipse></g><g id="freepik--Board--inject-57"><polygon points="360.76 411.21 307.95 163.18 255.14 411.21 258.96 411.21 305.03 204.43 306.11 411.21 309.78 411.21 310.87 204.43 356.94 411.21 360.76 411.21" style="fill:#263238"></polygon><g style="opacity:0.7000000000000001"><polygon points="288.2 279.97 296.92 240.82 291.42 240.82 283.08 279.97 288.2 279.97"></polygon><polygon points="310.68 240.82 305.22 240.82 305.42 279.97 310.47 279.97 310.68 240.82"></polygon><polygon points="324.48 240.82 318.98 240.82 327.7 279.97 332.81 279.97 324.48 240.82"></polygon></g><rect x="212.11" y="140.83" width="191.67" height="130.58" rx="7.81" style="fill:#407BFF"></rect><path d="M394.23,273.25H221.66a11.39,11.39,0,0,1-11.38-11.38V150.38A11.39,11.39,0,0,1,221.66,139H394.23a11.4,11.4,0,0,1,11.39,11.38V261.87A11.4,11.4,0,0,1,394.23,273.25ZM221.66,142.67a7.72,7.72,0,0,0-7.71,7.71V261.87a7.72,7.72,0,0,0,7.71,7.71H394.23a7.72,7.72,0,0,0,7.72-7.71V150.38a7.72,7.72,0,0,0-7.72-7.71Z" style="fill:#263238"></path><path d="M402,150.38V261.87a7.72,7.72,0,0,1-7.72,7.71H221.66a7.62,7.62,0,0,1-3.68-.94l-3.27,2.23a11.38,11.38,0,0,0,6.95,2.38H394.23a11.4,11.4,0,0,0,11.39-11.38V150.38a11.3,11.3,0,0,0-2.92-7.58l-3.07,2.09A7.66,7.66,0,0,1,402,150.38Z" style="fill:#fff;opacity:0.2"></path></g><g id="freepik--Storyboard--inject-57"><rect x="223.04" y="154.63" width="54.61" height="46" style="fill:#407BFF"></rect><rect x="223.04" y="154.63" width="54.61" height="46" style="fill:#fff;opacity:0.8"></rect><rect x="225.36" y="156.58" width="49.97" height="28.21" style="fill:#263238"></rect><rect x="225.36" y="156.58" width="49.97" height="28.21" style="fill:#fff;opacity:0.7000000000000001"></rect><rect x="225.36" y="156.58" width="7.47" height="7.47" style="fill:#407BFF"></rect><path d="M262.55,189.11h8a.55.55,0,0,0,0-1.1h-8a.55.55,0,0,0,0,1.1Z" style="fill:#263238"></path><path d="M245.32,189.11h14.27a.55.55,0,0,0,0-1.1H245.32a.55.55,0,0,0,0,1.1Z" style="fill:#263238"></path><path d="M230.18,189.11H242a.55.55,0,0,0,0-1.1H230.18a.55.55,0,0,0,0,1.1Z" style="fill:#263238"></path><path d="M257.86,193.09h8.37a.55.55,0,0,0,0-1.1h-8.37a.55.55,0,0,0,0,1.1Z" style="fill:#263238"></path><path d="M242.46,193.09h11.89a.55.55,0,0,0,0-1.1H242.46a.55.55,0,0,0,0,1.1Z" style="fill:#263238"></path><path d="M234.46,193.09h4.95a.55.55,0,0,0,0-1.1h-4.95a.55.55,0,0,0,0,1.1Z" style="fill:#263238"></path><path d="M261.63,197.06h6.44a.55.55,0,0,0,0-1.1h-6.44a.55.55,0,0,0,0,1.1Z" style="fill:#263238"></path><path d="M247.9,197.06h10.67a.55.55,0,0,0,0-1.1H247.9a.55.55,0,0,0,0,1.1Z" style="fill:#263238"></path><path d="M232.63,197.06H244.3a.55.55,0,0,0,0-1.1H232.63a.55.55,0,0,0,0,1.1Z" style="fill:#263238"></path><path d="M254.87,152.61H253a2.94,2.94,0,1,0,0,5.87h1.83a2.94,2.94,0,1,0,0-5.87Z" style="fill:#263238"></path><path d="M257.81,155.55a2.94,2.94,0,1,1-2.94-2.94A2.94,2.94,0,0,1,257.81,155.55Z" style="fill:#fff;opacity:0.30000000000000004"></path><path d="M241.73,167.09V185h6V164.22Zm2.16,12.35h-1.12v-1.12h1.12Zm0-6.1h-1.12v-1.12h1.12Zm0-4.06h-1.12v-1.12h1.12Zm2.4,14.22h-1.11v-1.12h1.11Zm0-6.09h-1.11v-1.12h1.11Zm0-2h-1.11v-1.11h1.11Zm0-4.06h-1.11v-1.12h1.11Z" style="fill:#263238"></path><path d="M255.36,170.23V185h4.26V172.26Zm2.72,10h.8v.79h-.8Zm0-4.34h.8v.79h-.8Zm0-2.89h.8v.79h-.8Zm-1.71,10.12h.8v.79h-.8Zm0-4.34h.8v.79h-.8Zm0-1.45h.8v.8h-.8Zm0-2.89h.8v.8h-.8Z" style="fill:#263238"></path><path d="M253.85,169.05v-2.71h-.65v-3h-.55v-1.37l-1.1-1.63-1.1,1.63v1.37h-.55v3h-.65v2.71h-.65v15.88h5.91V169.05Zm-3.65,10.62h-.82v-.82h.82Zm0-3h-.82v-.82h.82Zm0-3h-.82v-.82h.82Zm1.76,7.46h-.82v-.82H252Zm0-4.47h-.82v-.82H252Zm0-1.49h-.82v-.82H252Zm0-4.48h-.82v-.82H252Zm1.76,10.44h-.82v-.82h.82Zm0-3h-.82v-.82h.82Zm0-4.48h-.82v-.82h.82Zm0-3h-.82v-.82h.82Z" style="fill:#263238"></path><path d="M240.19,172h-4.3v13h4.83V172Zm-3,8.67h-.67V180h.67Zm0-2.43h-.67v-.67h.67Zm0-2.44h-.67v-.67h.67Zm1.44,6.09H238v-.67h.67Zm0-3.65H238v-.67h.67Zm0-1.22H238v-.67h.67Zm0-3.66H238v-.67h.67Zm1.45,8.53h-.67v-.67h.67Zm0-2.44h-.67v-.67h.67Zm0-3.65h-.67v-.67h.67Zm0-2.44h-.67v-.67h.67Z" style="fill:#263238"></path><path d="M264.76,172h-4.29v13h4.83V172Zm-3,8.67h-.67V180h.67Zm0-2.43h-.67v-.67h.67Zm0-2.44h-.67v-.67h.67Zm1.44,6.09h-.67v-.67h.67Zm0-3.65h-.67v-.67h.67Zm0-1.22h-.67v-.67h.67Zm0-3.66h-.67v-.67h.67Zm1.44,8.53H264v-.67h.67Zm0-2.44H264v-.67h.67Zm0-3.65H264v-.67h.67Zm0-2.44H264v-.67h.67Z" style="fill:#263238"></path><path d="M229.81,158.1v4.43h-1v-3.61h-.88v-.82Z" style="fill:#fff"></path><rect x="282.44" y="154.63" width="54.61" height="46" style="fill:#407BFF"></rect><rect x="282.44" y="154.63" width="54.61" height="46" style="fill:#fff;opacity:0.8"></rect><rect x="284.77" y="156.58" width="49.97" height="28.21" style="fill:#263238"></rect><rect x="284.77" y="156.58" width="49.97" height="28.21" style="fill:#fff;opacity:0.7000000000000001"></rect><rect x="284.77" y="156.58" width="7.47" height="7.47" style="fill:#407BFF"></rect><path d="M322,189.11h8a.55.55,0,0,0,0-1.1h-8a.55.55,0,0,0,0,1.1Z" style="fill:#263238"></path><path d="M304.72,189.11H319a.55.55,0,0,0,0-1.1H304.72a.55.55,0,0,0,0,1.1Z" style="fill:#263238"></path><path d="M289.58,189.11h11.78a.55.55,0,0,0,0-1.1H289.58a.55.55,0,0,0,0,1.1Z" style="fill:#263238"></path><path d="M317.26,193.09h8.38a.55.55,0,0,0,0-1.1h-8.38a.55.55,0,0,0,0,1.1Z" style="fill:#263238"></path><path d="M301.86,193.09h11.89a.55.55,0,0,0,0-1.1H301.86a.55.55,0,0,0,0,1.1Z" style="fill:#263238"></path><path d="M293.87,193.09h4.94a.55.55,0,0,0,0-1.1h-4.94a.55.55,0,0,0,0,1.1Z" style="fill:#263238"></path><path d="M321,197.06h6.44a.55.55,0,0,0,0-1.1H321a.55.55,0,0,0,0,1.1Z" style="fill:#263238"></path><path d="M307.3,197.06H318a.55.55,0,0,0,0-1.1H307.3a.55.55,0,0,0,0,1.1Z" style="fill:#263238"></path><path d="M292,197.06H303.7a.55.55,0,0,0,0-1.1H292a.55.55,0,0,0,0,1.1Z" style="fill:#263238"></path><path d="M314.27,152.61h-1.83a2.94,2.94,0,1,0,0,5.87h1.83a2.94,2.94,0,1,0,0-5.87Z" style="fill:#263238"></path><path d="M317.21,155.55a2.94,2.94,0,1,1-2.94-2.94A2.94,2.94,0,0,1,317.21,155.55Z" style="fill:#fff;opacity:0.30000000000000004"></path><polygon points="302.1 174.06 301.54 176.69 304.42 177.41 304.42 175.44 302.1 174.06" style="fill:#b55b52"></polygon><path d="M309.48,164.2c1.16,1,2.5,5.19.78,6.91C307.73,168.17,307.45,163.76,309.48,164.2Z" style="fill:#263238"></path><path d="M300.69,169.11c.45,3.64.54,5.78,2.51,7.51,2.95,2.61,7.33.6,8-3.1.57-3.33-.28-8.69-3.94-9.88a5,5,0,0,0-6.34,3.23A4.88,4.88,0,0,0,300.69,169.11Z" style="fill:#b55b52"></path><path d="M300.8,172.24c1.72.13,2.31-4,1.25-6.36.74.3,2.87,0,3.46-1,3.42,1,4.71,1,5.14-.43s-4.95-2.66-8.07-2-2.2,2.93-2.2,2.93S295.1,167.11,300.8,172.24Z" style="fill:#263238"></path><path d="M299.55,172.52a3.42,3.42,0,0,0,2,1.5c1.06.25,1.43-.81,1-1.88s-1.4-2.27-2.41-2S299,171.58,299.55,172.52Z" style="fill:#b55b52"></path><path d="M305.53,169.72c0,.3.19.53.39.51s.34-.26.31-.56-.19-.53-.38-.51S305.52,169.43,305.53,169.72Z" style="fill:#263238"></path><path d="M309.55,169.39c0,.3.2.53.39.51s.34-.26.32-.56-.19-.52-.39-.51S309.53,169.1,309.55,169.39Z" style="fill:#263238"></path><path d="M308.9,169.7a10.61,10.61,0,0,0,1.59,2.43,1.73,1.73,0,0,1-1.4.37Z" style="fill:#a02724"></path><path d="M307.06,167.38a.1.1,0,0,1,0,.07.17.17,0,0,1-.13.21,1.73,1.73,0,0,1-1.56-.34.18.18,0,0,1,0-.25h0a.2.2,0,0,1,.25,0h0a1.42,1.42,0,0,0,1.24.27A.14.14,0,0,1,307.06,167.38Z" style="fill:#263238"></path><path d="M310.65,167.63a.16.16,0,0,1-.16,0,1.35,1.35,0,0,0-1.22-.3.18.18,0,0,1-.22-.12.17.17,0,0,1,.12-.21,1.69,1.69,0,0,1,1.55.36.2.2,0,0,1,0,.25A.18.18,0,0,1,310.65,167.63Z" style="fill:#263238"></path><path d="M306.17,173.71h0a3.25,3.25,0,0,1,3-.31.11.11,0,0,1,.05.15h0a.12.12,0,0,1-.15.06,3.07,3.07,0,0,0-2.79.29.11.11,0,0,1-.15,0,.11.11,0,0,1,0-.15Z" style="fill:#263238"></path><path d="M295.15,184.74s-.23-7.79,7.28-7.79S315,184.74,315,184.74Z" style="fill:#407BFF"></path><path d="M301,177.25s-.65-1.85,2.91-1.63a15.27,15.27,0,0,1,6,1.63s-1.92.31-2.23,1.48Z" style="fill:#407BFF"></path><path d="M316.11,169.29s7.16,4.77-.72,7.62l-.16-1.18-2.94,2.55,5.47,1.52-1.68-1.27s11.4-2.82,2.79-9.7Z" style="fill:#263238"></path><polygon points="315.39 168.83 318.22 168.37 317.19 167.64 314.55 168.23 315.39 168.83" style="fill:#263238"></polygon><path d="M290.27,161.73v.84h-3.34v-.67l1.7-1.61a1.49,1.49,0,0,0,.37-.45.82.82,0,0,0,.1-.37.48.48,0,0,0-.18-.4.82.82,0,0,0-.53-.15,1.29,1.29,0,0,0-.53.11,1.14,1.14,0,0,0-.39.34l-.75-.49a1.93,1.93,0,0,1,.72-.6,2.45,2.45,0,0,1,1-.22,2.33,2.33,0,0,1,.87.16,1.37,1.37,0,0,1,.57.46,1.17,1.17,0,0,1,.21.69,1.57,1.57,0,0,1-.15.68,2.83,2.83,0,0,1-.59.72l-1,1Z" style="fill:#fff"></path><rect x="341.54" y="154.63" width="54.61" height="46" style="fill:#407BFF"></rect><rect x="341.54" y="154.63" width="54.61" height="46" style="fill:#fff;opacity:0.8"></rect><rect x="343.86" y="156.58" width="49.97" height="28.21" style="fill:#263238"></rect><rect x="343.86" y="156.58" width="49.97" height="28.21" style="fill:#fff;opacity:0.7000000000000001"></rect><rect x="343.86" y="156.58" width="7.47" height="7.47" style="fill:#407BFF"></rect><path d="M381.05,189.11h8a.55.55,0,0,0,0-1.1h-8a.55.55,0,0,0,0,1.1Z" style="fill:#263238"></path><path d="M363.82,189.11h14.27a.55.55,0,0,0,0-1.1H363.82a.55.55,0,0,0,0,1.1Z" style="fill:#263238"></path><path d="M348.68,189.11h11.77a.55.55,0,0,0,0-1.1H348.68a.55.55,0,0,0,0,1.1Z" style="fill:#263238"></path><path d="M376.36,193.09h8.38a.55.55,0,0,0,0-1.1h-8.38a.55.55,0,0,0,0,1.1Z" style="fill:#263238"></path><path d="M361,193.09h11.89a.55.55,0,0,0,0-1.1H361a.55.55,0,0,0,0,1.1Z" style="fill:#263238"></path><path d="M353,193.09h5a.55.55,0,0,0,0-1.1h-5a.55.55,0,0,0,0,1.1Z" style="fill:#263238"></path><path d="M380.13,197.06h6.44a.55.55,0,0,0,0-1.1h-6.44a.55.55,0,0,0,0,1.1Z" style="fill:#263238"></path><path d="M366.4,197.06h10.67a.55.55,0,0,0,0-1.1H366.4a.55.55,0,0,0,0,1.1Z" style="fill:#263238"></path><path d="M351.13,197.06H362.8a.55.55,0,0,0,0-1.1H351.13a.55.55,0,0,0,0,1.1Z" style="fill:#263238"></path><path d="M373.37,152.61h-1.83a2.94,2.94,0,1,0,0,5.87h1.83a2.94,2.94,0,1,0,0-5.87Z" style="fill:#263238"></path><path d="M376.31,155.55a2.94,2.94,0,1,1-2.94-2.94A2.94,2.94,0,0,1,376.31,155.55Z" style="fill:#fff;opacity:0.30000000000000004"></path><path d="M373.15,168.08c-.2-1-2.17-3.2-2.17-3.2l-1.63.09-.06-.68a6.47,6.47,0,0,1,.44-1.36c.24-.42-.78-.88-1.25-1s-.53-.81-.9-.32a.57.57,0,0,0,.1.84l-.26,1.55.41.48h.54l-.2.53-1.59.09a12,12,0,0,0-1.86,2.93,1.19,1.19,0,0,0,.1.59,7.57,7.57,0,0,0,1.28,1.09l.5.18v1.37l-1.7,13-1.1.41a.21.21,0,0,0-.14.19h2.24v0l-.05-.47a57.05,57.05,0,0,0,1.32-5.66,11.15,11.15,0,0,0-.05-1.21l1.17-4.91,1.63,11.67-1.07.41a.2.2,0,0,0-.14.2h2.22v0l-.1-.61a49.68,49.68,0,0,0-.13-5.66,12.87,12.87,0,0,0-.43-1.32s.28-3.37.23-4.6c0-.49-.24-1.64-.24-1.64l.16-1.38.27-.14a6.7,6.7,0,0,0,2.34-.88A1,1,0,0,0,373.15,168.08Zm-6.91,1.06s-.5-.8-.46-1.1a3.14,3.14,0,0,1,.79-1.14l0,2.17Zm5.63-1.06c-.06.4-1.2,1-1.2,1l-.17,0,.29-2.52C371.17,166.88,371.93,167.67,371.87,168.08Z" style="fill:#407BFF"></path><polygon points="359.73 174.41 353.05 178.93 352.95 177.47 350.6 181.03 354.61 181.03 353.73 180.07 360.73 176.41 359.73 174.41" style="fill:#263238"></polygon><polygon points="360.13 174.15 361.13 176.17 361.97 175.73 360.86 173.65 360.13 174.15" style="fill:#263238"></polygon><polygon points="359.06 167.16 350.99 167.27 351.71 166 347.79 167.68 351.14 169.88 350.93 168.59 358.79 169.4 359.06 167.16" style="fill:#263238"></polygon><polygon points="359.54 167.17 359.26 169.41 360.2 169.5 360.42 167.16 359.54 167.17" style="fill:#263238"></polygon><polygon points="377.14 167.16 385.2 167.27 384.49 166 388.41 167.68 385.06 169.88 385.27 168.59 377.41 169.4 377.14 167.16" style="fill:#263238"></polygon><polygon points="376.66 167.17 376.94 169.41 376 169.5 375.78 167.16 376.66 167.17" style="fill:#263238"></polygon><polygon points="377.1 174.41 383.78 178.93 383.88 177.47 386.23 181.03 382.22 181.03 383.1 180.07 376.1 176.41 377.1 174.41" style="fill:#263238"></polygon><polygon points="376.7 174.15 375.7 176.17 374.86 175.73 375.97 173.65 376.7 174.15" style="fill:#263238"></polygon><path d="M349.05,160.3a1.16,1.16,0,0,1,.31.84,1.39,1.39,0,0,1-.2.71,1.4,1.4,0,0,1-.62.52,2.36,2.36,0,0,1-1,.2,3.26,3.26,0,0,1-.93-.13,2.32,2.32,0,0,1-.76-.35l.39-.78a2.16,2.16,0,0,0,.59.29,2.25,2.25,0,0,0,.68.11,1.08,1.08,0,0,0,.61-.15.5.5,0,0,0,.22-.42c0-.37-.28-.55-.83-.55H347v-.67l.91-1h-1.88v-.83h3.1v.67l-1,1.14A1.44,1.44,0,0,1,349.05,160.3Z" style="fill:#fff"></path><rect x="252.46" y="209.13" width="54.61" height="46" style="fill:#407BFF"></rect><rect x="252.46" y="209.13" width="54.61" height="46" style="fill:#fff;opacity:0.8"></rect><rect x="254.78" y="211.08" width="49.97" height="28.21" style="fill:#263238"></rect><rect x="254.78" y="211.08" width="49.97" height="28.21" style="fill:#fff;opacity:0.7000000000000001"></rect><rect x="254.78" y="211.08" width="7.47" height="7.47" style="fill:#407BFF"></rect><path d="M292,243.61h8a.55.55,0,0,0,0-1.1h-8a.55.55,0,0,0,0,1.1Z" style="fill:#263238"></path><path d="M274.73,243.61H289a.55.55,0,0,0,0-1.1H274.73a.55.55,0,0,0,0,1.1Z" style="fill:#263238"></path><path d="M259.59,243.61h11.78a.55.55,0,0,0,0-1.1H259.59a.55.55,0,0,0,0,1.1Z" style="fill:#263238"></path><path d="M287.27,247.59h8.38a.55.55,0,0,0,0-1.1h-8.38a.55.55,0,0,0,0,1.1Z" style="fill:#263238"></path><path d="M271.88,247.59h11.88a.55.55,0,0,0,0-1.1H271.88a.55.55,0,0,0,0,1.1Z" style="fill:#263238"></path><path d="M263.88,247.59h4.94a.55.55,0,0,0,0-1.1h-4.94a.55.55,0,0,0,0,1.1Z" style="fill:#263238"></path><path d="M291,251.56h6.44a.55.55,0,0,0,0-1.1H291a.55.55,0,0,0,0,1.1Z" style="fill:#263238"></path><path d="M277.32,251.56H288a.55.55,0,0,0,0-1.1H277.32a.55.55,0,0,0,0,1.1Z" style="fill:#263238"></path><path d="M262,251.56h11.67a.55.55,0,0,0,0-1.1H262a.55.55,0,0,0,0,1.1Z" style="fill:#263238"></path><path d="M284.28,207.11h-1.83a2.94,2.94,0,0,0,0,5.88h1.83a2.94,2.94,0,1,0,0-5.88Z" style="fill:#263238"></path><path d="M287.22,210.05a2.94,2.94,0,1,1-2.94-2.94A2.94,2.94,0,0,1,287.22,210.05Z" style="fill:#fff;opacity:0.30000000000000004"></path><path d="M276.79,219.4l.76-1.64v-1.91l1.11-2.22h2.45s3-.08,2.79.49-1.76.7-1.76.7l0,1.48.38,1H282s-.39,2.42-2,1.25l-.2,1.88Z" style="fill:#b55b52"></path><path d="M272.47,229.19l.68-8.64s-4.28-.46-4.74.53,1.61,3.75,1.61,3.75l1.32-.36.56,1.74-1.19,1-.84-.92s-3.14-1.83-3.52-5S274.2,218,274.2,218l8,2.6c6.95,6.5,6-.92,6-.92l-1.76-.53.84-1.53,2.07,1a6.89,6.89,0,0,1,0,5.71c-1.46,2.71-7.42-.83-7.42-.83l-3.26,7.95,4,7.91h-2.89l-4.92-5.13-3.5,5.13h-3l2.34-6.09.66-2Z" style="fill:#407BFF"></path><path d="M287.83,229.19l-4.46-1.3-1.5,2.87,1.91-.73s1.07,3.06-8.41,3.06c-3.66,0-5.79-.7-7-1.55l-2.59,1.24c1.6,1.4,4.41,2.6,9.39,2.6,12,0,10.55-5.73,10.55-5.73Z" style="fill:#263238"></path><path d="M267.1,230.26l-3,.2a5.8,5.8,0,0,0,.84,1.45l2.75-.92A3.63,3.63,0,0,1,267.1,230.26Z" style="fill:#263238"></path><path d="M266.89,229.86c0-.11-.08-.22-.11-.32l-3.1-.71a4.42,4.42,0,0,0,.14.86Z" style="fill:#263238"></path><path d="M260.56,216.1h-.72V217h-1v-.93h-2.38v-.69l2.08-2.81h1.08l-1.94,2.67h1.19v-.83h1v.83h.72Z" style="fill:#fff"></path><rect x="311.86" y="208.91" width="54.61" height="46" style="fill:#407BFF"></rect><rect x="311.86" y="208.91" width="54.61" height="46" style="fill:#fff;opacity:0.8"></rect><rect x="314.18" y="210.87" width="49.97" height="28.21" style="fill:#263238"></rect><rect x="314.18" y="210.87" width="49.97" height="28.21" style="fill:#fff;opacity:0.7000000000000001"></rect><rect x="314.18" y="210.87" width="7.47" height="7.47" style="fill:#407BFF"></rect><path d="M351.36,243.4h8a.55.55,0,0,0,0-1.1h-8a.55.55,0,0,0,0,1.1Z" style="fill:#263238"></path><path d="M334.13,243.4h14.28a.55.55,0,0,0,0-1.1H334.13a.55.55,0,0,0,0,1.1Z" style="fill:#263238"></path><path d="M319,243.4h11.77a.55.55,0,0,0,0-1.1H319a.55.55,0,0,0,0,1.1Z" style="fill:#263238"></path><path d="M346.67,247.37h8.38a.55.55,0,0,0,0-1.1h-8.38a.55.55,0,0,0,0,1.1Z" style="fill:#263238"></path><path d="M331.28,247.37h11.88a.55.55,0,0,0,0-1.1H331.28a.55.55,0,0,0,0,1.1Z" style="fill:#263238"></path><path d="M323.28,247.37h4.94a.55.55,0,0,0,0-1.1h-4.94a.55.55,0,0,0,0,1.1Z" style="fill:#263238"></path><path d="M350.44,251.35h6.44a.55.55,0,0,0,0-1.1h-6.44a.55.55,0,0,0,0,1.1Z" style="fill:#263238"></path><path d="M336.72,251.35h10.66a.55.55,0,0,0,0-1.1H336.72a.55.55,0,0,0,0,1.1Z" style="fill:#263238"></path><path d="M321.44,251.35h11.67a.55.55,0,0,0,0-1.1H321.44a.55.55,0,0,0,0,1.1Z" style="fill:#263238"></path><path d="M343.68,206.9h-1.83a2.94,2.94,0,1,0,0,5.87h1.83a2.94,2.94,0,1,0,0-5.87Z" style="fill:#263238"></path><path d="M346.62,209.83a2.94,2.94,0,1,1-2.94-2.93A2.93,2.93,0,0,1,346.62,209.83Z" style="fill:#fff;opacity:0.30000000000000004"></path><polygon points="345.22 221.28 335.74 224.13 314.18 228.44 314.18 237.74 320.75 235.55 336.15 228.21 339.97 228.87 341.5 228.16 342.77 229.43 348.07 229.08 349.15 223.32 345.22 221.28" style="fill:#407BFF"></polygon><polygon points="318.48 222.74 316.75 222.86 317.25 225 319 224.75 318.48 222.74" style="fill:#263238"></polygon><polygon points="330.43 221.01 330.75 221.94 319.33 222.69 319.84 224.63 331.14 223.01 331.42 223.82 333.85 222.04 330.43 221.01" style="fill:#263238"></polygon><polygon points="323.95 235.53 322.32 236.11 323.39 238.04 325 237.32 323.95 235.53" style="fill:#263238"></polygon><polygon points="334.98 230.59 335.53 231.4 324.76 235.24 325.77 236.98 336.21 232.32 336.69 233.03 338.55 230.65 334.98 230.59" style="fill:#263238"></polygon><path d="M342.77,239.08s2.33-9,9.83-8.49a88,88,0,0,1,11.55,1.33v7.16Z" style="fill:#263238"></path><path d="M359.86,227.09s-.4,2.89.46,4.22c0,0-5.51,2-6.22-.62a3.86,3.86,0,0,0,1.48-2.63C355.86,226.2,359.86,227.09,359.86,227.09Z" style="fill:#b55b52"></path><path d="M355.2,230.78c3.91.05,4.51-2.75,4.6-3.7-.49-.1-4-.75-4.22,1a3.94,3.94,0,0,1-1.4,2.57A3.87,3.87,0,0,0,355.2,230.78Z" style="opacity:0.1"></path><path d="M361.47,221.41c-.46,3.64-.55,5.77-2.51,7.5-2.95,2.61-7.34.6-8-3.09-.57-3.33.28-8.7,3.94-9.89a5,5,0,0,1,6.34,3.24A5.15,5.15,0,0,1,361.47,221.41Z" style="fill:#b55b52"></path><path d="M362.61,224.81a3.4,3.4,0,0,1-2,1.5c-1.06.26-1.42-.81-1-1.87s1.4-2.28,2.4-2S363.21,223.87,362.61,224.81Z" style="fill:#b55b52"></path><path d="M356.62,222c0,.29-.19.52-.38.51s-.34-.27-.32-.57.19-.52.39-.51S356.64,221.72,356.62,222Z" style="fill:#263238"></path><path d="M352.6,221.69c0,.3-.19.53-.38.51s-.34-.26-.32-.56.19-.53.38-.51S352.62,221.39,352.6,221.69Z" style="fill:#263238"></path><path d="M353.25,222a10.25,10.25,0,0,1-1.58,2.43,1.73,1.73,0,0,0,1.4.38Z" style="fill:#a02724"></path><path d="M356.35,218.69a.12.12,0,0,0,0,.08.18.18,0,0,0,.13.21,1.76,1.76,0,0,0,1.56-.35.16.16,0,0,0,0-.24h0a.18.18,0,0,0-.25,0h0a1.39,1.39,0,0,1-1.24.26A.18.18,0,0,0,356.35,218.69Z" style="fill:#263238"></path><path d="M351.71,219.06a.15.15,0,0,0,.16,0,1.37,1.37,0,0,1,1.23-.3.18.18,0,0,0,.21-.12.18.18,0,0,0-.11-.22,1.71,1.71,0,0,0-1.55.37.16.16,0,0,0,0,.24Z" style="fill:#263238"></path><path d="M356,226h0a3.26,3.26,0,0,0-3-.31.12.12,0,0,0-.06.15h0a.11.11,0,0,0,.15.05,3.08,3.08,0,0,1,2.78.3.12.12,0,0,0,.16,0,.11.11,0,0,0,0-.15Z" style="fill:#263238"></path><path d="M352,219.85a1.43,1.43,0,1,0,1.43,1.43A1.43,1.43,0,0,0,352,219.85Zm0,2.32a.9.9,0,1,1,.89-.89A.89.89,0,0,1,352,222.17Z" style="fill:#263238"></path><path d="M356.62,220.24a1.43,1.43,0,1,0,1.43,1.42A1.42,1.42,0,0,0,356.62,220.24Zm0,2.32a.9.9,0,1,1,.9-.9A.89.89,0,0,1,356.62,222.56Z" style="fill:#263238"></path><path d="M352.75,222.2s.51-.81,2.9.18a1.21,1.21,0,0,1,.27-1.66s-2.11.6-3-.14A1.32,1.32,0,0,1,352.75,222.2Z" style="fill:#263238"></path><g style="opacity:0.4"><path d="M364.15,236.56a39.69,39.69,0,0,1-18.86-2.45,13.5,13.5,0,0,0-.93,1.34,27.93,27.93,0,0,0,7.71,2.13,43.72,43.72,0,0,0,12.08,0Z" style="fill:#fff"></path><path d="M343.26,237.66a13.5,13.5,0,0,0-.49,1.42H348A35.84,35.84,0,0,1,343.26,237.66Z" style="fill:#fff"></path><path d="M347.84,231.76a8.42,8.42,0,0,0-1.16.88c.5.6,1.95,1.55,6.23,2.18a44.26,44.26,0,0,0,11.24.16v-1.1C354.47,234.74,349.15,232.44,347.84,231.76Z" style="fill:#fff"></path></g><path d="M319.19,214.39a1.23,1.23,0,0,1,.45,1,1.4,1.4,0,0,1-.2.73,1.42,1.42,0,0,1-.62.53,2.26,2.26,0,0,1-1,.2,3.57,3.57,0,0,1-.92-.12,2.38,2.38,0,0,1-.77-.35l.4-.78a2.17,2.17,0,0,0,1.26.39,1.08,1.08,0,0,0,.61-.15.47.47,0,0,0,.22-.42.49.49,0,0,0-.23-.43,1.54,1.54,0,0,0-.8-.15h-1.13l.23-2.49h2.7v.82h-1.85l-.07.84h.36A2.11,2.11,0,0,1,319.19,214.39Z" style="fill:#fff"></path></g><g id="freepik--Character--inject-57"><path d="M168.22,139.36s6.78-1.91,7.32.67a2.29,2.29,0,0,1-2,2.86v5.74l-7.34-7.36.4-1.34Z" style="fill:#263238"></path><path d="M187.75,197a3,3,0,0,0,1.13,4.4c3.62,1.81,9.62,4.39,13.34,3.84,5.18-.76,18.61-18,20.65-20.64a2.89,2.89,0,0,1,.61-.6l4.93-3.56a2.92,2.92,0,0,0,1-1.29l1.09-2.65a3,3,0,0,0-1.68-3.93l-1.29-.5a3,3,0,0,0-3.68,1.28l-3.66,6.29a3,3,0,0,1-.52.65c-2.19,2.1-15.62,14.83-18.92,14.83-2,0-4.48-1.38-6.26-2.59a3,3,0,0,0-4.16.75Z" style="fill:#ffb573"></path><path d="M181.55,180.57a41.44,41.44,0,0,1,10.22,6.74C195.69,191.05,197,191,197,191a30.12,30.12,0,0,1-7.3,11.71S172.33,198.22,181.55,180.57Z" style="fill:#407BFF"></path><path d="M186.7,202.7A36.24,36.24,0,0,0,195,189.11l3.47,2a33.15,33.15,0,0,1-8.24,12.72Z" style="fill:#407BFF"></path><path d="M186.7,202.7A36.24,36.24,0,0,0,195,189.11l3.47,2a33.15,33.15,0,0,1-8.24,12.72Z" style="fill:#fff;opacity:0.30000000000000004"></path><polygon points="184.99 388.26 188.86 405.1 196.94 403.73 195.17 386.41 184.99 388.26" style="fill:#ffb573"></polygon><path d="M198.27,402.05a.22.22,0,0,1-.2-.14.2.2,0,0,1,.06-.24c.12-.11,2.86-2.51,4.43-2.4a1.06,1.06,0,0,1,.76.36.8.8,0,0,1,.21.91c-.27.55-1.38,1-2.48,1.21A16.2,16.2,0,0,1,198.27,402.05Zm.63-.42c1.7-.14,3.94-.6,4.23-1.27.05-.08.08-.22-.13-.45a.58.58,0,0,0-.47-.21,1.49,1.49,0,0,0-.42,0A9.85,9.85,0,0,0,198.9,401.63Z" style="fill:#407BFF"></path><path d="M198.16,402.06a.23.23,0,0,1-.13-.17c0-.12-.26-2.57.68-3.73a1.6,1.6,0,0,1,1.1-.6c.59-.06.84.2.91.44.39,1-1.36,3.32-2.33,4a.11.11,0,0,1-.08,0A.26.26,0,0,1,198.16,402.06Zm1.59-4.07a1.1,1.1,0,0,0-.67.41,5.06,5.06,0,0,0-.63,3c1-.87,2.07-2.67,1.89-3.26,0-.05-.08-.2-.47-.15l-.12,0Z" style="fill:#407BFF"></path><path d="M197.11,401l-9.71,2a.81.81,0,0,0-.64.77L186.6,412a1.34,1.34,0,0,0,1.3,1.36l.28,0c3.49-.77,6.56-1.6,10.92-2.47,5.15-1.05,4-.17,10-1.31,3.66-.69,3.48-5,1.9-4.85-7.26.54-8.42-1.45-11.66-3.43A3.28,3.28,0,0,0,197.11,401Z" style="fill:#263238"></path><path d="M184.46,245.61l12.48,150.6-10.49,1.53S173,346.58,174.36,330l-14.08-54.7s-5.34-11.52-1.45-30.24Z" style="fill:#407BFF"></path><path d="M184.46,245.61l12.48,150.6-10.49,1.53S173,346.58,174.36,330l-14.08-54.7s-5.34-11.52-1.45-30.24Z" style="fill:#fff;opacity:0.30000000000000004"></path><path d="M160.28,275.27l5.89,22.88c3.5-20,3.34-43.74,3.34-43.74l-4.75,5.51h-5.71l-1.52,1.95C158,270.39,160.28,275.27,160.28,275.27Z" style="opacity:0.1"></path><polygon points="185.93 399.26 198.02 397.52 197.78 392.47 184.46 394.39 185.93 399.26" style="fill:#407BFF"></polygon><polygon points="130.35 386.92 128.75 404.14 136.61 405.27 140.61 388.34 130.35 386.92" style="fill:#ffb573"></polygon><path d="M138.4,403a.22.22,0,0,1-.15-.19.21.21,0,0,1,.12-.21c.14-.07,3.45-1.61,4.93-1.07a1.15,1.15,0,0,1,.63.56.8.8,0,0,1-.06.93c-.41.46-1.59.57-2.72.47A16,16,0,0,1,138.4,403Zm.72-.23c1.67.35,3.95.53,4.42,0,.07-.07.14-.2,0-.48a.6.6,0,0,0-.4-.33,1.37,1.37,0,0,0-.4-.09A10.13,10.13,0,0,0,139.12,402.76Z" style="fill:#407BFF"></path><path d="M138.29,403a.22.22,0,0,1-.08-.2c0-.11.47-2.53,1.7-3.38a1.59,1.59,0,0,1,1.23-.27c.58.11.74.42.74.67.11,1-2.23,2.81-3.35,3.2h-.09A.2.2,0,0,1,138.29,403Zm2.67-3.46a1.19,1.19,0,0,0-.77.21,5,5,0,0,0-1.43,2.67c1.18-.57,2.73-2,2.73-2.6,0-.06,0-.21-.41-.28Z" style="fill:#407BFF"></path><path d="M137.59,401.65l-9.88-.83a.8.8,0,0,0-.83.56l-2.46,7.88a1.33,1.33,0,0,0,.86,1.67,1.27,1.27,0,0,0,.28.06c3.56.23,6.75.3,11.18.68,5.23.44,3.85,1,10,1.56,3.7.36,4.74-3.8,3.18-4.14-7.11-1.5-7.68-3.74-10.24-6.54A3.14,3.14,0,0,0,137.59,401.65Z" style="fill:#263238"></path><path d="M171.57,246.39s-3,32.73-32.72,151.17l-9.52-1.35s3.1-59.5,8.87-69l2.49-53.54S138,261,143.89,243.44Z" style="fill:#407BFF"></path><path d="M171.57,246.39s-3,32.73-32.72,151.17l-9.52-1.35s3.1-59.5,8.87-69l2.49-53.54S138,261,143.89,243.44Z" style="fill:#fff;opacity:0.30000000000000004"></path><polygon points="127.98 397.56 140.06 399.38 141.29 394.49 127.98 392.47 127.98 397.56" style="fill:#407BFF"></polygon><path d="M156,326.84s-1.33-.1-1.47-2.24c0,0-2.25,1-3.37-1,0,0-2.55.74-3.69-.18,0,0-1.67,2.63-3,2.3,0,0,1.85.74,2.22,1.74,0,0,2.43-1,3.06.14,0,0,2.41-.55,3.38.55,0,0,2.68-.18,3.42.53A3.65,3.65,0,0,1,156,326.84Z" style="fill:#407BFF"></path><path d="M156,326.84s-1.33-.1-1.47-2.24c0,0-2.25,1-3.37-1,0,0-2.55.74-3.69-.18,0,0-1.67,2.63-3,2.3,0,0,1.85.74,2.22,1.74,0,0,2.43-1,3.06.14,0,0,2.41-.55,3.38.55,0,0,2.68-.18,3.42.53A3.65,3.65,0,0,1,156,326.84Z" style="fill:#fff;opacity:0.7000000000000001"></path><path d="M155.63,327.91s-4.23-6.4-10.22-2Z" style="fill:#ffb573"></path><path d="M142.22,245.83s.18-32.26-2.74-63.53a3.28,3.28,0,0,1,2.54-3.51c5.8-1.35,20.13-3.57,38.32,1.31a6.22,6.22,0,0,1,4.57,5.8c.37,10.82,1.31,39,1.75,61.67C186.66,247.57,170.3,250.66,142.22,245.83Z" style="fill:#263238"></path><path d="M137.85,240.57c-1.32-1.75-1-5.22-1-5.22s-8.27-9.83-8.68-19.31,7.15-26.93,7.15-26.93L147,195.06s-8.57,14-9.85,19.56,4.56,17.77,4.56,17.77c3.36.88,4.68,1.19,5.78,2.29a9.55,9.55,0,0,1,1.65,3.11,4.53,4.53,0,0,1-2.38,5.76l-.4.17a4.54,4.54,0,0,1-2.93.26l-3.2-.81S138.38,241.27,137.85,240.57Z" style="fill:#ffb573"></path><path d="M143.49,202.57l-11.85-7.34s3.88-21.66,15.71-15C157.41,185.83,143.49,202.57,143.49,202.57Z" style="fill:#407BFF"></path><polygon points="130.63 195.93 143.51 203.87 146.96 200.16 131.64 191.04 130.63 195.93" style="fill:#407BFF"></polygon><polygon points="130.63 195.93 143.51 203.87 146.96 200.16 131.64 191.04 130.63 195.93" style="fill:#fff;opacity:0.30000000000000004"></polygon><path d="M174.45,178.47l-1.31-.13a3.29,3.29,0,0,1-2.42-1.42c-1.79-2.62-1.55-6.41-.86-9.5l-13.16-9.21c1.18,4.65,2.36,12.24,1.06,17.63-.32,1.34-1.16,1-1.16,1-.22,2.23-4.12,6.79,6.87,7.15C174.24,184.31,177.26,181.27,174.45,178.47Z" style="fill:#ffb573"></path><path d="M162.06,162l7.79,5.44a19.33,19.33,0,0,0-.5,3.48c-2.82.56-7-2.11-7.45-4.85A12.1,12.1,0,0,1,162.06,162Z" style="opacity:0.2;isolation:isolate"></path><path d="M154.94,152.72c1.77,7.41,2.43,11.83,6.89,15,6.69,4.74,15.33-.4,15.81-8.2.43-7-2.54-17.94-10.39-19.58a10.48,10.48,0,0,0-12.31,12.81Z" style="fill:#ffb573"></path><path d="M171.07,150.73a21.8,21.8,0,0,0,3.82,4.67,3.55,3.55,0,0,1-2.81,1.08Z" style="fill:#ed893e"></path><path d="M166.34,151.58c.09.56.48,1,.85.9s.59-.55.5-1.12-.47-1-.85-.9S166.24,151,166.34,151.58Z" style="fill:#2e353a"></path><path d="M172.81,150.71c.09.57.47,1,.85.9s.59-.55.5-1.13-.47-1-.85-.9S172.71,150.13,172.81,150.71Z" style="fill:#2e353a"></path><path d="M164,149.76a.25.25,0,0,1-.17,0,.34.34,0,0,1-.15-.45h0a3.26,3.26,0,0,1,2.51-1.8.33.33,0,0,1,.36.3h0a.33.33,0,0,1-.31.36h0a2.61,2.61,0,0,0-1.95,1.4A.31.31,0,0,1,164,149.76Z" style="fill:#2e353a"></path><path d="M175.21,148.12a.34.34,0,0,1-.28-.14,2.82,2.82,0,0,0-2.16-1.27.34.34,0,0,1,0-.67h0a3.45,3.45,0,0,1,2.7,1.55.32.32,0,0,1-.07.46h0A.28.28,0,0,1,175.21,148.12Z" style="fill:#2e353a"></path><path d="M172.24,180.83s3.64,1,2.63,10.84,2,23.41,2,23.41-4.2-2.1-7.65.42-5.3-1.43-5.3-1.43,6.3-23.23,1.93-27S172.24,180.83,172.24,180.83Z" style="fill:#407BFF"></path><path d="M172.24,180.83s3.64,1,2.63,10.84,2,23.41,2,23.41-4.2-2.1-7.65.42-5.3-1.43-5.3-1.43,6.3-23.23,1.93-27S172.24,180.83,172.24,180.83Z" style="opacity:0.4"></path><path d="M171.39,189.7s1.93,1.68.85,7,1.92,12.76-.26,16.16c-.25.4-1.78.66-1.78.66a.83.83,0,0,1-1.13-.84c.23-3.53.94-13.26,1.71-16.54A19,19,0,0,0,171.39,189.7Z" style="opacity:0.2"></path><path d="M170.77,178.52a19,19,0,0,1-13.1-3.8,1.7,1.7,0,0,0-1.39-.31,2.58,2.58,0,0,0-2,2.06,2.86,2.86,0,0,0-2.27,0,.87.87,0,0,0-.38.94c.42,1.82,2.27,7.85,8.88,8.58C168.36,186.89,170.77,178.52,170.77,178.52Z" style="fill:#407BFF"></path><path d="M170.77,178.52a19,19,0,0,1-13.1-3.8,1.7,1.7,0,0,0-1.39-.31,2.58,2.58,0,0,0-2,2.06,2.86,2.86,0,0,0-2.27,0,.87.87,0,0,0-.38.94c.42,1.82,2.27,7.85,8.88,8.58C168.36,186.89,170.77,178.52,170.77,178.52Z" style="opacity:0.5"></path><path d="M158.15,179.56a16.52,16.52,0,0,1-3.2-2.09S154.62,180.69,158.15,179.56Z" style="opacity:0.2"></path><path d="M172.24,176.93c-4.07,2.31-13.22,5.92-17.92,5.42s7,7.12,7,7.12,1.79,3.84,4.7,2.2,15.47-14,9.62-14.09C175.64,177.58,174.74,175.51,172.24,176.93Z" style="fill:#407BFF"></path><path d="M172.24,176.93c-4.07,2.31-13.22,5.92-17.92,5.42s7,7.12,7,7.12,1.79,3.84,4.7,2.2,15.47-14,9.62-14.09C175.64,177.58,174.74,175.51,172.24,176.93Z" style="opacity:0.30000000000000004"></path><path d="M174.15,178.84s-1.88,4.95-10.27,8.64a2,2,0,0,1-2.16-.35l-1.17-1.1S165.8,186.26,174.15,178.84Z" style="opacity:0.2"></path><path d="M172.09,157.87s-4.65-1.4-5.77.73,1.23,8.3,1.9,6c0,0,1.56,4.21,2.55.52,0,0,1.22,3.63,2.42-.47,0,0,.58,1.24,1.26-1.46S175.74,156.86,172.09,157.87Z" style="fill:#263238"></path><path d="M172.09,157.87s-4.65-1.4-5.77.73,1.23,8.3,1.9,6c0,0,1.56,4.21,2.55.52,0,0,1.22,3.63,2.42-.47,0,0,.58,1.24,1.26-1.46S175.74,156.86,172.09,157.87Z" style="fill:#fff;opacity:0.5"></path><path d="M173.88,159.27a37.15,37.15,0,0,0-6.32.19c.68,1.21,1.82,2.15,4.19,1.93S173.88,159.27,173.88,159.27Z" style="fill:#2e353a"></path><path d="M170.53,160.5a4.76,4.76,0,0,1,2.66.38,2.58,2.58,0,0,1-1.44.5,4.74,4.74,0,0,1-2.65-.38A2.58,2.58,0,0,1,170.53,160.5Z" style="fill:#de5753"></path><path d="M173.66,159.25a.87.87,0,0,1-.65.69,28.46,28.46,0,0,1-4.13,0,1.33,1.33,0,0,1-1.11-.52A42.9,42.9,0,0,1,173.66,159.25Z" style="fill:#fff"></path><path d="M151.88,150l4.19,10s3.23-1.49,2.17-5.8,2.75-6.29,3-10.38,6-3.94,6-3.94l-7.33-2.06-9,6.28Z" style="fill:#263238"></path><path d="M152,151.83s-8.63-4.48,0-12,22.94-4.65,20-1.71c-1.21,1.21-8.9,2.35-12.69,4.9A19.89,19.89,0,0,0,152,151.83Z" style="fill:#407BFF"></path><path d="M152,151.83s-8.63-4.48,0-12,22.94-4.65,20-1.71c-1.21,1.21-8.9,2.35-12.69,4.9A19.89,19.89,0,0,0,152,151.83Z" style="fill:#fff;opacity:0.5"></path><path d="M151,142.73c-3.47,3.88-1,7.3.7,8.91l.32.19a19.89,19.89,0,0,1,7.3-8.84,16.34,16.34,0,0,1,2.93-1.48C159.55,140.15,154.66,138.63,151,142.73Z" style="fill:#407BFF"></path><path d="M171.76,137.65C170,139,167.15,139.31,165,140a22.5,22.5,0,0,0-7,3.31,19.77,19.77,0,0,0-6.49,8.39c-.23.62.76.89,1,.28a18.25,18.25,0,0,1,8.64-9.43c3.39-1.67,8.09-1.74,11.11-4,.52-.4,0-1.29-.52-.89Z" style="fill:#407BFF"></path><g style="opacity:0.30000000000000004"><path d="M171.76,137.65C170,139,167.15,139.31,165,140a22.5,22.5,0,0,0-7,3.31,19.77,19.77,0,0,0-6.49,8.39c-.23.62.76.89,1,.28a18.25,18.25,0,0,1,8.64-9.43c3.39-1.67,8.09-1.74,11.11-4,.52-.4,0-1.29-.52-.89Z" style="fill:#fff"></path></g><path d="M176.28,147.58l-13.14,2.24-6.58,6.26.58,1,6.25-5.15,1.72,2.6,5-.23,1.3-2.9,2.08,2.11,3.93-2.23Zm-6.73,5.84-4,.25-1.62-3.3,6.4-1,.54,1.39Zm2.24-3-.42-1.32,4.43-.9.87,2.76-3,1.66Z" style="fill:#407BFF"></path><path d="M176.28,147.58l-13.14,2.24-6.58,6.26.58,1,6.25-5.15,1.72,2.6,5-.23,1.3-2.9,2.08,2.11,3.93-2.23Zm-6.73,5.84-4,.25-1.62-3.3,6.4-1,.54,1.39Zm2.24-3-.42-1.32,4.43-.9.87,2.76-3,1.66Z" style="fill:#fff;opacity:0.8"></path><path d="M152.68,160.71a7.19,7.19,0,0,0,4.82,2.67c2.52.27,3.38-2.09,2.35-4.25-.94-2-3.37-4.44-5.75-3.7A3.26,3.26,0,0,0,152.68,160.71Z" style="fill:#ffb573"></path></g></svg>